<svg width="13" height="65" viewBox="0 0 13 65" fill="none" xmlns="http://www.w3.org/2000/svg">
<path d="M5.96961 64.5303C6.2625 64.8232 6.73738 64.8232 7.03027 64.5303L11.8032 59.7574C12.0961 59.4645 12.0961 58.9896 11.8032 58.6967C11.5103 58.4038 11.0355 58.4038 10.7426 58.6967L6.49994 62.9393L2.2573 58.6967C1.96441 58.4038 1.48953 58.4038 1.19664 58.6967C0.903745 58.9896 0.903745 59.4645 1.19664 59.7574L5.96961 64.5303ZM7.24994 64L7.24994 62.5455L5.74994 62.5455L5.74994 64L7.24994 64ZM7.24994 59.6364L7.24994 56.7273L5.74994 56.7273L5.74994 59.6364L7.24994 59.6364ZM7.24994 53.8182L7.24994 50.9091L5.74994 50.9091L5.74994 53.8182L7.24994 53.8182ZM7.24994 48L7.24994 45.0909L5.74994 45.0909L5.74994 48L7.24994 48ZM7.24994 42.1818L7.24994 39.2727L5.74994 39.2727L5.74994 42.1818L7.24994 42.1818ZM7.24994 36.3636L7.24994 33.4545L5.74994 33.4545L5.74994 36.3636L7.24994 36.3636ZM7.24994 30.5454L7.24994 27.6364L5.74994 27.6364L5.74994 30.5454L7.24994 30.5454ZM7.24994 24.7273L7.24994 21.8182L5.74994 21.8182L5.74994 24.7273L7.24994 24.7273ZM7.24994 18.9091L7.24994 16L5.74994 16L5.74994 18.9091L7.24994 18.9091ZM7.24994 13.0909L7.24994 10.1818L5.74994 10.1818L5.74994 13.0909L7.24994 13.0909ZM7.24994 7.27271L7.24994 4.36362L5.74994 4.36362L5.74994 7.27271L7.24994 7.27271ZM7.24994 1.45453L7.24994 3.27835e-08L5.74994 -3.27835e-08L5.74994 1.45453L7.24994 1.45453Z" fill="#969284"/>
</svg>
