<svg width="525" height="24" viewBox="0 0 525 24" fill="none" xmlns="http://www.w3.org/2000/svg">
<path d="M2.01774 6.6445C1.54526 6.35853 0.930413 6.50972 0.644439 6.9822C0.358464 7.45468 0.509657 8.06953 0.982136 8.3555L2.01774 6.6445ZM51.9999 21L52.2143 20.0233L51.9999 21ZM0.982136 8.3555C2.68327 9.38513 5.71674 10.5135 9.45973 11.6754C13.2354 12.8474 17.8329 14.0828 22.7324 15.3076C32.5324 17.7576 43.5888 20.1775 51.7855 21.9767L52.2143 20.0233C44.0111 18.2225 32.9842 15.809 23.2175 13.3674C18.3337 12.1464 13.777 10.9214 10.0527 9.76527C6.29563 8.59903 3.48328 7.53154 2.01774 6.6445L0.982136 8.3555ZM51.7855 21.9767C57.0306 23.1281 64.1591 23.4377 72.0598 23.2732C79.9771 23.1084 88.7384 22.4654 97.2786 21.6833C105.817 20.9014 114.16 19.9781 121.219 19.2526C128.306 18.5244 134.062 18 137.5 18V16C133.938 16 128.069 16.5381 121.015 17.2631C113.934 17.9907 105.62 18.9111 97.0962 19.6917C88.574 20.4721 79.8665 21.1103 72.0182 21.2737C64.1533 21.4373 57.2193 21.1219 52.2143 20.0233L51.7855 21.9767ZM137.5 18C141.099 18 146.493 17.2335 152.953 16.1102C159.426 14.9843 167.075 13.48 175.181 11.9834C191.437 8.98232 209.603 6 224.5 6V4C209.397 4 191.063 7.01768 174.818 10.0166C166.675 11.52 159.074 13.0157 152.61 14.1398C146.131 15.2665 140.901 16 137.5 16V18ZM224.5 6C224.559 6 224.617 6 224.676 6C224.735 6 224.794 6 224.853 6C224.913 6 224.972 6 225.032 6C225.091 6 225.151 6 225.211 6C225.271 6 225.331 6 225.391 6C225.451 6 225.511 6 225.572 6C225.633 6 225.693 6 225.754 6C225.815 6 225.876 6 225.937 6C225.998 6 226.059 6 226.121 6C226.182 6 226.244 6 226.306 6C226.368 6 226.43 6 226.492 6C226.554 6 226.616 6 226.678 6C226.741 6 226.803 6 226.866 6C226.929 6 226.992 6 227.055 6C227.118 6 227.181 6 227.244 6C227.307 6 227.371 6 227.434 6C227.498 6 227.562 6 227.626 6C227.69 6 227.754 6 227.818 6C227.882 6 227.947 6 228.011 6C228.076 6 228.14 6 228.205 6C228.27 6 228.335 6 228.4 6C228.465 6 228.531 6 228.596 6C228.662 6 228.727 6 228.793 6C228.859 6 228.925 6 228.991 6C229.057 6 229.123 6 229.189 6C229.255 6 229.322 6 229.389 6C229.455 6 229.522 6 229.589 6C229.656 6 229.723 6 229.79 6C229.857 6 229.925 6 229.992 6C230.059 6 230.127 6 230.195 6C230.263 6 230.331 6 230.399 6C230.467 6 230.535 6 230.603 6C230.672 6 230.74 6 230.809 6C230.877 6 230.946 6 231.015 6C231.084 6 231.153 6 231.222 6C231.292 6 231.361 6 231.43 6C231.5 6 231.57 6 231.639 6C231.709 6 231.779 6 231.849 6C231.919 6 231.989 6 232.06 6C232.13 6 232.2 6 232.271 6C232.342 6 232.412 6 232.483 6C232.554 6 232.625 6 232.696 6C232.767 6 232.839 6 232.91 6C232.982 6 233.053 6 233.125 6C233.197 6 233.268 6 233.34 6C233.412 6 233.484 6 233.557 6C233.629 6 233.701 6 233.774 6C233.846 6 233.919 6 233.992 6C234.064 6 234.137 6 234.21 6C234.283 6 234.357 6 234.43 6C234.503 6 234.577 6 234.65 6C234.724 6 234.798 6 234.871 6C234.945 6 235.019 6 235.093 6C235.167 6 235.242 6 235.316 6C235.39 6 235.465 6 235.539 6C235.614 6 235.689 6 235.764 6C235.839 6 235.913 6 235.989 6C236.064 6 236.139 6 236.214 6C236.29 6 236.365 6 236.441 6C236.517 6 236.592 6 236.668 6C236.744 6 236.82 6 236.896 6C236.972 6 237.049 6 237.125 6C237.201 6 237.278 6 237.355 6C237.431 6 237.508 6 237.585 6C237.662 6 237.739 6 237.816 6C237.893 6 237.97 6 238.048 6C238.125 6 238.203 6 238.28 6C238.358 6 238.436 6 238.513 6C238.591 6 238.669 6 238.747 6C238.826 6 238.904 6 238.982 6C239.06 6 239.139 6 239.218 6C239.296 6 239.375 6 239.454 6C239.533 6 239.611 6 239.691 6C239.77 6 239.849 6 239.928 6C240.007 6 240.087 6 240.166 6C240.246 6 240.326 6 240.405 6C240.485 6 240.565 6 240.645 6C240.725 6 240.805 6 240.885 6C240.966 6 241.046 6 241.126 6C241.207 6 241.287 6 241.368 6C241.449 6 241.53 6 241.611 6C241.691 6 241.773 6 241.854 6C241.935 6 242.016 6 242.097 6C242.179 6 242.26 6 242.342 6C242.424 6 242.505 6 242.587 6C242.669 6 242.751 6 242.833 6C242.915 6 242.997 6 243.079 6C243.162 6 243.244 6 243.326 6C243.409 6 243.492 6 243.574 6C243.657 6 243.74 6 243.823 6C243.906 6 243.989 6 244.072 6C244.155 6 244.238 6 244.321 6C244.405 6 244.488 6 244.572 6C244.655 6 244.739 6 244.823 6C244.907 6 244.99 6 245.074 6C245.158 6 245.243 6 245.327 6C245.411 6 245.495 6 245.58 6C245.664 6 245.749 6 245.833 6C245.918 6 246.002 6 246.087 6C246.172 6 246.257 6 246.342 6C246.427 6 246.512 6 246.597 6C246.683 6 246.768 6 246.853 6C246.939 6 247.024 6 247.11 6C247.196 6 247.281 6 247.367 6C247.453 6 247.539 6 247.625 6C247.711 6 247.797 6 247.883 6C247.97 6 248.056 6 248.142 6C248.229 6 248.315 6 248.402 6C248.488 6 248.575 6 248.662 6C248.749 6 248.836 6 248.923 6C249.01 6 249.097 6 249.184 6C249.271 6 249.358 6 249.446 6C249.533 6 249.621 6 249.708 6C249.796 6 249.884 6 249.971 6C250.059 6 250.147 6 250.235 6C250.323 6 250.411 6 250.499 6C250.587 6 250.675 6 250.764 6C250.852 6 250.94 6 251.029 6C251.117 6 251.206 6 251.295 6C251.383 6 251.472 6 251.561 6C251.65 6 251.739 6 251.828 6C251.917 6 252.006 6 252.095 6C252.185 6 252.274 6 252.363 6C252.453 6 252.542 6 252.632 6C252.721 6 252.811 6 252.901 6C252.991 6 253.08 6 253.17 6C253.26 6 253.35 6 253.44 6C253.53 6 253.621 6 253.711 6C253.801 6 253.892 6 253.982 6C254.072 6 254.163 6 254.254 6C254.344 6 254.435 6 254.526 6C254.616 6 254.707 6 254.798 6C254.889 6 254.98 6 255.071 6C255.162 6 255.254 6 255.345 6C255.436 6 255.527 6 255.619 6C255.71 6 255.802 6 255.893 6C255.985 6 256.077 6 256.169 6C256.26 6 256.352 6 256.444 6C256.536 6 256.628 6 256.72 6C256.812 6 256.904 6 256.996 6C257.089 6 257.181 6 257.273 6C257.366 6 257.458 6 257.551 6C257.643 6 257.736 6 257.829 6C257.921 6 258.014 6 258.107 6C258.2 6 258.293 6 258.386 6C258.479 6 258.572 6 258.665 6C258.758 6 258.851 6 258.945 6C259.038 6 259.131 6 259.225 6C259.318 6 259.412 6 259.505 6C259.599 6 259.693 6 259.786 6C259.88 6 259.974 6 260.068 6C260.162 6 260.256 6 260.35 6C260.444 6 260.538 6 260.632 6C260.726 6 260.82 6 260.915 6C261.009 6 261.103 6 261.198 6C261.292 6 261.387 6 261.481 6C261.576 6 261.67 6 261.765 6C261.86 6 261.955 6 262.05 6C262.144 6 262.239 6 262.334 6C262.429 6 262.524 6 262.619 6C262.715 6 262.81 6 262.905 6C263 6 263.096 6 263.191 6C263.286 6 263.382 6 263.477 6C263.573 6 263.668 6 263.764 6C263.86 6 263.955 6 264.051 6C264.147 6 264.243 6 264.339 6C264.435 6 264.53 6 264.626 6C264.723 6 264.819 6 264.915 6C265.011 6 265.107 6 265.203 6C265.3 6 265.396 6 265.492 6C265.589 6 265.685 6 265.782 6C265.878 6 265.975 6 266.071 6C266.168 6 266.265 6 266.361 6C266.458 6 266.555 6 266.652 6C266.749 6 266.845 6 266.942 6C267.039 6 267.136 6 267.234 6C267.331 6 267.428 6 267.525 6C267.622 6 267.719 6 267.817 6C267.914 6 268.011 6 268.109 6C268.206 6 268.304 6 268.401 6C268.499 6 268.596 6 268.694 6C268.792 6 268.889 6 268.987 6C269.085 6 269.183 6 269.28 6C269.378 6 269.476 6 269.574 6C269.672 6 269.77 6 269.868 6C269.966 6 270.064 6 270.162 6C270.261 6 270.359 6 270.457 6C270.555 6 270.654 6 270.752 6C270.85 6 270.949 6 271.047 6C271.146 6 271.244 6 271.343 6C271.441 6 271.54 6 271.638 6C271.737 6 271.836 6 271.935 6C272.033 6 272.132 6 272.231 6C272.33 6 272.429 6 272.527 6C272.626 6 272.725 6 272.824 6C272.923 6 273.022 6 273.122 6C273.221 6 273.32 6 273.419 6C273.518 6 273.617 6 273.717 6C273.816 6 273.915 6 274.015 6C274.114 6 274.214 6 274.313 6C274.412 6 274.512 6 274.611 6C274.711 6 274.811 6 274.91 6C275.01 6 275.109 6 275.209 6C275.309 6 275.409 6 275.508 6C275.608 6 275.708 6 275.808 6C275.908 6 276.008 6 276.108 6C276.207 6 276.307 6 276.407 6C276.507 6 276.608 6 276.708 6C276.808 6 276.908 6 277.008 6C277.108 6 277.208 6 277.309 6C277.409 6 277.509 6 277.609 6C277.71 6 277.81 6 277.91 6C278.011 6 278.111 6 278.212 6C278.312 6 278.413 6 278.513 6C278.614 6 278.714 6 278.815 6C278.915 6 279.016 6 279.117 6C279.217 6 279.318 6 279.419 6C279.519 6 279.62 6 279.721 6C279.822 6 279.922 6 280.023 6C280.124 6 280.225 6 280.326 6C280.427 6 280.528 6 280.629 6C280.73 6 280.831 6 280.932 6C281.033 6 281.134 6 281.235 6C281.336 6 281.437 6 281.538 6C281.639 6 281.74 6 281.842 6C281.943 6 282.044 6 282.145 6C282.246 6 282.348 6 282.449 6C282.55 6 282.652 6 282.753 6C282.854 6 282.956 6 283.057 6C283.159 6 283.26 6 283.361 6C283.463 6 283.564 6 283.666 6C283.767 6 283.869 6 283.97 6C284.072 6 284.173 6 284.275 6C284.377 6 284.478 6 284.58 6C284.681 6 284.783 6 284.885 6C284.986 6 285.088 6 285.19 6C285.292 6 285.393 6 285.495 6C285.597 6 285.699 6 285.8 6C285.902 6 286.004 6 286.106 6C286.208 6 286.309 6 286.411 6C286.513 6 286.615 6 286.717 6C286.819 6 286.921 6 287.023 6C287.125 6 287.227 6 287.329 6C287.431 6 287.533 6 287.635 6C287.737 6 287.839 6 287.941 6C288.043 6 288.145 6 288.247 6C288.349 6 288.451 6 288.553 6C288.655 6 288.757 6 288.859 6C288.961 6 289.064 6 289.166 6C289.268 6 289.37 6 289.472 6C289.574 6 289.677 6 289.779 6C289.881 6 289.983 6 290.085 6C290.188 6 290.29 6 290.392 6C290.494 6 290.597 6 290.699 6C290.801 6 290.903 6 291.006 6C291.108 6 291.21 6 291.312 6C291.415 6 291.517 6 291.619 6C291.722 6 291.824 6 291.926 6C292.029 6 292.131 6 292.233 6C292.336 6 292.438 6 292.54 6C292.643 6 292.745 6 292.847 6C292.95 6 293.052 6 293.155 6C293.257 6 293.359 6 293.462 6C293.564 6 293.666 6 293.769 6C293.871 6 293.974 6 294.076 6C294.178 6 294.281 6 294.383 6C294.486 6 294.588 6 294.69 6C294.793 6 294.895 6 294.998 6C295.1 6 295.203 6 295.305 6C295.407 6 295.51 6 295.612 6C295.715 6 295.817 6 295.919 6C296.022 6 296.124 6 296.227 6C296.329 6 296.432 6 296.534 6C296.636 6 296.739 6 296.841 6C296.944 6 297.046 6 297.148 6C297.251 6 297.353 6 297.456 6C297.558 6 297.66 6 297.763 6C297.865 6 297.968 6 298.07 6C298.172 6 298.275 6 298.377 6C298.479 6 298.582 6 298.684 6C298.787 6 298.889 6 298.991 6C299.094 6 299.196 6 299.298 6C299.401 6 299.503 6 299.605 6C299.708 6 299.81 6 299.912 6C300.015 6 300.117 6 300.219 6C300.321 6 300.424 6 300.526 6C300.628 6 300.73 6 300.833 6C300.935 6 301.037 6 301.139 6C301.242 6 301.344 6 301.446 6C301.548 6 301.651 6 301.753 6C301.855 6 301.957 6 302.059 6C302.161 6 302.264 6 302.366 6C302.468 6 302.57 6 302.672 6C302.774 6 302.876 6 302.978 6C303.08 6 303.182 6 303.285 6C303.387 6 303.489 6 303.591 6C303.693 6 303.795 6 303.897 6C303.999 6 304.101 6 304.203 6C304.305 6 304.406 6 304.508 6C304.61 6 304.712 6 304.814 6C304.916 6 305.018 6 305.12 6C305.222 6 305.323 6 305.425 6C305.527 6 305.629 6 305.731 6C305.832 6 305.934 6 306.036 6C306.138 6 306.239 6 306.341 6C306.443 6 306.544 6 306.646 6C306.748 6 306.849 6 306.951 6C307.053 6 307.154 6 307.256 6C307.357 6 307.459 6 307.56 6C307.662 6 307.763 6 307.865 6C307.966 6 308.068 6 308.169 6C308.271 6 308.372 6 308.473 6C308.575 6 308.676 6 308.777 6C308.879 6 308.98 6 309.081 6C309.183 6 309.284 6 309.385 6C309.486 6 309.587 6 309.689 6C309.79 6 309.891 6 309.992 6C310.093 6 310.194 6 310.295 6C310.396 6 310.497 6 310.598 6C310.699 6 310.8 6 310.901 6C311.002 6 311.103 6 311.204 6C311.305 6 311.406 6 311.507 6C311.607 6 311.708 6 311.809 6C311.91 6 312.01 6 312.111 6C312.212 6 312.312 6 312.413 6C312.514 6 312.614 6 312.715 6C312.815 6 312.916 6 313.016 6C313.117 6 313.217 6 313.318 6C313.418 6 313.519 6 313.619 6C313.719 6 313.82 6 313.92 6C314.02 6 314.12 6 314.221 6C314.321 6 314.421 6 314.521 6C314.621 6 314.721 6 314.821 6C314.921 6 315.022 6 315.121 6C315.221 6 315.321 6 315.421 6C315.521 6 315.621 6 315.721 6C315.821 6 315.921 6 316.02 6C316.12 6 316.22 6 316.319 6C316.419 6 316.519 6 316.618 6C316.718 6 316.817 6 316.917 6C317.016 6 317.116 6 317.215 6C317.315 6 317.414 6 317.513 6C317.613 6 317.712 6 317.811 6C317.911 6 318.01 6 318.109 6C318.208 6 318.307 6 318.406 6C318.505 6 318.604 6 318.703 6C318.802 6 318.901 6 319 6C319.099 6 319.198 6 319.297 6C319.396 6 319.494 6 319.593 6C319.692 6 319.79 6 319.889 6C319.988 6 320.086 6 320.185 6C320.283 6 320.382 6 320.48 6C320.578 6 320.677 6 320.775 6C320.873 6 320.972 6 321.07 6C321.168 6 321.266 6 321.364 6C321.463 6 321.561 6 321.659 6C321.757 6 321.855 6 321.953 6C322.05 6 322.148 6 322.246 6C322.344 6 322.442 6 322.539 6C322.637 6 322.735 6 322.832 6C322.93 6 323.027 6 323.125 6C323.222 6 323.32 6 323.417 6C323.515 6 323.612 6 323.709 6C323.806 6 323.904 6 324.001 6C324.098 6 324.195 6 324.292 6C324.389 6 324.486 6 324.583 6C324.68 6 324.777 6 324.874 6C324.97 6 325.067 6 325.164 6C325.261 6 325.357 6 325.454 6C325.55 6 325.647 6 325.743 6C325.84 6 325.936 6 326.033 6C326.129 6 326.225 6 326.321 6C326.418 6 326.514 6 326.61 6C326.706 6 326.802 6 326.898 6C326.994 6 327.09 6 327.186 6C327.281 6 327.377 6 327.473 6C327.569 6 327.664 6 327.76 6C327.856 6 327.951 6 328.047 6C328.142 6 328.237 6 328.333 6C328.428 6 328.523 6 328.619 6C328.714 6 328.809 6 328.904 6C328.999 6 329.094 6 329.189 6C329.284 6 329.379 6 329.474 6C329.568 6 329.663 6 329.758 6C329.852 6 329.947 6 330.042 6C330.136 6 330.231 6 330.325 6C330.419 6 330.514 6 330.608 6C330.702 6 330.796 6 330.89 6C330.985 6 331.079 6 331.173 6C331.267 6 331.36 6 331.454 6C331.548 6 331.642 6 331.736 6C331.829 6 331.923 6 332.016 6C332.11 6 332.203 6 332.297 6C332.39 6 332.483 6 332.577 6C332.67 6 332.763 6 332.856 6C332.949 6 333.042 6 333.135 6C333.228 6 333.321 6 333.414 6C333.507 6 333.599 6 333.692 6C333.785 6 333.877 6 333.97 6C334.062 6 334.155 6 334.247 6C334.339 6 334.431 6 334.524 6C334.616 6 334.708 6 334.8 6C334.892 6 334.984 6 335.076 6C335.168 6 335.259 6 335.351 6C335.443 6 335.534 6 335.626 6C335.717 6 335.809 6 335.9 6C335.992 6 336.083 6 336.174 6C336.265 6 336.357 6 336.448 6C336.539 6 336.63 6 336.72 6C336.811 6 336.902 6 336.993 6C337.084 6 337.174 6 337.265 6C337.355 6 337.446 6 337.536 6C337.626 6 337.717 6 337.807 6C337.897 6 337.987 6 338.077 6C338.167 6 338.257 6 338.347 6C338.437 6 338.527 6 338.617 6C338.706 6 338.796 6 338.885 6C338.975 6 339.064 6 339.154 6C339.243 6 339.332 6 339.421 6C339.51 6 339.6 6 339.689 6C339.777 6 339.866 6 339.955 6C340.044 6 340.133 6 340.221 6C340.31 6 340.398 6 340.487 6C340.575 6 340.664 6 340.752 6C340.84 6 340.928 6 341.016 6C341.104 6 341.192 6 341.28 6C341.368 6 341.456 6 341.544 6C341.631 6 341.719 6 341.806 6C341.894 6 341.981 6 342.069 6C342.156 6 342.243 6 342.33 6C342.417 6 342.505 6 342.591 6C342.678 6 342.765 6 342.852 6C342.939 6 343.025 6 343.112 6C343.198 6 343.285 6 343.371 6C343.458 6 343.544 6 343.63 6C343.716 6 343.802 6 343.888 6C343.974 6 344.06 6 344.146 6C344.231 6 344.317 6 344.403 6C344.488 6 344.574 6 344.659 6C344.744 6 344.83 6 344.915 6C345 6 345.085 6 345.17 6C345.255 6 345.34 6 345.424 6C345.509 6 345.594 6 345.678 6C345.763 6 345.847 6 345.932 6C346.016 6 346.1 6 346.184 6C346.268 6 346.352 6 346.436 6C346.52 6 346.604 6 346.688 6C346.771 6 346.855 6 346.938 6C347.022 6 347.105 6 347.189 6C347.272 6 347.355 6 347.438 6C347.521 6 347.604 6 347.687 6C347.77 6 347.852 6 347.935 6C348.018 6 348.1 6 348.183 6C348.265 6 348.347 6 348.429 6C348.512 6 348.594 6 348.676 6C348.758 6 348.839 6 348.921 6C349.003 6 349.085 6 349.166 6C349.248 6 349.329 6 349.41 6C349.492 6 349.573 6 349.654 6C349.735 6 349.816 6 349.897 6C349.977 6 350.058 6 350.139 6C350.219 6 350.3 6 350.38 6C350.461 6 350.541 6 350.621 6C350.701 6 350.781 6 350.861 6C350.941 6 351.021 6 351.101 6C351.18 6 351.26 6 351.339 6C351.419 6 351.498 6 351.577 6C351.656 6 351.736 6 351.815 6C351.894 6 351.972 6 352.051 6C352.13 6 352.209 6 352.287 6C352.366 6 352.444 6 352.522 6C352.6 6 352.679 6 352.757 6C352.835 6 352.913 6 352.99 6C353.068 6 353.146 6 353.223 6C353.301 6 353.378 6 353.455 6C353.533 6 353.61 6 353.687 6C353.764 6 353.841 6 353.918 6C353.995 6 354.071 6 354.148 6C354.224 6 354.301 6 354.377 6C354.453 6 354.529 6 354.606 6C354.682 6 354.758 6 354.833 6C354.909 6 354.985 6 355.06 6C355.136 6 355.211 6 355.287 6C355.362 6 355.437 6 355.512 6C355.587 6 355.662 6 355.737 6C355.811 6 355.886 6 355.961 6C356.035 6 356.11 6 356.184 6C356.258 6 356.332 6 356.406 6C356.48 6 356.554 6 356.628 6C356.702 6 356.775 6 356.849 6C356.922 6 356.995 6 357.069 6C357.142 6 357.215 6 357.288 6C357.361 6 357.434 6 357.506 6C357.579 6 357.651 6 357.724 6C357.796 6 357.869 6 357.941 6C358.013 6 358.085 6 358.157 6C358.229 6 358.3 6 358.372 6C358.443 6 358.515 6 358.586 6C358.658 6 358.729 6 358.8 6C358.871 6 358.942 6 359.013 6C359.083 6 359.154 6 359.224 6C359.295 6 359.365 6 359.436 6C359.506 6 359.576 6 359.646 6C359.716 6 359.786 6 359.855 6C359.925 6 359.994 6 360.064 6C360.133 6 360.202 6 360.272 6C360.341 6 360.41 6 360.478 6C360.547 6 360.616 6 360.684 6C360.753 6 360.821 6 360.89 6C360.958 6 361.026 6 361.094 6C361.162 6 361.23 6 361.297 6C361.365 6 361.433 6 361.5 6V4C361.433 4 361.365 4 361.297 4C361.23 4 361.162 4 361.094 4C361.026 4 360.958 4 360.89 4C360.821 4 360.753 4 360.684 4C360.616 4 360.547 4 360.478 4C360.41 4 360.341 4 360.272 4C360.202 4 360.133 4 360.064 4C359.994 4 359.925 4 359.855 4C359.786 4 359.716 4 359.646 4C359.576 4 359.506 4 359.436 4C359.365 4 359.295 4 359.224 4C359.154 4 359.083 4 359.013 4C358.942 4 358.871 4 358.8 4C358.729 4 358.658 4 358.586 4C358.515 4 358.443 4 358.372 4C358.3 4 358.229 4 358.157 4C358.085 4 358.013 4 357.941 4C357.869 4 357.796 4 357.724 4C357.651 4 357.579 4 357.506 4C357.434 4 357.361 4 357.288 4C357.215 4 357.142 4 357.069 4C356.995 4 356.922 4 356.849 4C356.775 4 356.702 4 356.628 4C356.554 4 356.48 4 356.406 4C356.332 4 356.258 4 356.184 4C356.11 4 356.035 4 355.961 4C355.886 4 355.811 4 355.737 4C355.662 4 355.587 4 355.512 4C355.437 4 355.362 4 355.287 4C355.211 4 355.136 4 355.06 4C354.985 4 354.909 4 354.833 4C354.758 4 354.682 4 354.606 4C354.529 4 354.453 4 354.377 4C354.301 4 354.224 4 354.148 4C354.071 4 353.995 4 353.918 4C353.841 4 353.764 4 353.687 4C353.61 4 353.533 4 353.455 4C353.378 4 353.301 4 353.223 4C353.146 4 353.068 4 352.99 4C352.913 4 352.835 4 352.757 4C352.679 4 352.6 4 352.522 4C352.444 4 352.366 4 352.287 4C352.209 4 352.13 4 352.051 4C351.972 4 351.894 4 351.815 4C351.736 4 351.656 4 351.577 4C351.498 4 351.419 4 351.339 4C351.26 4 351.18 4 351.101 4C351.021 4 350.941 4 350.861 4C350.781 4 350.701 4 350.621 4C350.541 4 350.461 4 350.38 4C350.3 4 350.219 4 350.139 4C350.058 4 349.977 4 349.897 4C349.816 4 349.735 4 349.654 4C349.573 4 349.492 4 349.41 4C349.329 4 349.248 4 349.166 4C349.085 4 349.003 4 348.921 4C348.839 4 348.758 4 348.676 4C348.594 4 348.512 4 348.429 4C348.347 4 348.265 4 348.183 4C348.1 4 348.018 4 347.935 4C347.852 4 347.77 4 347.687 4C347.604 4 347.521 4 347.438 4C347.355 4 347.272 4 347.189 4C347.105 4 347.022 4 346.938 4C346.855 4 346.771 4 346.688 4C346.604 4 346.52 4 346.436 4C346.352 4 346.268 4 346.184 4C346.1 4 346.016 4 345.932 4C345.847 4 345.763 4 345.678 4C345.594 4 345.509 4 345.424 4C345.34 4 345.255 4 345.17 4C345.085 4 345 4 344.915 4C344.83 4 344.744 4 344.659 4C344.574 4 344.488 4 344.403 4C344.317 4 344.231 4 344.146 4C344.06 4 343.974 4 343.888 4C343.802 4 343.716 4 343.63 4C343.544 4 343.458 4 343.371 4C343.285 4 343.198 4 343.112 4C343.025 4 342.939 4 342.852 4C342.765 4 342.678 4 342.591 4C342.505 4 342.417 4 342.33 4C342.243 4 342.156 4 342.069 4C341.981 4 341.894 4 341.806 4C341.719 4 341.631 4 341.544 4C341.456 4 341.368 4 341.28 4C341.192 4 341.104 4 341.016 4C340.928 4 340.84 4 340.752 4C340.664 4 340.575 4 340.487 4C340.398 4 340.31 4 340.221 4C340.133 4 340.044 4 339.955 4C339.866 4 339.777 4 339.689 4C339.6 4 339.51 4 339.421 4C339.332 4 339.243 4 339.154 4C339.064 4 338.975 4 338.885 4C338.796 4 338.706 4 338.617 4C338.527 4 338.437 4 338.347 4C338.257 4 338.167 4 338.077 4C337.987 4 337.897 4 337.807 4C337.717 4 337.626 4 337.536 4C337.446 4 337.355 4 337.265 4C337.174 4 337.084 4 336.993 4C336.902 4 336.811 4 336.72 4C336.63 4 336.539 4 336.448 4C336.357 4 336.265 4 336.174 4C336.083 4 335.992 4 335.9 4C335.809 4 335.717 4 335.626 4C335.534 4 335.443 4 335.351 4C335.259 4 335.168 4 335.076 4C334.984 4 334.892 4 334.8 4C334.708 4 334.616 4 334.524 4C334.431 4 334.339 4 334.247 4C334.155 4 334.062 4 333.97 4C333.877 4 333.785 4 333.692 4C333.599 4 333.507 4 333.414 4C333.321 4 333.228 4 333.135 4C333.042 4 332.949 4 332.856 4C332.763 4 332.67 4 332.577 4C332.483 4 332.39 4 332.297 4C332.203 4 332.11 4 332.016 4C331.923 4 331.829 4 331.736 4C331.642 4 331.548 4 331.454 4C331.36 4 331.267 4 331.173 4C331.079 4 330.985 4 330.89 4C330.796 4 330.702 4 330.608 4C330.514 4 330.419 4 330.325 4C330.231 4 330.136 4 330.042 4C329.947 4 329.852 4 329.758 4C329.663 4 329.568 4 329.474 4C329.379 4 329.284 4 329.189 4C329.094 4 328.999 4 328.904 4C328.809 4 328.714 4 328.619 4C328.523 4 328.428 4 328.333 4C328.237 4 328.142 4 328.047 4C327.951 4 327.856 4 327.76 4C327.664 4 327.569 4 327.473 4C327.377 4 327.281 4 327.186 4C327.09 4 326.994 4 326.898 4C326.802 4 326.706 4 326.61 4C326.514 4 326.418 4 326.321 4C326.225 4 326.129 4 326.033 4C325.936 4 325.84 4 325.743 4C325.647 4 325.55 4 325.454 4C325.357 4 325.261 4 325.164 4C325.067 4 324.97 4 324.874 4C324.777 4 324.68 4 324.583 4C324.486 4 324.389 4 324.292 4C324.195 4 324.098 4 324.001 4C323.904 4 323.806 4 323.709 4C323.612 4 323.515 4 323.417 4C323.32 4 323.222 4 323.125 4C323.027 4 322.93 4 322.832 4C322.735 4 322.637 4 322.539 4C322.442 4 322.344 4 322.246 4C322.148 4 322.05 4 321.953 4C321.855 4 321.757 4 321.659 4C321.561 4 321.463 4 321.364 4C321.266 4 321.168 4 321.07 4C320.972 4 320.873 4 320.775 4C320.677 4 320.578 4 320.48 4C320.382 4 320.283 4 320.185 4C320.086 4 319.988 4 319.889 4C319.79 4 319.692 4 319.593 4C319.494 4 319.396 4 319.297 4C319.198 4 319.099 4 319 4C318.901 4 318.802 4 318.703 4C318.604 4 318.505 4 318.406 4C318.307 4 318.208 4 318.109 4C318.01 4 317.911 4 317.811 4C317.712 4 317.613 4 317.513 4C317.414 4 317.315 4 317.215 4C317.116 4 317.016 4 316.917 4C316.817 4 316.718 4 316.618 4C316.519 4 316.419 4 316.319 4C316.22 4 316.12 4 316.02 4C315.921 4 315.821 4 315.721 4C315.621 4 315.521 4 315.421 4C315.321 4 315.221 4 315.121 4C315.022 4 314.921 4 314.821 4C314.721 4 314.621 4 314.521 4C314.421 4 314.321 4 314.221 4C314.12 4 314.02 4 313.92 4C313.82 4 313.719 4 313.619 4C313.519 4 313.418 4 313.318 4C313.217 4 313.117 4 313.016 4C312.916 4 312.815 4 312.715 4C312.614 4 312.514 4 312.413 4C312.312 4 312.212 4 312.111 4C312.01 4 311.91 4 311.809 4C311.708 4 311.607 4 311.507 4C311.406 4 311.305 4 311.204 4C311.103 4 311.002 4 310.901 4C310.8 4 310.699 4 310.598 4C310.497 4 310.396 4 310.295 4C310.194 4 310.093 4 309.992 4C309.891 4 309.79 4 309.689 4C309.587 4 309.486 4 309.385 4C309.284 4 309.183 4 309.081 4C308.98 4 308.879 4 308.777 4C308.676 4 308.575 4 308.473 4C308.372 4 308.271 4 308.169 4C308.068 4 307.966 4 307.865 4C307.763 4 307.662 4 307.56 4C307.459 4 307.357 4 307.256 4C307.154 4 307.053 4 306.951 4C306.849 4 306.748 4 306.646 4C306.544 4 306.443 4 306.341 4C306.239 4 306.138 4 306.036 4C305.934 4 305.832 4 305.731 4C305.629 4 305.527 4 305.425 4C305.323 4 305.222 4 305.12 4C305.018 4 304.916 4 304.814 4C304.712 4 304.61 4 304.508 4C304.406 4 304.305 4 304.203 4C304.101 4 303.999 4 303.897 4C303.795 4 303.693 4 303.591 4C303.489 4 303.387 4 303.285 4C303.182 4 303.08 4 302.978 4C302.876 4 302.774 4 302.672 4C302.57 4 302.468 4 302.366 4C302.264 4 302.161 4 302.059 4C301.957 4 301.855 4 301.753 4C301.651 4 301.548 4 301.446 4C301.344 4 301.242 4 301.139 4C301.037 4 300.935 4 300.833 4C300.73 4 300.628 4 300.526 4C300.424 4 300.321 4 300.219 4C300.117 4 300.015 4 299.912 4C299.81 4 299.708 4 299.605 4C299.503 4 299.401 4 299.298 4C299.196 4 299.094 4 298.991 4C298.889 4 298.787 4 298.684 4C298.582 4 298.479 4 298.377 4C298.275 4 298.172 4 298.07 4C297.968 4 297.865 4 297.763 4C297.66 4 297.558 4 297.456 4C297.353 4 297.251 4 297.148 4C297.046 4 296.944 4 296.841 4C296.739 4 296.636 4 296.534 4C296.432 4 296.329 4 296.227 4C296.124 4 296.022 4 295.919 4C295.817 4 295.715 4 295.612 4C295.51 4 295.407 4 295.305 4C295.203 4 295.1 4 294.998 4C294.895 4 294.793 4 294.69 4C294.588 4 294.486 4 294.383 4C294.281 4 294.178 4 294.076 4C293.974 4 293.871 4 293.769 4C293.666 4 293.564 4 293.462 4C293.359 4 293.257 4 293.155 4C293.052 4 292.95 4 292.847 4C292.745 4 292.643 4 292.54 4C292.438 4 292.336 4 292.233 4C292.131 4 292.029 4 291.926 4C291.824 4 291.722 4 291.619 4C291.517 4 291.415 4 291.312 4C291.21 4 291.108 4 291.006 4C290.903 4 290.801 4 290.699 4C290.597 4 290.494 4 290.392 4C290.29 4 290.188 4 290.085 4C289.983 4 289.881 4 289.779 4C289.677 4 289.574 4 289.472 4C289.37 4 289.268 4 289.166 4C289.064 4 288.961 4 288.859 4C288.757 4 288.655 4 288.553 4C288.451 4 288.349 4 288.247 4C288.145 4 288.043 4 287.941 4C287.839 4 287.737 4 287.635 4C287.533 4 287.431 4 287.329 4C287.227 4 287.125 4 287.023 4C286.921 4 286.819 4 286.717 4C286.615 4 286.513 4 286.411 4C286.309 4 286.208 4 286.106 4C286.004 4 285.902 4 285.8 4C285.699 4 285.597 4 285.495 4C285.393 4 285.292 4 285.19 4C285.088 4 284.986 4 284.885 4C284.783 4 284.681 4 284.58 4C284.478 4 284.377 4 284.275 4C284.173 4 284.072 4 283.97 4C283.869 4 283.767 4 283.666 4C283.564 4 283.463 4 283.361 4C283.26 4 283.159 4 283.057 4C282.956 4 282.854 4 282.753 4C282.652 4 282.55 4 282.449 4C282.348 4 282.246 4 282.145 4C282.044 4 281.943 4 281.842 4C281.74 4 281.639 4 281.538 4C281.437 4 281.336 4 281.235 4C281.134 4 281.033 4 280.932 4C280.831 4 280.73 4 280.629 4C280.528 4 280.427 4 280.326 4C280.225 4 280.124 4 280.023 4C279.922 4 279.822 4 279.721 4C279.62 4 279.519 4 279.419 4C279.318 4 279.217 4 279.117 4C279.016 4 278.915 4 278.815 4C278.714 4 278.614 4 278.513 4C278.413 4 278.312 4 278.212 4C278.111 4 278.011 4 277.91 4C277.81 4 277.71 4 277.609 4C277.509 4 277.409 4 277.309 4C277.208 4 277.108 4 277.008 4C276.908 4 276.808 4 276.708 4C276.608 4 276.507 4 276.407 4C276.307 4 276.207 4 276.108 4C276.008 4 275.908 4 275.808 4C275.708 4 275.608 4 275.508 4C275.409 4 275.309 4 275.209 4C275.109 4 275.01 4 274.91 4C274.811 4 274.711 4 274.611 4C274.512 4 274.412 4 274.313 4C274.214 4 274.114 4 274.015 4C273.915 4 273.816 4 273.717 4C273.617 4 273.518 4 273.419 4C273.32 4 273.221 4 273.122 4C273.022 4 272.923 4 272.824 4C272.725 4 272.626 4 272.527 4C272.429 4 272.33 4 272.231 4C272.132 4 272.033 4 271.935 4C271.836 4 271.737 4 271.638 4C271.54 4 271.441 4 271.343 4C271.244 4 271.146 4 271.047 4C270.949 4 270.85 4 270.752 4C270.654 4 270.555 4 270.457 4C270.359 4 270.261 4 270.162 4C270.064 4 269.966 4 269.868 4C269.77 4 269.672 4 269.574 4C269.476 4 269.378 4 269.28 4C269.183 4 269.085 4 268.987 4C268.889 4 268.792 4 268.694 4C268.596 4 268.499 4 268.401 4C268.304 4 268.206 4 268.109 4C268.011 4 267.914 4 267.817 4C267.719 4 267.622 4 267.525 4C267.428 4 267.331 4 267.234 4C267.136 4 267.039 4 266.942 4C266.845 4 266.749 4 266.652 4C266.555 4 266.458 4 266.361 4C266.265 4 266.168 4 266.071 4C265.975 4 265.878 4 265.782 4C265.685 4 265.589 4 265.492 4C265.396 4 265.3 4 265.203 4C265.107 4 265.011 4 264.915 4C264.819 4 264.723 4 264.626 4C264.53 4 264.435 4 264.339 4C264.243 4 264.147 4 264.051 4C263.955 4 263.86 4 263.764 4C263.668 4 263.573 4 263.477 4C263.382 4 263.286 4 263.191 4C263.096 4 263 4 262.905 4C262.81 4 262.715 4 262.619 4C262.524 4 262.429 4 262.334 4C262.239 4 262.144 4 262.05 4C261.955 4 261.86 4 261.765 4C261.67 4 261.576 4 261.481 4C261.387 4 261.292 4 261.198 4C261.103 4 261.009 4 260.915 4C260.82 4 260.726 4 260.632 4C260.538 4 260.444 4 260.35 4C260.256 4 260.162 4 260.068 4C259.974 4 259.88 4 259.786 4C259.693 4 259.599 4 259.505 4C259.412 4 259.318 4 259.225 4C259.131 4 259.038 4 258.945 4C258.851 4 258.758 4 258.665 4C258.572 4 258.479 4 258.386 4C258.293 4 258.2 4 258.107 4C258.014 4 257.921 4 257.829 4C257.736 4 257.643 4 257.551 4C257.458 4 257.366 4 257.273 4C257.181 4 257.089 4 256.996 4C256.904 4 256.812 4 256.72 4C256.628 4 256.536 4 256.444 4C256.352 4 256.26 4 256.169 4C256.077 4 255.985 4 255.893 4C255.802 4 255.71 4 255.619 4C255.527 4 255.436 4 255.345 4C255.254 4 255.162 4 255.071 4C254.98 4 254.889 4 254.798 4C254.707 4 254.616 4 254.526 4C254.435 4 254.344 4 254.254 4C254.163 4 254.072 4 253.982 4C253.892 4 253.801 4 253.711 4C253.621 4 253.53 4 253.44 4C253.35 4 253.26 4 253.17 4C253.08 4 252.991 4 252.901 4C252.811 4 252.721 4 252.632 4C252.542 4 252.453 4 252.363 4C252.274 4 252.185 4 252.095 4C252.006 4 251.917 4 251.828 4C251.739 4 251.65 4 251.561 4C251.472 4 251.383 4 251.295 4C251.206 4 251.117 4 251.029 4C250.94 4 250.852 4 250.764 4C250.675 4 250.587 4 250.499 4C250.411 4 250.323 4 250.235 4C250.147 4 250.059 4 249.971 4C249.884 4 249.796 4 249.708 4C249.621 4 249.533 4 249.446 4C249.358 4 249.271 4 249.184 4C249.097 4 249.01 4 248.923 4C248.836 4 248.749 4 248.662 4C248.575 4 248.488 4 248.402 4C248.315 4 248.229 4 248.142 4C248.056 4 247.97 4 247.883 4C247.797 4 247.711 4 247.625 4C247.539 4 247.453 4 247.367 4C247.281 4 247.196 4 247.11 4C247.024 4 246.939 4 246.853 4C246.768 4 246.683 4 246.597 4C246.512 4 246.427 4 246.342 4C246.257 4 246.172 4 246.087 4C246.002 4 245.918 4 245.833 4C245.749 4 245.664 4 245.58 4C245.495 4 245.411 4 245.327 4C245.243 4 245.158 4 245.074 4C244.99 4 244.907 4 244.823 4C244.739 4 244.655 4 244.572 4C244.488 4 244.405 4 244.321 4C244.238 4 244.155 4 244.072 4C243.989 4 243.906 4 243.823 4C243.74 4 243.657 4 243.574 4C243.492 4 243.409 4 243.326 4C243.244 4 243.162 4 243.079 4C242.997 4 242.915 4 242.833 4C242.751 4 242.669 4 242.587 4C242.505 4 242.424 4 242.342 4C242.26 4 242.179 4 242.097 4C242.016 4 241.935 4 241.854 4C241.773 4 241.691 4 241.611 4C241.53 4 241.449 4 241.368 4C241.287 4 241.207 4 241.126 4C241.046 4 240.966 4 240.885 4C240.805 4 240.725 4 240.645 4C240.565 4 240.485 4 240.405 4C240.326 4 240.246 4 240.166 4C240.087 4 240.007 4 239.928 4C239.849 4 239.77 4 239.691 4C239.611 4 239.533 4 239.454 4C239.375 4 239.296 4 239.218 4C239.139 4 239.06 4 238.982 4C238.904 4 238.826 4 238.747 4C238.669 4 238.591 4 238.513 4C238.436 4 238.358 4 238.28 4C238.203 4 238.125 4 238.048 4C237.97 4 237.893 4 237.816 4C237.739 4 237.662 4 237.585 4C237.508 4 237.431 4 237.355 4C237.278 4 237.201 4 237.125 4C237.049 4 236.972 4 236.896 4C236.82 4 236.744 4 236.668 4C236.592 4 236.517 4 236.441 4C236.365 4 236.29 4 236.214 4C236.139 4 236.064 4 235.989 4C235.913 4 235.839 4 235.764 4C235.689 4 235.614 4 235.539 4C235.465 4 235.39 4 235.316 4C235.242 4 235.167 4 235.093 4C235.019 4 234.945 4 234.871 4C234.798 4 234.724 4 234.65 4C234.577 4 234.503 4 234.43 4C234.357 4 234.283 4 234.21 4C234.137 4 234.064 4 233.992 4C233.919 4 233.846 4 233.774 4C233.701 4 233.629 4 233.557 4C233.484 4 233.412 4 233.34 4C233.268 4 233.197 4 233.125 4C233.053 4 232.982 4 232.91 4C232.839 4 232.767 4 232.696 4C232.625 4 232.554 4 232.483 4C232.412 4 232.342 4 232.271 4C232.2 4 232.13 4 232.06 4C231.989 4 231.919 4 231.849 4C231.779 4 231.709 4 231.639 4C231.57 4 231.5 4 231.43 4C231.361 4 231.292 4 231.222 4C231.153 4 231.084 4 231.015 4C230.946 4 230.877 4 230.809 4C230.74 4 230.672 4 230.603 4C230.535 4 230.467 4 230.399 4C230.331 4 230.263 4 230.195 4C230.127 4 230.059 4 229.992 4C229.925 4 229.857 4 229.79 4C229.723 4 229.656 4 229.589 4C229.522 4 229.455 4 229.389 4C229.322 4 229.255 4 229.189 4C229.123 4 229.057 4 228.991 4C228.925 4 228.859 4 228.793 4C228.727 4 228.662 4 228.596 4C228.531 4 228.465 4 228.4 4C228.335 4 228.27 4 228.205 4C228.14 4 228.076 4 228.011 4C227.947 4 227.882 4 227.818 4C227.754 4 227.69 4 227.626 4C227.562 4 227.498 4 227.434 4C227.371 4 227.307 4 227.244 4C227.181 4 227.118 4 227.055 4C226.992 4 226.929 4 226.866 4C226.803 4 226.741 4 226.678 4C226.616 4 226.554 4 226.492 4C226.43 4 226.368 4 226.306 4C226.244 4 226.182 4 226.121 4C226.059 4 225.998 4 225.937 4C225.876 4 225.815 4 225.754 4C225.693 4 225.633 4 225.572 4C225.511 4 225.451 4 225.391 4C225.331 4 225.271 4 225.211 4C225.151 4 225.091 4 225.032 4C224.972 4 224.913 4 224.853 4C224.794 4 224.735 4 224.676 4C224.617 4 224.559 4 224.5 4V6ZM361.5 6C378.784 6 397.06 4.9982 412.129 3.9978C427.243 2.99436 439.044 2 443.5 2V0C438.956 0 427.007 1.00564 411.996 2.0022C396.94 3.0018 378.716 4 361.5 4V6ZM443.5 2C447.09 2 461.533 2.24973 477.997 2.49988C494.45 2.74986 512.908 3 524.5 3V1C512.926 1 494.483 0.750139 478.028 0.500115C461.584 0.250274 447.11 0 443.5 0V2Z" fill="#969284"/>
</svg>
