<svg width="272" height="12" viewBox="0 0 272 12" fill="none" xmlns="http://www.w3.org/2000/svg">
<path d="M0.46967 6.53033C0.176777 6.23744 0.176777 5.76256 0.46967 5.46967L5.24264 0.696699C5.53553 0.403806 6.01041 0.403806 6.3033 0.696699C6.59619 0.989593 6.59619 1.46447 6.3033 1.75736L2.06066 6L6.3033 10.2426C6.59619 10.5355 6.59619 11.0104 6.3033 11.3033C6.01041 11.5962 5.53553 11.5962 5.24264 11.3033L0.46967 6.53033ZM271.53 5.46967C271.823 5.76256 271.823 6.23744 271.53 6.53033L266.757 11.3033C266.464 11.5962 265.99 11.5962 265.697 11.3033C265.404 11.0104 265.404 10.5355 265.697 10.2426L269.939 6L265.697 1.75736C265.404 1.46447 265.404 0.989593 265.697 0.696699C265.99 0.403806 266.464 0.403806 266.757 0.696699L271.53 5.46967ZM1 5.25L2.5 5.25L2.5 6.75L1 6.75L1 5.25ZM5.5 5.25L8.5 5.25V6.75L5.5 6.75L5.5 5.25ZM11.5 5.25L14.5 5.25L14.5 6.75L11.5 6.75L11.5 5.25ZM17.5 5.25L20.5 5.25V6.75L17.5 6.75V5.25ZM23.5 5.25L26.5 5.25V6.75L23.5 6.75V5.25ZM29.5 5.25L32.5 5.25V6.75L29.5 6.75V5.25ZM35.5 5.25L38.5 5.25V6.75L35.5 6.75V5.25ZM41.5 5.25L44.5 5.25V6.75L41.5 6.75V5.25ZM47.5 5.25L50.5 5.25V6.75L47.5 6.75V5.25ZM53.5 5.25L56.5 5.25V6.75L53.5 6.75V5.25ZM59.5 5.25L62.5 5.25V6.75L59.5 6.75V5.25ZM65.5 5.25L68.5 5.25V6.75L65.5 6.75V5.25ZM71.5 5.25L74.5 5.25V6.75L71.5 6.75V5.25ZM77.5 5.25L80.5 5.25V6.75L77.5 6.75V5.25ZM83.5 5.25L86.5 5.25V6.75L83.5 6.75V5.25ZM89.5 5.25L92.5 5.25V6.75L89.5 6.75V5.25ZM95.5 5.25L98.5 5.25V6.75L95.5 6.75V5.25ZM101.5 5.25L104.5 5.25V6.75L101.5 6.75V5.25ZM107.5 5.25L110.5 5.25V6.75L107.5 6.75V5.25ZM113.5 5.25L116.5 5.25V6.75L113.5 6.75V5.25ZM119.5 5.25L122.5 5.25V6.75L119.5 6.75V5.25ZM125.5 5.25L128.5 5.25V6.75L125.5 6.75V5.25ZM131.5 5.25L134.5 5.25V6.75L131.5 6.75V5.25ZM137.5 5.25L140.5 5.25V6.75L137.5 6.75V5.25ZM143.5 5.25L146.5 5.25V6.75L143.5 6.75V5.25ZM149.5 5.25L152.5 5.25V6.75L149.5 6.75V5.25ZM155.5 5.25L158.5 5.25V6.75L155.5 6.75V5.25ZM161.5 5.25L164.5 5.25V6.75L161.5 6.75V5.25ZM167.5 5.25L170.5 5.25V6.75L167.5 6.75V5.25ZM173.5 5.25L176.5 5.25V6.75L173.5 6.75V5.25ZM179.5 5.25L182.5 5.25V6.75L179.5 6.75V5.25ZM185.5 5.25L188.5 5.25V6.75L185.5 6.75V5.25ZM191.5 5.25L194.5 5.25V6.75L191.5 6.75V5.25ZM197.5 5.25L200.5 5.25V6.75L197.5 6.75V5.25ZM203.5 5.25L206.5 5.25V6.75L203.5 6.75V5.25ZM209.5 5.25L212.5 5.25V6.75L209.5 6.75V5.25ZM215.5 5.25L218.5 5.25V6.75L215.5 6.75V5.25ZM221.5 5.25L224.5 5.25V6.75L221.5 6.75V5.25ZM227.5 5.25L230.5 5.25V6.75L227.5 6.75V5.25ZM233.5 5.25L236.5 5.25V6.75L233.5 6.75V5.25ZM239.5 5.25L242.5 5.25V6.75L239.5 6.75V5.25ZM245.5 5.25L248.5 5.25V6.75L245.5 6.75V5.25ZM251.5 5.25L254.5 5.25V6.75L251.5 6.75V5.25ZM257.5 5.25L260.5 5.25V6.75L257.5 6.75V5.25ZM263.5 5.25L266.5 5.25V6.75L263.5 6.75V5.25ZM269.5 5.25L271 5.25V6.75L269.5 6.75V5.25Z" fill="#2C2D2F"/>
</svg>
