<svg width="13" height="21" viewBox="0 0 13 21" fill="none" xmlns="http://www.w3.org/2000/svg">
<path d="M7.03027 0.46967C6.73738 0.176777 6.2625 0.176777 5.96961 0.46967L1.19664 5.24264C0.903744 5.53553 0.903744 6.01041 1.19664 6.3033C1.48953 6.59619 1.9644 6.59619 2.2573 6.3033L6.49994 2.06066L10.7426 6.3033C11.0355 6.59619 11.5103 6.59619 11.8032 6.3033C12.0961 6.01041 12.0961 5.53553 11.8032 5.24264L7.03027 0.46967ZM5.74994 1L5.74994 2.66667L7.24994 2.66667L7.24994 1L5.74994 1ZM5.74994 6L5.74994 9.33333L7.24994 9.33333L7.24994 6L5.74994 6ZM5.74994 12.6667L5.74994 16L7.24994 16L7.24994 12.6667L5.74994 12.6667ZM5.74994 19.3333L5.74994 21L7.24994 21L7.24994 19.3333L5.74994 19.3333Z" fill="#969284"/>
</svg>
