<svg width="294" height="39" viewBox="0 0 294 39" fill="none" xmlns="http://www.w3.org/2000/svg">
<path d="M75.7044 31.6338C71.4085 31.6338 68.1431 30.591 65.8921 28.4738C63.6411 26.3724 62.5156 23.3704 62.5156 19.4678C62.5156 15.4388 63.6728 12.3262 66.003 10.1458C68.3174 7.96538 71.7097 6.85938 76.18 6.85938C77.6701 6.85938 79.0333 6.95417 80.2381 7.12797C81.4428 7.30177 82.5842 7.57037 83.6621 7.91797V13.922C82.5683 13.4954 81.427 13.211 80.2539 13.0688C79.0809 12.9266 77.8761 12.8476 76.6555 12.8476C74.3412 12.8476 72.5974 13.369 71.4403 14.4118C70.2831 15.4546 69.6965 17.1452 69.6965 19.4836C69.6965 21.6798 70.2038 23.244 71.2183 24.2236C72.2329 25.1874 73.7229 25.6772 75.6886 25.6772C76.3385 25.6772 76.9409 25.6298 77.5274 25.5508C78.0981 25.4718 78.637 25.3454 79.1443 25.2032V21.6956H74.357V17.3664H85.0254V29.4534C84.1059 30.0222 82.8695 30.5278 81.3319 30.986C79.8101 31.4126 77.9237 31.6338 75.7044 31.6338Z" fill="#82653E"/>
<path d="M99.5943 31.6338C95.5996 31.6338 92.556 30.67 90.4477 28.7266C88.3394 26.7832 87.2773 23.6548 87.2773 19.3256C87.2773 16.3394 87.7529 13.9378 88.704 12.105C89.6551 10.2722 91.0501 8.94497 92.8731 8.10757C94.7119 7.27017 96.947 6.85938 99.5943 6.85938C102.242 6.85938 104.477 7.27017 106.316 8.10757C108.154 8.94497 109.533 10.2722 110.485 12.105C111.436 13.9378 111.911 16.3394 111.911 19.3256C111.911 23.6548 110.849 26.7832 108.725 28.7266C106.601 30.6542 103.557 31.6338 99.5943 31.6338ZM99.5943 25.6614C101.386 25.6614 102.701 25.1558 103.51 24.1446C104.318 23.1334 104.73 21.5218 104.73 19.3098C104.73 16.9398 104.318 15.2808 103.51 14.2854C102.701 13.3058 101.401 12.816 99.5943 12.816C97.7872 12.816 96.4873 13.3058 95.6789 14.2854C94.8704 15.265 94.4583 16.9398 94.4583 19.3098C94.4583 21.5218 94.8704 23.1334 95.6789 24.1446C96.4873 25.1558 97.7872 25.6614 99.5943 25.6614Z" fill="#82653E"/>
<path d="M114.891 31.2543V7.23828H121.929V25.8981H132.787V31.2701H114.891V31.2543Z" fill="#82653E"/>
<path d="M135.039 31.2543V7.23828H145.818C148.291 7.23828 150.4 7.64908 152.143 8.45488C153.887 9.26068 155.219 10.5563 156.154 12.3417C157.073 14.1271 157.533 16.4813 157.533 19.4043C157.533 23.5281 156.518 26.5459 154.505 28.4261C152.476 30.3221 149.591 31.2543 145.818 31.2543H135.039ZM142.077 25.8823H144.915C146.088 25.8823 147.071 25.7085 147.879 25.3767C148.672 25.0449 149.29 24.4129 149.718 23.4807C150.146 22.5485 150.352 21.1897 150.352 19.3885C150.352 17.5873 150.162 16.2127 149.766 15.2331C149.385 14.2535 148.783 13.5741 147.99 13.1791C147.197 12.7999 146.167 12.5945 144.915 12.5945H142.077V25.8823Z" fill="#82653E"/>
<path d="M160.527 31.2543V7.23828H178.789V12.6103H167.55V16.5287H177.394V21.9797H167.55V25.8981H178.773V31.2701H160.527V31.2543Z" fill="#82653E"/>
<path d="M181.406 31.2543V7.23828H187.398L196.497 19.9573V7.23828H203.536V31.2701H197.512L188.46 18.5827V31.2701H181.406V31.2543Z" fill="#82653E"/>
<path d="M215.312 31.2543V7.23828H222.161L228.153 19.4359L234.097 7.23828H240.913V31.2701H233.875V19.2621L230.023 27.1779H226.25L222.351 19.2621V31.2701H215.312V31.2543Z" fill="#82653E"/>
<path d="M244.652 31.2543V7.23828H251.691V31.2701H244.652V31.2543Z" fill="#82653E"/>
<path d="M255.434 31.2543V7.23828H262.472V25.8981H273.33V31.2701H255.434V31.2543Z" fill="#82653E"/>
<path d="M275.582 31.2543V7.23828H282.62V25.8981H293.479V31.2701H275.582V31.2543Z" fill="#82653E"/>
<path d="M21.2846 20.1792L37.1207 38.5072H27.5937C23.171 38.5072 19.5726 34.9206 19.5726 30.5124V20.2108H1.34289C1.34289 20.2108 1.01 19.0732 0.899034 18.7098C-0.797123 12.8796 3.78409 11.3944 7.46173 13.1324L19.4616 18.7888L6.79595 0.476562L14.0086 1.40876C18.0033 1.93016 20.9993 5.31136 20.9993 9.34036V18.773H39.3083C41.3532 24.2714 37.089 26.594 33.1736 24.9982L21.2846 20.1792Z" fill="#82653E"/>
<path d="M16.1012 24.2711L2.05636 38.2699C1.50154 37.9539 1.12109 37.3693 1.12109 36.6899V25.1559C1.12109 24.1447 1.92954 23.3389 2.94407 23.3389H14.516C15.1818 23.3389 15.7841 23.7181 16.1012 24.2711Z" fill="#4390BD"/>
<path d="M16.3373 25.1719V36.7059C16.3373 37.7013 15.513 38.5229 14.5143 38.5229H2.9424C2.60951 38.5229 2.30832 38.4439 2.05469 38.2859L16.0995 24.2871C16.2422 24.5399 16.3373 24.8401 16.3373 25.1719Z" fill="#265C84"/>
<path d="M49.6108 0.492188H29.8434H29.78C28.924 0.555387 28.1156 0.823989 27.5132 1.42439L26.1024 2.83059C26.1024 2.83059 26.1024 2.83059 26.1024 2.84639L24.7074 4.23679C24.3428 4.60019 24.1367 5.08999 24.1367 5.61139V13.859C24.1367 14.5384 24.5172 15.1388 25.072 15.439L31.6188 8.80299C32.0785 8.34479 32.6968 8.09199 33.3467 8.09199H51.4179V2.32499C51.4337 1.29799 50.6094 0.492188 49.6108 0.492188Z" fill="#4390BD"/>
<path d="M33.3646 8.07635C32.7146 8.07635 32.0964 8.32915 31.6367 8.78735L25.0898 15.4233C25.3435 15.5655 25.6447 15.6445 25.9617 15.6445H49.6128C50.6114 15.6445 51.4357 14.8387 51.4357 13.8275V8.06055H33.3646V8.07635Z" fill="#265C84"/>
</svg>
