<svg width="42" height="42" viewBox="0 0 42 42" fill="none" xmlns="http://www.w3.org/2000/svg">
<circle cx="21" cy="21" r="20.5" stroke="#D5CDBD"/>
<g clip-path="url(#clip0_2_179)">
<path d="M29.4878 18.499C30.1931 19.1322 30.8017 19.7865 31.2581 20.5674C31.7145 21.3484 31.9911 22.1997 32.1778 23.1424C32.3576 23.0298 32.4752 22.9736 32.5789 22.8962C32.9731 22.6147 33.3603 22.3263 33.7476 22.0378C33.9758 21.869 34.5705 21.3976 34.7019 21.6438C34.8125 21.8479 34.8125 22.3122 34.8125 22.5936C34.8125 23.9726 34.8125 25.3516 34.8125 26.7375C34.8125 27.026 34.8125 27.6099 34.7088 27.6522C34.5982 27.7014 33.9827 27.4692 33.7614 27.3145C33.3396 27.0119 32.9178 26.7164 32.489 26.4139C32.3784 26.3365 32.2677 26.2662 32.1156 26.1677C32.0464 26.3225 31.9842 26.4421 31.9427 26.5687C30.9676 29.4321 29.0314 31.1769 26.0785 31.7187C25.6705 31.7961 25.2487 31.8101 24.8338 31.8172C20.2766 31.8172 15.7194 31.8172 11.1692 31.8172C11.1346 31.8172 11.1 31.8172 11.0585 31.8172C9.33662 31.8524 8.64509 30.797 8.41689 29.5166C8.21635 28.3909 8.36848 27.2722 8.65892 26.1817C9.39194 23.452 10.7335 21.074 12.6767 19.0407C12.7597 18.9563 12.8427 18.8648 12.9257 18.7734C12.9464 18.7523 12.9533 18.71 12.9879 18.6186C11.2936 18.1753 10.2425 17.113 10.0282 15.2697C9.86218 15.3049 9.73079 15.326 9.60632 15.3541C8.83872 15.5581 8.09879 15.8677 7.23438 15.5722C7.71845 13.8063 8.22326 12.0474 8.81798 10.3237C9.53025 10.9288 10.1042 11.6675 10.7128 12.3781C10.7335 12.4062 10.775 12.4062 10.8303 12.4344C10.9341 12.3218 11.0309 12.2022 11.1415 12.0896C11.9713 11.2102 12.981 10.8373 14.1427 11.0836C15.2008 11.3087 16.2519 11.5831 17.3307 11.7027C20.7607 12.0967 24.1423 11.963 27.4201 11.161C28.8239 10.8162 30.0064 11.1398 30.9538 12.2655C30.9815 12.3007 31.023 12.3288 31.0921 12.3922C31.1751 12.3077 31.265 12.2374 31.3411 12.153C31.839 11.576 32.2401 10.9006 33.1529 10.7177C33.713 12.35 34.2109 14.0103 34.6051 15.6918V15.6989C33.7407 15.8325 32.9731 15.5581 32.1847 15.333C31.998 15.2767 31.8874 15.333 31.8597 15.5441C31.673 16.9019 30.9331 17.8095 29.7229 18.3583C29.6676 18.3794 29.6192 18.4216 29.4947 18.499M18.7552 18.1753C18.776 18.2949 18.7829 18.3442 18.7967 18.3934C19.1425 19.3081 19.1563 20.2649 19.0042 21.2147C18.4371 24.7676 16.7429 27.7155 14.1981 30.1779C14.1013 30.2694 14.0044 30.3679 13.9076 30.4664C13.9215 30.4945 13.9353 30.5226 13.9422 30.5438C14.1151 30.5578 14.2949 30.5719 14.4678 30.5719C17.8493 30.5719 21.2378 30.5719 24.6194 30.5719C25.3386 30.5719 26.0647 30.4734 26.7424 30.3256C28.2292 30.002 29.9649 28.5457 30.5043 27.1034C32.3161 22.2911 29.1143 18.1824 24.8476 18.1402C22.9667 18.1191 21.0788 18.1402 19.1978 18.1402C19.0595 18.1402 18.9212 18.1683 18.7483 18.1824M18.4786 13.6234C18.4994 13.0676 18.4925 13.0605 17.9462 12.9902C17.4344 12.9269 16.9227 12.8565 16.411 12.7932C16.0859 12.751 16.0445 12.7721 15.9753 13.1098C15.9338 13.2997 15.9131 13.4967 15.8647 13.6867C15.7678 14.0807 15.4774 14.2847 15.1316 14.2214C14.7928 14.1581 14.5922 13.8485 14.6476 13.4475C14.6821 13.2153 14.7236 12.9902 14.7651 12.765C14.7997 12.5892 14.7375 12.4836 14.5646 12.4414C14.3433 12.3922 14.122 12.3288 13.9007 12.2866C12.9395 12.1037 11.9921 12.6525 11.6671 13.5882C11.5633 13.8907 11.4596 14.1862 11.3766 14.4958C11.0447 15.7481 11.7501 16.9793 12.981 17.3029C13.306 17.3874 13.6379 17.4437 13.9629 17.5351C14.2257 17.6055 14.447 17.5633 14.6821 17.4296C15.3253 17.0497 16.0168 16.8175 16.7775 16.8597C17.1025 16.8738 17.4275 16.8738 17.7525 16.8738C20.0207 16.8738 22.289 16.8878 24.5572 16.8738C25.6498 16.8667 26.7078 17.0145 27.7313 17.4225C27.8488 17.4718 27.9941 17.521 28.1116 17.4929C28.5127 17.4085 28.9207 17.3381 29.2941 17.1904C29.9995 16.909 30.4628 16.3602 30.6011 15.6004C30.7878 14.5661 30.4421 13.6515 29.8266 12.8424C29.716 12.6947 29.5362 12.5892 29.3702 12.4907C28.6925 12.0896 28.001 12.2444 27.3164 12.4766C27.2541 12.4977 27.1919 12.6525 27.1988 12.7369C27.2196 12.9691 27.2749 13.1942 27.3095 13.4193C27.3717 13.8204 27.1919 14.137 26.853 14.2144C26.4935 14.2988 26.1961 14.0948 26.0924 13.6726C26.037 13.4475 25.9956 13.2153 25.9471 12.9902C25.9126 12.8213 25.8088 12.751 25.636 12.7721C25.0136 12.8565 24.3981 12.9409 23.7757 13.0183C23.5337 13.0465 23.4438 13.1661 23.4646 13.4053C23.4853 13.6726 23.5199 13.94 23.513 14.2073C23.506 14.5732 23.264 14.8264 22.9459 14.8476C22.614 14.8687 22.3581 14.6646 22.2959 14.2988C22.2544 14.0596 22.2475 13.8133 22.2336 13.5671C22.206 13.1661 22.1714 13.1239 21.7841 13.1239C21.2586 13.1239 20.7261 13.1239 20.2005 13.1239C19.7787 13.1239 19.7441 13.159 19.7165 13.6023C19.7026 13.8204 19.7096 14.0455 19.675 14.2566C19.6127 14.6435 19.343 14.8687 19.0111 14.8405C18.6584 14.8053 18.4302 14.5169 18.4441 14.1159C18.4441 13.947 18.4717 13.7782 18.4855 13.6023M17.8563 20.089C17.8493 19.9694 17.8424 19.7372 17.8009 19.5121C17.5796 18.1824 16.8881 17.7954 15.671 18.3301C15.021 18.6115 14.4678 19.0337 13.9491 19.5121C11.9299 21.4046 10.616 23.7404 9.84835 26.4069C9.48184 27.6662 9.32971 28.9748 9.92442 30.3186C10.0005 30.5015 10.2425 30.6493 10.4362 30.6352C11.5703 30.5578 12.4554 30.0372 13.2299 29.3548C15.1316 27.6592 16.4248 25.5415 17.2754 23.1354C17.6073 22.1856 17.8424 21.2217 17.8563 20.089ZM33.5194 23.853C33.5194 23.853 33.471 23.8178 33.4433 23.8037C33.0906 24.0781 32.7241 24.3244 32.4199 24.655C32.6965 25.0561 33.0284 25.3445 33.5194 25.5485V23.853ZM32.5374 12.8143C32.5028 12.8143 32.4613 12.8002 32.4268 12.7932C32.2193 13.0535 32.0049 13.2997 31.8251 13.5812C31.7836 13.6515 31.839 13.8767 31.9081 13.9189C32.2055 14.0807 32.5374 14.1721 32.9592 14.2073C32.8002 13.6937 32.6688 13.2575 32.5374 12.8213M9.41269 12.7862C9.37811 12.7932 9.33662 12.8073 9.30205 12.8143C9.17066 13.2575 9.03927 13.6937 8.90787 14.137C8.93554 14.1651 8.9632 14.1933 8.99086 14.2214C9.29513 14.1299 9.5994 14.0525 9.89676 13.94C10.0558 13.8837 10.1111 13.7078 10.0143 13.5741C9.82761 13.2997 9.60632 13.0465 9.40578 12.7862" fill="#82653E"/>
</g>
<defs>
<clipPath id="clip0_2_179">
<rect width="28" height="22" fill="white" transform="translate(7 10)"/>
</clipPath>
</defs>
</svg>
