<svg width="42" height="42" viewBox="0 0 42 42" fill="none" xmlns="http://www.w3.org/2000/svg">
<circle cx="21" cy="21" r="20.5" stroke="#D5CDBD"/>
<path d="M25.252 9.94611L26.2193 9.89508C26.8013 9.94227 27.7371 9.95799 28.6415 10.0917C31.8108 10.5793 33.6432 12.3173 33.942 15.0305C34.0521 16.0371 34.0207 17.028 33.714 18.0032C33.0455 20.1816 31.3311 21.4163 28.7516 21.8488C27.0765 22.1319 25.3857 22.0533 23.7028 21.9038C19.9358 21.5814 16.2553 20.9287 12.7006 19.8119C11.1749 19.3322 9.68074 18.7739 8.39887 17.9009C6.52717 16.619 6.53505 15.3136 8.41461 14.0317C9.49988 13.2924 10.7424 12.7734 12.04 12.3566C16.4912 10.9017 21.1075 10.131 26.2114 9.89508L25.252 9.94611Z" stroke="#82653E" stroke-width="1.4" stroke-miterlimit="10"/>
<path d="M11.8664 30.6965C9.64866 30.7201 8.13871 28.8877 8.61843 26.7329C8.94873 25.2623 9.71158 23.9804 10.498 22.7143C10.6632 22.439 10.8283 22.1638 11.0249 21.9121C11.4574 21.3695 12.2517 21.3301 12.6528 21.8964C13.683 23.367 14.6425 24.8927 15.075 26.6621C15.6098 28.8563 14.1313 30.6729 11.8743 30.6886L11.8664 30.6965Z" stroke="#82653E" stroke-width="1.2" stroke-miterlimit="10"/>
<path d="M29.0811 13.6781C28.7744 13.6703 28.4677 13.6781 28.1689 13.6467C24.5749 13.2771 20.9809 13.167 17.4027 13.7253C15.4602 14.0242 13.5492 14.4882 11.6224 14.8735C11.4809 14.8971 11.3472 14.9207 11.2056 14.9364C11.1899 14.8971 11.1742 14.8578 11.1584 14.8185C11.4494 14.6376 11.7325 14.4331 12.0392 14.2758C13.3526 13.5916 14.7524 13.1355 16.1916 12.8131C19.8484 11.9952 23.4975 11.9637 27.1465 12.8681C27.7127 13.0097 28.2554 13.2141 28.8059 13.395C28.916 13.4343 29.0103 13.5051 29.1126 13.5602C29.1047 13.5995 29.089 13.6388 29.0811 13.6781Z" fill="#82653E"/>
<path d="M12.3248 29.6187C13.3708 29.5557 14.228 28.5806 14.0943 27.5818C14.0314 27.11 13.6617 26.9212 13.3079 27.2358C12.7731 27.7076 12.2776 28.2267 11.7979 28.7536C11.6957 28.8637 11.6564 29.1704 11.735 29.2648C11.8687 29.4299 12.1203 29.5007 12.3248 29.6108" fill="#82653E"/>
<path d="M21.5239 34.0545C18.9287 34.0781 17.1592 31.939 17.7254 29.4146C18.1108 27.6923 19.0073 26.1981 19.9196 24.7196C20.1162 24.405 20.3049 24.0747 20.5409 23.7837C21.0442 23.1467 21.98 23.1074 22.444 23.768C23.6472 25.4903 24.7719 27.2755 25.2752 29.3438C25.8965 31.9075 24.1742 34.0309 21.5239 34.0624V34.0545Z" stroke="#82653E" stroke-width="1.2" stroke-miterlimit="10"/>
<path d="M30.2089 30.2324C28.5023 30.2481 27.3305 28.8326 27.7002 27.1732C27.9518 26.0407 28.5417 25.0498 29.1472 24.0747C29.2809 23.8623 29.4067 23.65 29.5561 23.4613C29.8864 23.0444 30.5077 23.013 30.8066 23.4455C31.6008 24.578 32.3401 25.7576 32.6704 27.126C33.0793 28.8168 31.9469 30.2167 30.201 30.2324H30.2089Z" stroke="#82653E" stroke-width="1.2" stroke-miterlimit="10"/>
<path d="M22.053 32.7962C23.2798 32.7175 24.2786 31.5772 24.1213 30.4133C24.0505 29.8628 23.6101 29.6426 23.2012 30.0122C22.5799 30.5627 21.998 31.1682 21.4396 31.7895C21.3216 31.9154 21.2744 32.2771 21.3688 32.3872C21.5261 32.5838 21.8171 32.6625 22.053 32.7962Z" fill="#82653E"/>
<path d="M30.5621 29.3988C31.3721 29.3516 32.0249 28.5966 31.9226 27.8259C31.8754 27.4641 31.5845 27.3147 31.3171 27.5585C30.9082 27.9203 30.5228 28.3214 30.1532 28.7303C30.0745 28.8168 30.0431 29.0527 30.106 29.1235C30.2082 29.2493 30.4048 29.3044 30.5621 29.3909" fill="#82653E"/>
<path d="M11.2932 16.879C11.5921 16.9183 11.8988 16.9419 12.1976 17.0049C15.7287 17.7598 19.2912 18.2631 22.9088 18.1059C24.867 18.0193 26.8252 17.7677 28.7834 17.5947C28.9249 17.5789 29.0665 17.5789 29.2081 17.5789C29.2238 17.6183 29.2317 17.6576 29.2474 17.6969C28.9328 17.8463 28.634 18.0193 28.3115 18.1452C26.9274 18.6799 25.4882 18.9867 24.0255 19.1518C20.3057 19.5686 16.6645 19.2069 13.1414 17.9092C12.5987 17.7126 12.0797 17.4453 11.5449 17.2015C11.4426 17.1543 11.3483 17.0678 11.2539 17.0049C11.2696 16.9655 11.2854 16.9262 11.3011 16.8869" fill="#82653E"/>
<path d="M20.137 16.5486C25.0994 16.5486 29.118 16.3126 29.118 16.0217C29.118 15.7307 25.0994 15.4948 20.137 15.4948C15.1746 15.4948 11.156 15.7307 11.156 16.0217C11.156 16.3126 15.1746 16.5486 20.137 16.5486Z" fill="#82653E"/>
</svg>
