<svg width="42" height="42" viewBox="0 0 42 42" fill="none" xmlns="http://www.w3.org/2000/svg">
<circle cx="21" cy="21" r="20.5" stroke="#D5CDBD"/>
<g clip-path="url(#clip0_44_260)">
<path d="M11.0673 20.1452C10.812 20.0223 10.5602 19.8767 10.3015 19.7766C8.75613 19.1761 8.18088 17.3743 8.25236 15.7091C8.32724 13.9347 8.87867 12.4878 10.0394 11.5415C10.795 10.9182 11.5983 10.8454 12.4357 11.2594C15.1826 12.6061 17.9329 13.9438 20.6866 15.2678C20.8704 15.3588 21.1223 15.3588 21.3061 15.2678C24.0394 13.9574 26.7727 12.638 29.4957 11.2958C30.7483 10.677 31.8001 11.0865 32.7022 12.3149C33.7573 13.7527 34.0603 16.0867 33.4442 17.8248C33.1344 18.7029 32.6443 19.3171 31.9601 19.6447C31.6129 19.8085 31.2691 19.9814 30.9288 20.2498C31.5414 20.5501 32.1405 20.9186 32.7668 21.1416C34.9181 21.9105 35.3299 24.7223 34.7819 26.8197C34.5096 27.8616 34.0467 28.7215 33.3591 29.3358C32.583 30.0273 31.7525 30.2048 30.8539 29.768C27.7053 28.2256 24.55 26.7014 21.4014 25.1591C21.1121 25.018 20.867 25.0317 20.5811 25.1682C17.5551 26.6514 14.4984 28.0254 11.5098 29.6315C9.23947 30.8509 7.51372 28.5851 7.13249 26.4193C6.84998 24.8133 6.97932 23.3164 7.91197 22.1152C8.16386 21.7922 8.49744 21.5465 8.82761 21.3691C9.56624 20.9641 10.3219 20.6274 11.0741 20.2635C11.0741 20.2271 11.0673 20.1907 11.0639 20.1543L11.0673 20.1452ZM12.7046 27.3885C12.8544 27.3202 12.9667 27.2747 13.079 27.2201C16.054 25.7733 19.0323 24.331 22.0073 22.8796C25.1695 21.3418 28.3316 19.8085 31.487 18.2479C31.7695 18.1068 32.0656 17.8475 32.246 17.5336C32.92 16.3643 32.726 14.4534 31.8444 13.2795C31.2896 12.5424 30.6598 12.3149 29.894 12.688C23.7909 15.6682 17.681 18.6301 11.5745 21.6011C11.4554 21.6602 11.343 21.733 11.166 21.8331C11.8332 22.5111 12.2859 23.3209 12.5718 24.3264C13.2696 23.9898 13.9402 23.6713 14.6073 23.3482C16.4726 22.4428 18.3345 21.5283 20.1998 20.6229C20.6662 20.3954 20.9793 20.5364 21.1019 21.0187C21.2142 21.4646 21.0372 21.8149 20.5777 22.0424C20.0126 22.32 19.4442 22.5975 18.8792 22.875C16.9526 23.8123 15.026 24.745 13.1028 25.6914C12.9871 25.7505 12.8271 25.887 12.8101 26.019C12.7488 26.4466 12.742 26.8834 12.7114 27.3885H12.7046ZM19.3114 16.2414C19.1651 16.1504 19.0936 16.0958 19.0153 16.0594C16.6905 14.9265 14.3623 13.8073 12.0408 12.6653C11.4213 12.3604 10.8767 12.5106 10.3798 13.0384C9.74324 13.7163 9.42328 14.6308 9.37222 15.7C9.30415 17.0422 9.73643 17.8885 10.6793 18.348C11.3056 18.6528 11.9285 18.9759 12.565 19.2534C12.7352 19.3262 12.9565 19.3353 13.1233 19.2534C14.866 18.4253 16.602 17.57 18.3413 16.7237C18.6443 16.5781 18.9438 16.4234 19.3148 16.2414H19.3114ZM29.3255 27.4158C28.9988 25.1272 29.4923 23.2891 30.8505 21.8149C30.3331 21.5647 29.8872 21.3236 29.4311 21.137C29.2677 21.0688 29.06 21.0597 28.9035 21.137C26.9326 22.0788 24.9686 23.0388 23.0046 23.9989C22.9229 24.0398 22.8446 24.0989 22.7017 24.1899C24.9414 25.2819 27.1096 26.3375 29.3289 27.4158H29.3255ZM30.3331 26.1418C30.3569 26.3465 30.3739 26.6696 30.4386 26.9744C30.7381 28.4213 31.824 28.9354 32.7464 28.0709C33.6008 27.2747 34.0467 25.7005 33.8016 24.3492C33.5089 22.7386 32.3311 22.1926 31.361 23.2299C30.6939 23.9443 30.3841 24.8952 30.3297 26.1373L30.3331 26.1418ZM11.663 25.8188C11.6256 24.8451 11.2852 23.785 10.4785 23.0798C9.53561 22.2608 8.49403 22.8114 8.22172 24.2673C8.00047 25.4548 8.21492 26.5285 8.77995 27.4795C9.27351 28.303 10.0326 28.6715 10.635 28.3985C11.2511 28.1164 11.6664 27.1883 11.6596 25.8142L11.663 25.8188Z" fill="#82653E"/>
<path d="M22.1605 21.2233C21.8984 21.2097 21.6942 21.0504 21.6227 20.7001C21.5444 20.3406 21.6227 19.9858 21.8848 19.8447C22.5553 19.4853 23.2327 19.1577 23.9203 18.862C24.1926 18.7437 24.4819 18.9802 24.5534 19.3124C24.6317 19.69 24.5806 20.0631 24.3015 20.2132C23.6344 20.5772 22.9468 20.8821 22.2694 21.2051C22.2388 21.2188 22.2048 21.2188 22.1673 21.2233H22.1605Z" fill="#82653E"/>
</g>
<defs>
<clipPath id="clip0_44_260">
<rect width="28" height="19" fill="white" transform="translate(7 11)"/>
</clipPath>
</defs>
</svg>
