<svg width="42" height="42" viewBox="0 0 42 42" fill="none" xmlns="http://www.w3.org/2000/svg">
<circle cx="21" cy="21" r="20.5" stroke="#D5CDBD"/>
<path d="M21.1194 9.09623C20.6682 9.04785 20.1687 9.41874 19.9028 9.90251C19.0569 11.4748 18.2109 13.047 17.373 14.6273C17.2521 14.8531 17.1635 14.9015 16.9379 14.7644C16.3578 14.4096 15.7697 14.071 15.1735 13.7404C14.9962 13.6437 14.9479 13.563 15.0607 13.3615C15.9228 11.7731 16.7526 10.1686 17.6227 8.58827C18.372 7.23372 19.5483 6.50806 21.0952 6.5C22.618 6.5 23.7298 7.23372 24.4791 8.54796C25.5587 10.4347 26.6464 12.3052 27.726 14.1919C27.8388 14.3935 27.9435 14.4096 28.1288 14.2887C28.6847 13.95 29.2487 13.6275 29.8046 13.305C29.861 13.2728 29.9335 13.2647 29.998 13.2405C29.998 13.305 30.006 13.3776 29.9899 13.4421C29.5629 15.0627 29.1279 16.6753 28.7008 18.2959C28.6525 18.4894 28.5719 18.5297 28.3786 18.4814C26.7833 18.046 25.1881 17.6267 23.5928 17.1913C23.5203 17.1752 23.4559 17.1268 23.3834 17.0946C23.4397 17.0462 23.4881 16.9817 23.5525 16.9414C24.1407 16.5947 24.7208 16.248 25.317 15.9254C25.5587 15.7964 25.5667 15.6755 25.4378 15.4497C24.3341 13.555 23.2464 11.6521 22.1507 9.75738C21.9251 9.3623 21.5706 9.14461 21.1194 9.09623Z" stroke="#82653E" stroke-width="1.3" stroke-miterlimit="10"/>
<path d="M27.8114 30.9172C26.6503 30.9172 25.4893 30.9172 24.3282 30.9172C24.0647 30.9172 23.9659 30.9931 23.9741 31.2801C23.9906 31.9469 23.9741 32.6222 23.9741 33.289C23.9741 33.3565 23.9494 33.4325 23.9412 33.5C23.8836 33.4662 23.8177 33.4409 23.7683 33.3987C22.5414 32.1326 21.3227 30.8581 20.0957 29.5836C19.9722 29.457 19.964 29.3726 20.0957 29.2459C21.3227 28.0052 22.5496 26.7729 23.7765 25.5321C23.8177 25.4899 23.8753 25.4646 23.9247 25.4392C23.9412 25.5068 23.9741 25.5743 23.9741 25.6418C23.9741 26.393 23.9824 27.1527 23.9741 27.9039C23.9741 28.1655 24.0482 28.2584 24.3117 28.2584C26.4856 28.25 28.6677 28.2584 30.8416 28.25C32.0932 28.25 32.6943 27.1442 32.0603 26.0385C31.1216 24.3842 30.1746 22.7383 29.2277 21.0923C29.0959 20.8729 29.1289 20.7716 29.3347 20.6534C29.9523 20.2989 30.5534 19.936 31.1627 19.5646C31.3274 19.4633 31.4262 19.4717 31.5333 19.6574C32.472 21.3118 33.4272 22.9577 34.3659 24.6121C35.0164 25.7515 35.1893 26.9585 34.7776 28.2331C34.2671 29.8115 32.8343 30.9087 31.2121 30.9341C30.084 30.9509 28.9559 30.9341 27.8196 30.9341L27.8114 30.9172Z" stroke="#82653E" stroke-width="1.3" stroke-miterlimit="10"/>
<path d="M13.7515 31.489C12.8843 31.489 12.0171 31.5138 11.158 31.489C9.41543 31.4393 8.1146 30.6367 7.3701 29.0314C6.78923 27.7902 6.91195 26.5408 7.59918 25.3492C8.71184 23.4047 9.82449 21.4519 10.9453 19.5074C11.0681 19.2923 11.0026 19.2012 10.8226 19.0937C10.2417 18.7627 9.66087 18.4151 9.08818 18.0759C9.03091 18.0428 8.99 17.9849 8.94909 17.9352C9.00636 17.9104 9.05545 17.8773 9.11272 17.8608C10.7653 17.4139 12.418 16.9754 14.0624 16.5203C14.2669 16.4624 14.3324 16.5285 14.3815 16.7189C14.8151 18.3655 15.2487 20.0204 15.6823 21.6671C15.6987 21.7333 15.6905 21.8077 15.6987 21.8739C15.625 21.8491 15.5432 21.8408 15.4778 21.8077C14.8887 21.4685 14.2915 21.1375 13.7106 20.7734C13.457 20.6162 13.3425 20.6493 13.187 20.9141C12.1398 22.7758 11.1335 24.6707 9.9963 26.4829C9.23544 27.6909 10.1354 28.8825 11.3626 28.8577C13.1216 28.8246 14.8805 28.8577 16.6477 28.8411C16.9177 28.8411 17.0077 28.9073 16.9995 29.1886C16.9831 29.8341 16.9831 30.4795 16.9995 31.1249C16.9995 31.3897 16.934 31.489 16.6559 31.4807C15.6905 31.4641 14.7169 31.4807 13.7515 31.4807V31.489Z" stroke="#82653E" stroke-width="1.3" stroke-miterlimit="10"/>
</svg>
