<svg width="42" height="42" viewBox="0 0 42 42" fill="none" xmlns="http://www.w3.org/2000/svg">
<circle cx="21" cy="21" r="20.5" stroke="#D5CDBD"/>
<g clip-path="url(#clip0_2_199)">
<path d="M16.6084 10.3231C16.4153 10.5626 16.2893 10.7489 16.1381 10.8997C15.8106 11.2368 15.5502 11.2722 15.2143 10.9618C14.0805 9.92393 12.8292 9.64895 11.4015 10.1723C11.0571 10.2965 10.7884 10.2255 10.696 9.78201C10.6372 9.52476 10.5028 9.27639 10.4693 9.01914C10.4357 8.70868 10.3601 8.24741 10.5112 8.10548C10.7884 7.84824 11.0235 8.23854 11.2167 8.44256C11.6534 8.90383 12.1741 9.13446 12.7536 8.90383C13.0643 8.77964 13.3163 8.47804 13.5766 8.24741C14.0637 7.80389 14.2401 7.83937 14.3829 8.51353C14.576 9.40944 15.0379 9.92393 15.9198 10.0215C16.1297 10.0392 16.3313 10.1989 16.6 10.3231M9.53704 13.5963C9.55383 13.5431 9.56223 13.481 9.57903 13.4278C9.7302 13.3568 9.88977 13.277 10.0493 13.2326C10.3685 13.1351 10.6036 12.9488 10.7044 12.6028C10.9815 11.6714 11.6786 11.361 12.5184 11.3077C13.3835 11.2456 14.1477 11.4763 14.6348 12.3278C14.8952 12.7891 15.1471 13.2504 15.4159 13.7028C16.6084 15.7252 17.9438 17.6235 19.5394 19.3089C19.8922 19.6815 20.2785 20.0806 20.7236 20.3024C21.8406 20.8524 23.0163 21.2161 24.2509 21.358C26.2245 21.5886 28.1477 21.4201 30.0289 20.7282C31.1627 20.3113 32.2041 19.717 33.2119 19.0339C33.3127 18.963 33.4555 18.9718 33.573 18.9364C33.5982 19.0694 33.6738 19.2291 33.6318 19.3355C33.5058 19.6283 33.3799 19.9565 33.1615 20.1694C32.6156 20.6927 32.0193 21.154 31.4483 21.6507C31.2047 21.8636 30.936 22.0765 31.0703 22.4757C31.1963 22.8394 31.4818 22.9458 31.8178 22.9369C32.0949 22.9369 32.3637 22.9369 32.6408 22.9369C33.1111 22.9369 33.2875 23.1676 33.0271 23.5756C32.792 23.9393 32.4812 24.2941 32.1201 24.507C31.633 24.7909 31.0787 24.9594 30.5412 25.128C30.1969 25.2344 29.9198 25.4739 29.9618 25.7932C29.9953 26.0594 30.2725 26.3432 30.516 26.494C30.7092 26.6271 31.0115 26.565 31.2551 26.6182C31.3727 26.6448 31.549 26.7246 31.5742 26.8133C31.5994 26.9198 31.5154 27.1061 31.4315 27.177C31.1039 27.4343 30.768 27.6827 30.4069 27.8867C29.3487 28.4899 28.1813 28.7294 27.0055 28.9511C24.9815 29.3326 22.9911 29.235 21.0427 28.552C18.4393 27.6383 16.6 25.7932 15.3739 23.2385C15.1807 22.8394 15.0547 22.4047 14.87 22.0055C14.7356 21.7217 14.4753 21.6685 14.2149 21.766C13.9378 21.8725 13.7446 22.0765 13.7782 22.4136C13.795 22.5999 13.8454 22.7773 13.9042 22.9547C14.576 24.9594 15.7938 26.5472 17.3139 27.8955C18.708 29.1285 20.3289 29.918 22.0925 30.2462C23.4866 30.5035 24.9144 30.6986 26.3505 30.3704C26.6612 30.2994 26.9971 30.3704 27.3247 30.3704C27.3247 30.4236 27.3331 30.4769 27.3415 30.5301C27.2155 30.6277 27.0979 30.7252 26.9803 30.8139C26.888 30.8849 26.7872 30.9559 26.6864 31.0091C24.822 31.9405 22.8652 32.3219 20.8244 32.0824C19.8754 31.9671 18.9264 31.8252 17.9941 31.6123C16.8184 31.3462 15.735 30.8139 14.8028 30.0067C12.888 28.3391 12.0481 26.0771 11.5778 23.5845C11.3259 22.2628 11.2923 20.9233 11.3007 19.5839C11.3007 18.9541 11.0655 18.6791 10.4776 18.6436C10.1417 18.617 10.0745 18.4573 10.1249 18.1646C10.1585 18.005 10.2257 17.8542 10.2509 17.6856C10.4273 16.7542 10.6288 15.8317 10.7464 14.9003C10.8304 14.2616 10.6792 14.1197 10.0997 13.9245C9.90656 13.8624 9.7386 13.7116 9.56223 13.6052M9.08353 8.6111C9.2263 9.11672 9.42786 9.91506 9.68821 10.6868C9.96535 11.4851 9.78899 11.9021 9.00794 12.177C8.54604 12.3367 8.08413 12.5141 7.63902 12.7093C7.25269 12.8778 6.98395 13.2238 7.00075 13.6584C7.01754 14.0931 7.29469 14.4035 7.7062 14.5366C8.05893 14.6519 8.41166 14.7761 8.75599 14.9003C9.31028 15.0954 9.41106 15.2019 9.29349 15.7962C9.09193 16.8252 8.83998 17.8364 8.57123 18.8476C8.33608 19.7081 8.60482 20.2403 9.44466 20.3379C9.87297 20.3822 9.96535 20.5508 9.99055 20.9943C10.1081 22.9724 10.3853 24.9417 11.0991 26.7867C12.1405 29.4745 13.8202 31.5324 16.4908 32.5348C16.8604 32.6679 17.2299 32.7743 17.6078 32.8985C18.1789 33.0759 18.2041 33.1203 18.1201 33.7146C18.0865 33.9186 18.0529 34.1226 18.0361 34.3267C18.0109 34.646 18.1033 34.9121 18.4309 34.9919C18.75 35.0718 19.0187 34.9476 19.1531 34.6194C19.2707 34.3355 19.3631 34.0428 19.4723 33.7501C19.5982 33.413 19.9762 33.2888 20.4717 33.4041C20.8832 33.4928 20.8076 33.8122 20.7488 34.0872C20.6396 34.5662 20.4884 35.0274 20.3625 35.5064C20.2449 35.9322 20.4297 36.3757 20.7488 36.4822C21.0679 36.5798 21.3955 36.3669 21.5382 35.9233C21.7398 35.3024 21.9582 34.6815 22.1009 34.0428C22.1933 33.6259 22.3781 33.4573 22.7728 33.4307C24.3769 33.342 25.8886 32.9074 27.3247 32.1445C28.1897 31.6832 28.9708 31.0889 29.5502 30.264C29.9282 29.7317 30.4153 29.4035 30.9276 29.0665C31.633 28.6052 32.3049 28.0641 32.918 27.4609C33.3547 27.0351 33.5562 26.4497 33.3295 25.7666C33.2707 25.5892 33.3547 25.261 33.4806 25.1191C34.1525 24.4183 34.5304 23.5756 34.5724 22.591C34.5892 22.2717 34.4884 21.8991 34.3121 21.6419C34.1021 21.3314 34.0853 21.1185 34.2953 20.8258C34.69 20.2758 35.0259 19.6726 35.0007 18.963C34.9839 18.5194 34.9 18.0582 34.732 17.659C34.4297 16.9139 33.9342 16.834 33.2623 17.3131C32.5652 17.8098 31.8766 18.3154 31.1459 18.7412C29.1387 19.8944 26.972 20.3822 24.696 20.0984C23.4279 19.9387 22.1261 19.717 21.0511 18.9186C20.4549 18.4751 19.9258 17.8896 19.4723 17.2776C18.4309 15.8672 17.4483 14.3947 16.4405 12.9576C16.2305 12.6649 16.2641 12.4786 16.558 12.2569C17.0871 11.8666 17.5574 11.4053 17.7842 10.7311C17.9857 10.1191 17.8514 9.52476 17.3139 9.18768C16.9696 8.97479 16.5748 8.80625 16.1801 8.71755C15.8358 8.64658 15.7182 8.51353 15.6342 8.14096C15.5418 7.71518 15.3319 7.28053 15.0547 6.96119C14.6012 6.42009 13.8622 6.39348 13.2911 6.79265C13.1651 6.88135 13.0391 6.99667 12.93 7.10312C12.3421 7.66196 12.3505 7.65309 11.7458 7.14747C11.2755 6.7483 10.738 6.48218 10.1165 6.69507C9.43626 6.92571 9.09193 7.51116 9.07513 8.61997" fill="#82653E"/>
</g>
<defs>
<clipPath id="clip0_2_199">
<rect width="28" height="30" fill="white" transform="translate(7 6.5)"/>
</clipPath>
</defs>
</svg>
