<svg width="42" height="42" viewBox="0 0 42 42" fill="none" xmlns="http://www.w3.org/2000/svg">
<circle cx="21" cy="21" r="20.5" stroke="#D5CDBD"/>
<mask id="path-2-outside-1_44_270" maskUnits="userSpaceOnUse" x="7.24219" y="8.5" width="29" height="27" fill="black">
<rect fill="white" x="7.24219" y="8.5" width="29" height="27"/>
<path d="M22.2503 13.0938C22.5303 13.5521 22.7856 13.9688 23.0327 14.3855C23.0985 14.4938 23.1644 14.6105 23.2138 14.7271C23.3621 15.0438 23.2797 15.3355 23.0162 15.4688C22.7444 15.6105 22.4727 15.5105 22.308 15.2021C21.748 14.1521 21.0891 13.1771 20.2903 12.3021C19.7056 11.6688 19.0633 11.1188 18.2644 10.7855C17.4903 10.4605 16.7327 10.4855 15.975 10.8438C15.1103 11.2521 14.3938 11.8688 13.8174 12.6188C13.1997 13.4188 12.6727 14.2771 12.0962 15.1105C12.0056 15.2438 11.9068 15.4355 11.775 15.4688C11.6103 15.5188 11.388 15.4771 11.2397 15.3938C11.0338 15.2688 11.0009 15.0271 11.1162 14.8105C11.2891 14.4771 11.4785 14.1521 11.668 13.8188C11.7091 13.7521 11.7421 13.6855 11.8244 13.5271C11.4868 13.6521 11.215 13.7271 10.968 13.8521C10.5233 14.0938 10.0538 14.3271 9.66678 14.6521C9.11502 15.1105 9.13149 15.6105 9.70796 16.0438C10.1444 16.3688 10.6303 16.6605 11.1327 16.8688C12.2609 17.3438 13.4633 17.5688 14.6738 17.7188C16.1562 17.9021 17.6385 17.9438 19.1209 17.8355C20.595 17.7188 22.0527 17.5105 23.4527 17.0188C23.5268 16.9938 23.6009 16.9605 23.675 16.9438C23.9797 16.8771 24.2268 17.0105 24.3091 17.2855C24.3915 17.5521 24.268 17.8355 23.9715 17.9188C23.1891 18.1521 22.4068 18.4021 21.608 18.5605C19.6974 18.9271 17.7538 19.0105 15.8185 18.8688C13.768 18.7188 11.7585 18.3855 9.83972 17.4771C9.89737 17.5771 9.94678 17.6855 10.0127 17.7855C10.688 18.8521 11.6268 19.6271 12.7221 20.2105C14.5585 21.1938 16.535 21.5438 18.5938 21.4938C21.7644 21.4188 24.5644 20.2355 27.208 18.5605C28.2868 17.8771 29.3738 17.2271 30.4856 16.6021C31.3833 16.1021 32.3715 15.8771 33.4091 15.9105C33.9362 15.9271 34.4715 15.9105 35.0068 15.9105C35.1056 15.9105 35.2044 15.9105 35.3033 15.9355C35.575 15.9938 35.7397 16.2105 35.7233 16.4688C35.7068 16.7355 35.5009 16.9438 35.2127 16.9521C34.6609 16.9521 34.1091 16.9771 33.5574 16.9521C32.4868 16.8938 31.5068 17.1771 30.5927 17.7021C29.3821 18.4105 28.2044 19.1605 27.0021 19.8855C25.075 21.0438 23.0491 21.9438 20.8174 22.3021C17.688 22.8105 14.6738 22.5355 11.8821 20.9021C10.3833 20.0188 9.17267 18.8355 8.57972 17.1438C8.39031 16.5938 8.30796 15.9855 8.25031 15.3938C8.19267 14.8521 8.44796 14.3938 8.81855 14.0021C9.37031 13.4355 10.0456 13.0688 10.7703 12.8021C11.3385 12.5938 11.9397 12.4521 12.5162 12.2521C12.6809 12.1938 12.8538 12.1021 12.9691 11.9688C13.5703 11.2938 14.2127 10.6605 14.9868 10.1855C16.4691 9.26881 17.9597 9.26047 19.4009 10.2271C20.0268 10.6521 20.5538 11.2105 21.1385 11.7021C21.2538 11.8021 21.3938 11.8938 21.5338 11.9188C23.2962 12.2438 25.0503 12.5771 26.8127 12.8605C27.595 12.9855 28.3938 13.0688 29.1844 13.0855C31.1197 13.1188 33.0633 13.0938 35.0068 13.0938C35.0974 13.0938 35.188 13.0938 35.2703 13.0938C35.5256 13.1355 35.7233 13.3605 35.7233 13.6105C35.7233 13.8771 35.5174 14.0938 35.2456 14.1271C35.1715 14.1355 35.0891 14.1271 35.0068 14.1271C33.4174 14.1271 31.8362 14.0938 30.255 14.1271C28.3115 14.1771 26.4174 13.8771 24.5315 13.4438C23.848 13.2855 23.1644 13.1855 22.4727 13.0521C22.415 13.0438 22.3574 13.0521 22.2503 13.0521V13.0938Z"/>
<path d="M26.0572 27.8667C26.4854 27.8667 26.823 28.225 26.8148 28.6584C26.8148 29.0834 26.4607 29.4417 26.0407 29.4417C25.6207 29.4417 25.2419 29.0584 25.2583 28.6334C25.2748 28.2084 25.6289 27.8667 26.0489 27.8667H26.0572Z"/>
<path d="M17.7758 25.9417C17.7676 26.375 17.3887 26.7333 16.9687 26.7167C16.557 26.7 16.2028 26.325 16.2111 25.9167C16.2111 25.4917 16.6064 25.125 17.0181 25.1417C17.4299 25.1583 17.7758 25.525 17.7676 25.9417H17.7758Z"/>
<path d="M12.1882 33.0337C12.6164 33.0337 12.9541 33.3837 12.9541 33.8171C12.9541 34.2421 12.6082 34.6087 12.1964 34.6087C11.7682 34.6087 11.4141 34.2504 11.4141 33.8004C11.4141 33.3754 11.7682 33.0254 12.1882 33.0254V33.0337Z"/>
<path d="M20.5703 29.1915C20.5703 28.7499 20.8997 28.4082 21.328 28.4082C21.7562 28.4082 22.1021 28.7332 22.1021 29.1749C22.1021 29.6249 21.7562 29.9832 21.328 29.9832C20.908 29.9832 20.5703 29.6332 20.5703 29.1915Z"/>
<path d="M9.04703 26.4417C9.04703 26.0083 9.40115 25.6583 9.82115 25.6666C10.2494 25.675 10.5788 26.025 10.5788 26.4583C10.5788 26.9 10.2164 27.2583 9.78821 27.2417C9.35997 27.225 9.03879 26.875 9.04703 26.4417Z"/>
<path d="M18.8359 32.3752C18.8359 31.9418 19.1818 31.5918 19.6018 31.5835C20.0301 31.5835 20.3924 31.9502 20.3842 32.3835C20.3842 32.8085 20.0136 33.1668 19.6018 33.1585C19.1818 33.1585 18.8359 32.7918 18.8359 32.3668V32.3752Z"/>
<path d="M10.797 23.2584C10.797 22.8334 11.1511 22.4917 11.5711 22.4917C11.9911 22.4917 12.337 22.8417 12.337 23.2667C12.337 23.7167 11.9747 24.0667 11.5464 24.05C11.1182 24.0334 10.7888 23.6917 10.797 23.2584Z"/>
<path d="M23.72 25.1501C23.2835 25.1501 22.9459 24.8251 22.9377 24.3918C22.9294 23.9418 23.2588 23.5918 23.7035 23.5918C24.1318 23.5918 24.4694 23.9251 24.4777 24.3585C24.4777 24.7918 24.1482 25.1335 23.72 25.1418V25.1501Z"/>
<path d="M13.7825 28.5001C14.2025 28.5001 14.5401 28.8502 14.5401 29.2835C14.5401 29.7168 14.2025 30.0668 13.7743 30.0668C13.3378 30.0668 12.9919 29.7085 13.0001 29.2668C13.0001 28.8335 13.3543 28.4918 13.7743 28.5001H13.7825Z"/>
<path d="M25.9853 33.8004C25.9853 34.2337 25.6312 34.6087 25.2112 34.6087C24.7994 34.6087 24.4535 34.2421 24.4453 33.8171C24.4453 33.3837 24.783 33.0337 25.203 33.0254C25.623 33.0254 25.9771 33.3671 25.9853 33.7921V33.8004Z"/>
</mask>
<path d="M22.2503 13.0938C22.5303 13.5521 22.7856 13.9688 23.0327 14.3855C23.0985 14.4938 23.1644 14.6105 23.2138 14.7271C23.3621 15.0438 23.2797 15.3355 23.0162 15.4688C22.7444 15.6105 22.4727 15.5105 22.308 15.2021C21.748 14.1521 21.0891 13.1771 20.2903 12.3021C19.7056 11.6688 19.0633 11.1188 18.2644 10.7855C17.4903 10.4605 16.7327 10.4855 15.975 10.8438C15.1103 11.2521 14.3938 11.8688 13.8174 12.6188C13.1997 13.4188 12.6727 14.2771 12.0962 15.1105C12.0056 15.2438 11.9068 15.4355 11.775 15.4688C11.6103 15.5188 11.388 15.4771 11.2397 15.3938C11.0338 15.2688 11.0009 15.0271 11.1162 14.8105C11.2891 14.4771 11.4785 14.1521 11.668 13.8188C11.7091 13.7521 11.7421 13.6855 11.8244 13.5271C11.4868 13.6521 11.215 13.7271 10.968 13.8521C10.5233 14.0938 10.0538 14.3271 9.66678 14.6521C9.11502 15.1105 9.13149 15.6105 9.70796 16.0438C10.1444 16.3688 10.6303 16.6605 11.1327 16.8688C12.2609 17.3438 13.4633 17.5688 14.6738 17.7188C16.1562 17.9021 17.6385 17.9438 19.1209 17.8355C20.595 17.7188 22.0527 17.5105 23.4527 17.0188C23.5268 16.9938 23.6009 16.9605 23.675 16.9438C23.9797 16.8771 24.2268 17.0105 24.3091 17.2855C24.3915 17.5521 24.268 17.8355 23.9715 17.9188C23.1891 18.1521 22.4068 18.4021 21.608 18.5605C19.6974 18.9271 17.7538 19.0105 15.8185 18.8688C13.768 18.7188 11.7585 18.3855 9.83972 17.4771C9.89737 17.5771 9.94678 17.6855 10.0127 17.7855C10.688 18.8521 11.6268 19.6271 12.7221 20.2105C14.5585 21.1938 16.535 21.5438 18.5938 21.4938C21.7644 21.4188 24.5644 20.2355 27.208 18.5605C28.2868 17.8771 29.3738 17.2271 30.4856 16.6021C31.3833 16.1021 32.3715 15.8771 33.4091 15.9105C33.9362 15.9271 34.4715 15.9105 35.0068 15.9105C35.1056 15.9105 35.2044 15.9105 35.3033 15.9355C35.575 15.9938 35.7397 16.2105 35.7233 16.4688C35.7068 16.7355 35.5009 16.9438 35.2127 16.9521C34.6609 16.9521 34.1091 16.9771 33.5574 16.9521C32.4868 16.8938 31.5068 17.1771 30.5927 17.7021C29.3821 18.4105 28.2044 19.1605 27.0021 19.8855C25.075 21.0438 23.0491 21.9438 20.8174 22.3021C17.688 22.8105 14.6738 22.5355 11.8821 20.9021C10.3833 20.0188 9.17267 18.8355 8.57972 17.1438C8.39031 16.5938 8.30796 15.9855 8.25031 15.3938C8.19267 14.8521 8.44796 14.3938 8.81855 14.0021C9.37031 13.4355 10.0456 13.0688 10.7703 12.8021C11.3385 12.5938 11.9397 12.4521 12.5162 12.2521C12.6809 12.1938 12.8538 12.1021 12.9691 11.9688C13.5703 11.2938 14.2127 10.6605 14.9868 10.1855C16.4691 9.26881 17.9597 9.26047 19.4009 10.2271C20.0268 10.6521 20.5538 11.2105 21.1385 11.7021C21.2538 11.8021 21.3938 11.8938 21.5338 11.9188C23.2962 12.2438 25.0503 12.5771 26.8127 12.8605C27.595 12.9855 28.3938 13.0688 29.1844 13.0855C31.1197 13.1188 33.0633 13.0938 35.0068 13.0938C35.0974 13.0938 35.188 13.0938 35.2703 13.0938C35.5256 13.1355 35.7233 13.3605 35.7233 13.6105C35.7233 13.8771 35.5174 14.0938 35.2456 14.1271C35.1715 14.1355 35.0891 14.1271 35.0068 14.1271C33.4174 14.1271 31.8362 14.0938 30.255 14.1271C28.3115 14.1771 26.4174 13.8771 24.5315 13.4438C23.848 13.2855 23.1644 13.1855 22.4727 13.0521C22.415 13.0438 22.3574 13.0521 22.2503 13.0521V13.0938Z" fill="#82653E"/>
<path d="M26.0572 27.8667C26.4854 27.8667 26.823 28.225 26.8148 28.6584C26.8148 29.0834 26.4607 29.4417 26.0407 29.4417C25.6207 29.4417 25.2419 29.0584 25.2583 28.6334C25.2748 28.2084 25.6289 27.8667 26.0489 27.8667H26.0572Z" fill="#82653E"/>
<path d="M17.7758 25.9417C17.7676 26.375 17.3887 26.7333 16.9687 26.7167C16.557 26.7 16.2028 26.325 16.2111 25.9167C16.2111 25.4917 16.6064 25.125 17.0181 25.1417C17.4299 25.1583 17.7758 25.525 17.7676 25.9417H17.7758Z" fill="#82653E"/>
<path d="M12.1882 33.0337C12.6164 33.0337 12.9541 33.3837 12.9541 33.8171C12.9541 34.2421 12.6082 34.6087 12.1964 34.6087C11.7682 34.6087 11.4141 34.2504 11.4141 33.8004C11.4141 33.3754 11.7682 33.0254 12.1882 33.0254V33.0337Z" fill="#82653E"/>
<path d="M20.5703 29.1915C20.5703 28.7499 20.8997 28.4082 21.328 28.4082C21.7562 28.4082 22.1021 28.7332 22.1021 29.1749C22.1021 29.6249 21.7562 29.9832 21.328 29.9832C20.908 29.9832 20.5703 29.6332 20.5703 29.1915Z" fill="#82653E"/>
<path d="M9.04703 26.4417C9.04703 26.0083 9.40115 25.6583 9.82115 25.6666C10.2494 25.675 10.5788 26.025 10.5788 26.4583C10.5788 26.9 10.2164 27.2583 9.78821 27.2417C9.35997 27.225 9.03879 26.875 9.04703 26.4417Z" fill="#82653E"/>
<path d="M18.8359 32.3752C18.8359 31.9418 19.1818 31.5918 19.6018 31.5835C20.0301 31.5835 20.3924 31.9502 20.3842 32.3835C20.3842 32.8085 20.0136 33.1668 19.6018 33.1585C19.1818 33.1585 18.8359 32.7918 18.8359 32.3668V32.3752Z" fill="#82653E"/>
<path d="M10.797 23.2584C10.797 22.8334 11.1511 22.4917 11.5711 22.4917C11.9911 22.4917 12.337 22.8417 12.337 23.2667C12.337 23.7167 11.9747 24.0667 11.5464 24.05C11.1182 24.0334 10.7888 23.6917 10.797 23.2584Z" fill="#82653E"/>
<path d="M23.72 25.1501C23.2835 25.1501 22.9459 24.8251 22.9377 24.3918C22.9294 23.9418 23.2588 23.5918 23.7035 23.5918C24.1318 23.5918 24.4694 23.9251 24.4777 24.3585C24.4777 24.7918 24.1482 25.1335 23.72 25.1418V25.1501Z" fill="#82653E"/>
<path d="M13.7825 28.5001C14.2025 28.5001 14.5401 28.8502 14.5401 29.2835C14.5401 29.7168 14.2025 30.0668 13.7743 30.0668C13.3378 30.0668 12.9919 29.7085 13.0001 29.2668C13.0001 28.8335 13.3543 28.4918 13.7743 28.5001H13.7825Z" fill="#82653E"/>
<path d="M25.9853 33.8004C25.9853 34.2337 25.6312 34.6087 25.2112 34.6087C24.7994 34.6087 24.4535 34.2421 24.4453 33.8171C24.4453 33.3837 24.783 33.0337 25.203 33.0254C25.623 33.0254 25.9771 33.3671 25.9853 33.7921V33.8004Z" fill="#82653E"/>
<path d="M22.2503 13.0938C22.5303 13.5521 22.7856 13.9688 23.0327 14.3855C23.0985 14.4938 23.1644 14.6105 23.2138 14.7271C23.3621 15.0438 23.2797 15.3355 23.0162 15.4688C22.7444 15.6105 22.4727 15.5105 22.308 15.2021C21.748 14.1521 21.0891 13.1771 20.2903 12.3021C19.7056 11.6688 19.0633 11.1188 18.2644 10.7855C17.4903 10.4605 16.7327 10.4855 15.975 10.8438C15.1103 11.2521 14.3938 11.8688 13.8174 12.6188C13.1997 13.4188 12.6727 14.2771 12.0962 15.1105C12.0056 15.2438 11.9068 15.4355 11.775 15.4688C11.6103 15.5188 11.388 15.4771 11.2397 15.3938C11.0338 15.2688 11.0009 15.0271 11.1162 14.8105C11.2891 14.4771 11.4785 14.1521 11.668 13.8188C11.7091 13.7521 11.7421 13.6855 11.8244 13.5271C11.4868 13.6521 11.215 13.7271 10.968 13.8521C10.5233 14.0938 10.0538 14.3271 9.66678 14.6521C9.11502 15.1105 9.13149 15.6105 9.70796 16.0438C10.1444 16.3688 10.6303 16.6605 11.1327 16.8688C12.2609 17.3438 13.4633 17.5688 14.6738 17.7188C16.1562 17.9021 17.6385 17.9438 19.1209 17.8355C20.595 17.7188 22.0527 17.5105 23.4527 17.0188C23.5268 16.9938 23.6009 16.9605 23.675 16.9438C23.9797 16.8771 24.2268 17.0105 24.3091 17.2855C24.3915 17.5521 24.268 17.8355 23.9715 17.9188C23.1891 18.1521 22.4068 18.4021 21.608 18.5605C19.6974 18.9271 17.7538 19.0105 15.8185 18.8688C13.768 18.7188 11.7585 18.3855 9.83972 17.4771C9.89737 17.5771 9.94678 17.6855 10.0127 17.7855C10.688 18.8521 11.6268 19.6271 12.7221 20.2105C14.5585 21.1938 16.535 21.5438 18.5938 21.4938C21.7644 21.4188 24.5644 20.2355 27.208 18.5605C28.2868 17.8771 29.3738 17.2271 30.4856 16.6021C31.3833 16.1021 32.3715 15.8771 33.4091 15.9105C33.9362 15.9271 34.4715 15.9105 35.0068 15.9105C35.1056 15.9105 35.2044 15.9105 35.3033 15.9355C35.575 15.9938 35.7397 16.2105 35.7233 16.4688C35.7068 16.7355 35.5009 16.9438 35.2127 16.9521C34.6609 16.9521 34.1091 16.9771 33.5574 16.9521C32.4868 16.8938 31.5068 17.1771 30.5927 17.7021C29.3821 18.4105 28.2044 19.1605 27.0021 19.8855C25.075 21.0438 23.0491 21.9438 20.8174 22.3021C17.688 22.8105 14.6738 22.5355 11.8821 20.9021C10.3833 20.0188 9.17267 18.8355 8.57972 17.1438C8.39031 16.5938 8.30796 15.9855 8.25031 15.3938C8.19267 14.8521 8.44796 14.3938 8.81855 14.0021C9.37031 13.4355 10.0456 13.0688 10.7703 12.8021C11.3385 12.5938 11.9397 12.4521 12.5162 12.2521C12.6809 12.1938 12.8538 12.1021 12.9691 11.9688C13.5703 11.2938 14.2127 10.6605 14.9868 10.1855C16.4691 9.26881 17.9597 9.26047 19.4009 10.2271C20.0268 10.6521 20.5538 11.2105 21.1385 11.7021C21.2538 11.8021 21.3938 11.8938 21.5338 11.9188C23.2962 12.2438 25.0503 12.5771 26.8127 12.8605C27.595 12.9855 28.3938 13.0688 29.1844 13.0855C31.1197 13.1188 33.0633 13.0938 35.0068 13.0938C35.0974 13.0938 35.188 13.0938 35.2703 13.0938C35.5256 13.1355 35.7233 13.3605 35.7233 13.6105C35.7233 13.8771 35.5174 14.0938 35.2456 14.1271C35.1715 14.1355 35.0891 14.1271 35.0068 14.1271C33.4174 14.1271 31.8362 14.0938 30.255 14.1271C28.3115 14.1771 26.4174 13.8771 24.5315 13.4438C23.848 13.2855 23.1644 13.1855 22.4727 13.0521C22.415 13.0438 22.3574 13.0521 22.2503 13.0521V13.0938Z" stroke="#82653E" stroke-width="0.6" mask="url(#path-2-outside-1_44_270)"/>
<path d="M26.0572 27.8667C26.4854 27.8667 26.823 28.225 26.8148 28.6584C26.8148 29.0834 26.4607 29.4417 26.0407 29.4417C25.6207 29.4417 25.2419 29.0584 25.2583 28.6334C25.2748 28.2084 25.6289 27.8667 26.0489 27.8667H26.0572Z" stroke="#82653E" stroke-width="0.6" mask="url(#path-2-outside-1_44_270)"/>
<path d="M17.7758 25.9417C17.7676 26.375 17.3887 26.7333 16.9687 26.7167C16.557 26.7 16.2028 26.325 16.2111 25.9167C16.2111 25.4917 16.6064 25.125 17.0181 25.1417C17.4299 25.1583 17.7758 25.525 17.7676 25.9417H17.7758Z" stroke="#82653E" stroke-width="0.6" mask="url(#path-2-outside-1_44_270)"/>
<path d="M12.1882 33.0337C12.6164 33.0337 12.9541 33.3837 12.9541 33.8171C12.9541 34.2421 12.6082 34.6087 12.1964 34.6087C11.7682 34.6087 11.4141 34.2504 11.4141 33.8004C11.4141 33.3754 11.7682 33.0254 12.1882 33.0254V33.0337Z" stroke="#82653E" stroke-width="0.6" mask="url(#path-2-outside-1_44_270)"/>
<path d="M20.5703 29.1915C20.5703 28.7499 20.8997 28.4082 21.328 28.4082C21.7562 28.4082 22.1021 28.7332 22.1021 29.1749C22.1021 29.6249 21.7562 29.9832 21.328 29.9832C20.908 29.9832 20.5703 29.6332 20.5703 29.1915Z" stroke="#82653E" stroke-width="0.6" mask="url(#path-2-outside-1_44_270)"/>
<path d="M9.04703 26.4417C9.04703 26.0083 9.40115 25.6583 9.82115 25.6666C10.2494 25.675 10.5788 26.025 10.5788 26.4583C10.5788 26.9 10.2164 27.2583 9.78821 27.2417C9.35997 27.225 9.03879 26.875 9.04703 26.4417Z" stroke="#82653E" stroke-width="0.6" mask="url(#path-2-outside-1_44_270)"/>
<path d="M18.8359 32.3752C18.8359 31.9418 19.1818 31.5918 19.6018 31.5835C20.0301 31.5835 20.3924 31.9502 20.3842 32.3835C20.3842 32.8085 20.0136 33.1668 19.6018 33.1585C19.1818 33.1585 18.8359 32.7918 18.8359 32.3668V32.3752Z" stroke="#82653E" stroke-width="0.6" mask="url(#path-2-outside-1_44_270)"/>
<path d="M10.797 23.2584C10.797 22.8334 11.1511 22.4917 11.5711 22.4917C11.9911 22.4917 12.337 22.8417 12.337 23.2667C12.337 23.7167 11.9747 24.0667 11.5464 24.05C11.1182 24.0334 10.7888 23.6917 10.797 23.2584Z" stroke="#82653E" stroke-width="0.6" mask="url(#path-2-outside-1_44_270)"/>
<path d="M23.72 25.1501C23.2835 25.1501 22.9459 24.8251 22.9377 24.3918C22.9294 23.9418 23.2588 23.5918 23.7035 23.5918C24.1318 23.5918 24.4694 23.9251 24.4777 24.3585C24.4777 24.7918 24.1482 25.1335 23.72 25.1418V25.1501Z" stroke="#82653E" stroke-width="0.6" mask="url(#path-2-outside-1_44_270)"/>
<path d="M13.7825 28.5001C14.2025 28.5001 14.5401 28.8502 14.5401 29.2835C14.5401 29.7168 14.2025 30.0668 13.7743 30.0668C13.3378 30.0668 12.9919 29.7085 13.0001 29.2668C13.0001 28.8335 13.3543 28.4918 13.7743 28.5001H13.7825Z" stroke="#82653E" stroke-width="0.6" mask="url(#path-2-outside-1_44_270)"/>
<path d="M25.9853 33.8004C25.9853 34.2337 25.6312 34.6087 25.2112 34.6087C24.7994 34.6087 24.4535 34.2421 24.4453 33.8171C24.4453 33.3837 24.783 33.0337 25.203 33.0254C25.623 33.0254 25.9771 33.3671 25.9853 33.7921V33.8004Z" stroke="#82653E" stroke-width="0.6" mask="url(#path-2-outside-1_44_270)"/>
</svg>
