<svg width="247" height="33" viewBox="0 0 247 33" fill="none" xmlns="http://www.w3.org/2000/svg">
<path d="M63.5376 26.791C59.9246 26.791 57.1782 25.9066 55.2851 24.111C53.3919 22.3288 52.4453 19.7828 52.4453 16.473C52.4453 13.056 53.4186 10.4162 55.3784 8.56699C57.3249 6.71779 60.1779 5.77979 63.9376 5.77979C65.1908 5.77979 66.3374 5.86018 67.3506 6.00758C68.3639 6.15498 69.3238 6.38278 70.2303 6.67758V11.7696C69.3104 11.4078 68.3505 11.1666 67.3639 11.046C66.3774 10.9254 65.3641 10.8584 64.3376 10.8584C62.3911 10.8584 60.9245 11.3006 59.9513 12.185C58.978 13.0694 58.4848 14.5032 58.4848 16.4864C58.4848 18.349 58.9114 19.6756 59.7646 20.5064C60.6179 21.3238 61.8711 21.7392 63.5243 21.7392C64.0709 21.7392 64.5775 21.699 65.0708 21.632C65.5508 21.565 66.0041 21.4578 66.4307 21.3372V18.3624H62.4044V14.6908H71.3769V24.9418C70.6036 25.4242 69.5637 25.853 68.2705 26.2416C66.9906 26.6034 65.4041 26.791 63.5376 26.791Z" fill="#82653E"/>
<path d="M83.6325 26.791C80.2728 26.791 77.713 25.9736 75.9399 24.3254C74.1667 22.6772 73.2734 20.024 73.2734 16.3524C73.2734 13.8198 73.6734 11.783 74.4733 10.2286C75.2733 8.67418 76.4465 7.54858 77.9797 6.83838C79.5262 6.12818 81.406 5.77979 83.6325 5.77979C85.859 5.77979 87.7388 6.12818 89.2853 6.83838C90.8318 7.54858 91.9917 8.67418 92.7917 10.2286C93.5916 11.783 93.9915 13.8198 93.9915 16.3524C93.9915 20.024 93.0983 22.6772 91.3118 24.3254C89.5253 25.9602 86.9655 26.791 83.6325 26.791ZM83.6325 21.7258C85.139 21.7258 86.2456 21.297 86.9255 20.4394C87.6055 19.5818 87.9521 18.215 87.9521 16.339C87.9521 14.329 87.6055 12.922 86.9255 12.0778C86.2456 11.247 85.1524 10.8316 83.6325 10.8316C82.1126 10.8316 81.0194 11.247 80.3395 12.0778C79.6595 12.9086 79.3129 14.329 79.3129 16.339C79.3129 18.215 79.6595 19.5818 80.3395 20.4394C81.0194 21.297 82.1126 21.7258 83.6325 21.7258Z" fill="#82653E"/>
<path d="M96.4922 26.4696V6.10156H102.412V21.927H111.544V26.483H96.4922V26.4696Z" fill="#82653E"/>
<path d="M113.438 26.4696V6.10156H122.503C124.583 6.10156 126.356 6.44996 127.823 7.13336C129.289 7.81676 130.409 8.91556 131.196 10.4298C131.969 11.944 132.356 13.9406 132.356 16.4196C132.356 19.917 131.503 22.4764 129.809 24.071C128.103 25.679 125.676 26.4696 122.503 26.4696H113.438ZM119.357 21.9136H121.743C122.73 21.9136 123.557 21.7662 124.237 21.4848C124.903 21.2034 125.423 20.6674 125.783 19.8768C126.143 19.0862 126.316 17.9338 126.316 16.4062C126.316 14.8786 126.156 13.7128 125.823 12.882C125.503 12.0512 124.996 11.475 124.33 11.14C123.663 10.8184 122.797 10.6442 121.743 10.6442H119.357V21.9136Z" fill="#82653E"/>
<path d="M134.875 26.4696V6.10156H150.234V10.6576H140.781V13.9808H149.06V18.6038H140.781V21.927H150.22V26.483H134.875V26.4696Z" fill="#82653E"/>
<path d="M152.438 26.4696V6.10156H157.477L165.13 16.8886V6.10156H171.049V26.483H165.983L158.37 15.7228V26.483H152.438V26.4696Z" fill="#82653E"/>
<path d="M180.953 26.4696V6.10156H186.713L191.752 16.4464L196.752 6.10156H202.484V26.483H196.565V16.299L193.325 23.0124H190.152L186.873 16.299V26.483H180.953V26.4696Z" fill="#82653E"/>
<path d="M205.633 26.4696V6.10156H211.552V26.483H205.633V26.4696Z" fill="#82653E"/>
<path d="M214.695 26.4696V6.10156H220.615V21.927H229.747V26.483H214.695V26.4696Z" fill="#82653E"/>
<path d="M231.641 26.4696V6.10156H237.56V21.927H246.693V26.483H231.641V26.4696Z" fill="#82653E"/>
<path d="M17.7714 17.076L31.0902 32.62H23.0776C19.358 32.62 16.3316 29.5782 16.3316 25.8396V17.1028H0.999648C0.999648 17.1028 0.719673 16.138 0.626348 15.8298C-0.800188 10.8852 3.05279 9.62561 6.14584 11.0996L16.2383 15.8968L5.58589 0.366211L11.652 1.15681C15.0117 1.59901 17.5315 4.46661 17.5315 7.88361V15.8834H32.9301C34.6499 20.5466 31.0636 22.5164 27.7705 21.163L17.7714 17.076Z" fill="#82653E"/>
<path d="M13.4113 20.547L1.59909 32.4193C1.13247 32.1513 0.8125 31.6555 0.8125 31.0793V21.2973C0.8125 20.4397 1.49244 19.7563 2.34569 19.7563H12.0781C12.6381 19.7563 13.1447 20.078 13.4113 20.547Z" fill="#4290BE"/>
<path d="M13.6138 21.3109V31.0929C13.6138 31.9371 12.9205 32.6339 12.0806 32.6339H2.34816C2.06819 32.6339 1.81488 32.5669 1.60156 32.4329L13.4138 20.5605C13.5338 20.7749 13.6138 21.0295 13.6138 21.3109Z" fill="#265B83"/>
<path d="M41.5966 0.379883H24.9714H24.9181C24.1982 0.433483 23.5182 0.661284 23.0116 1.17048L21.8251 2.36308C21.8251 2.36308 21.8251 2.36308 21.8251 2.37648L20.6518 3.55568C20.3452 3.86388 20.1719 4.27928 20.1719 4.72148V11.7163C20.1719 12.2925 20.4918 12.8017 20.9585 13.0563L26.4646 7.42828C26.8513 7.03968 27.3712 6.82528 27.9178 6.82528H43.1164V1.93428C43.1298 1.06328 42.4365 0.379883 41.5966 0.379883Z" fill="#4290BE"/>
<path d="M27.9281 6.81174C27.3815 6.81174 26.8615 7.02614 26.4749 7.41474L20.9688 13.0427C21.1821 13.1633 21.4354 13.2303 21.702 13.2303H41.5935C42.4335 13.2303 43.1267 12.5469 43.1267 11.6893V6.79834H27.9281V6.81174Z" fill="#265B83"/>
</svg>
