<svg width="44" height="33" viewBox="0 0 44 33" fill="none" xmlns="http://www.w3.org/2000/svg">
<path d="M17.7714 17.076L31.0902 32.62H23.0776C19.358 32.62 16.3316 29.5782 16.3316 25.8396V17.1028H0.999648C0.999648 17.1028 0.719673 16.138 0.626348 15.8298C-0.800188 10.8852 3.05279 9.62561 6.14584 11.0996L16.2383 15.8968L5.58589 0.366211L11.652 1.15681C15.0117 1.59901 17.5315 4.46661 17.5315 7.88361V15.8834H32.9301C34.6499 20.5466 31.0636 22.5164 27.7705 21.163L17.7714 17.076Z" fill="#82653E"/>
<path d="M13.4113 20.547L1.59909 32.4193C1.13247 32.1513 0.8125 31.6555 0.8125 31.0793V21.2973C0.8125 20.4397 1.49244 19.7563 2.34569 19.7563H12.0781C12.6381 19.7563 13.1447 20.078 13.4113 20.547Z" fill="#4290BE"/>
<path d="M13.6138 21.3109V31.0929C13.6138 31.9371 12.9205 32.6339 12.0806 32.6339H2.34816C2.06819 32.6339 1.81488 32.5669 1.60156 32.4329L13.4138 20.5605C13.5338 20.7749 13.6138 21.0295 13.6138 21.3109Z" fill="#265B83"/>
<path d="M41.5966 0.379883H24.9714H24.9181C24.1982 0.433483 23.5182 0.661284 23.0116 1.17048L21.8251 2.36308C21.8251 2.36308 21.8251 2.36308 21.8251 2.37648L20.6518 3.55568C20.3452 3.86388 20.1719 4.27928 20.1719 4.72148V11.7163C20.1719 12.2925 20.4918 12.8017 20.9585 13.0563L26.4646 7.42828C26.8513 7.03968 27.3712 6.82528 27.9178 6.82528H43.1164V1.93428C43.1298 1.06328 42.4365 0.379883 41.5966 0.379883Z" fill="#4290BE"/>
<path d="M27.9281 6.81174C27.3815 6.81174 26.8615 7.02614 26.4749 7.41474L20.9688 13.0427C21.1821 13.1633 21.4354 13.2303 21.702 13.2303H41.5935C42.4335 13.2303 43.1267 12.5469 43.1267 11.6893V6.79834H27.9281V6.81174Z" fill="#265B83"/>
</svg>
