<svg width="272" height="12" viewBox="0 0 272 12" fill="none" xmlns="http://www.w3.org/2000/svg">
<path d="M271.53 6.53033C271.823 6.23744 271.823 5.76256 271.53 5.46967L266.757 0.696699C266.464 0.403806 265.989 0.403806 265.697 0.696699C265.404 0.989593 265.404 1.46447 265.697 1.75736L269.939 6L265.697 10.2426C265.404 10.5355 265.404 11.0104 265.697 11.3033C265.989 11.5962 266.464 11.5962 266.757 11.3033L271.53 6.53033ZM0.469543 5.46967C0.176666 5.76256 0.176666 6.23744 0.469543 6.53033L5.24252 11.3033C5.5354 11.5962 6.01028 11.5962 6.30316 11.3033C6.59607 11.0104 6.59607 10.5355 6.30316 10.2426L2.06055 6L6.30316 1.75736C6.59607 1.46447 6.59607 0.989593 6.30316 0.696699C6.01028 0.403806 5.5354 0.403806 5.24252 0.696699L0.469543 5.46967ZM271 5.25H269.5V6.75H271V5.25ZM266.5 5.25H263.5V6.75H266.5V5.25ZM260.5 5.25H257.5V6.75H260.5V5.25ZM254.5 5.25H251.5V6.75H254.5V5.25ZM248.5 5.25H245.5V6.75H248.5V5.25ZM242.5 5.25H239.5V6.75H242.5V5.25ZM236.5 5.25L233.5 5.25V6.75L236.5 6.75V5.25ZM230.5 5.25H227.5V6.75H230.5V5.25ZM224.5 5.25H221.5V6.75H224.5V5.25ZM218.5 5.25H215.5V6.75H218.5V5.25ZM212.5 5.25H209.5V6.75H212.5V5.25ZM206.5 5.25L203.5 5.25V6.75L206.5 6.75V5.25ZM200.5 5.25H197.5V6.75H200.5V5.25ZM194.5 5.25L191.5 5.25V6.75L194.5 6.75V5.25ZM188.5 5.25H185.5V6.75H188.5V5.25ZM182.5 5.25H179.5V6.75H182.5V5.25ZM176.5 5.25L173.5 5.25V6.75L176.5 6.75V5.25ZM170.5 5.25H167.5V6.75H170.5V5.25ZM164.5 5.25L161.5 5.25V6.75L164.5 6.75V5.25ZM158.5 5.25H155.5V6.75H158.5V5.25ZM152.5 5.25H149.5V6.75H152.5V5.25ZM146.5 5.25H143.5V6.75H146.5V5.25ZM140.5 5.25H137.5V6.75H140.5V5.25ZM134.5 5.25L131.5 5.25V6.75L134.5 6.75V5.25ZM128.5 5.25H125.5V6.75H128.5V5.25ZM122.5 5.25H119.5V6.75H122.5V5.25ZM116.5 5.25H113.5V6.75H116.5V5.25ZM110.5 5.25H107.5V6.75H110.5V5.25ZM104.5 5.25H101.5V6.75H104.5V5.25ZM98.4999 5.25H95.4999V6.75H98.4999V5.25ZM92.4999 5.25H89.4999V6.75H92.4999V5.25ZM86.4999 5.25H83.4999V6.75H86.4999V5.25ZM80.4999 5.25H77.4999V6.75H80.4999V5.25ZM74.4999 5.25H71.4999V6.75H74.4999V5.25ZM68.4999 5.25H65.4999V6.75H68.4999V5.25ZM62.4999 5.25L59.4999 5.25V6.75L62.4999 6.75V5.25ZM56.4999 5.25H53.4999V6.75H56.4999V5.25ZM50.4999 5.25H47.4999V6.75H50.4999V5.25ZM44.4999 5.25H41.4999V6.75H44.4999V5.25ZM38.4999 5.25H35.4999V6.75H38.4999V5.25ZM32.4999 5.25L29.4999 5.25V6.75L32.4999 6.75V5.25ZM26.4999 5.25H23.4999V6.75H26.4999V5.25ZM20.4999 5.25L17.4999 5.25V6.75L20.4999 6.75V5.25ZM14.4999 5.25H11.4999V6.75H14.4999V5.25ZM8.49988 5.25H5.49988V6.75H8.49988V5.25ZM2.49988 5.25L0.999878 5.25V6.75L2.49988 6.75V5.25Z" fill="#2C2D2F"/>
</svg>
