<svg width="44" height="33" viewBox="0 0 44 33" fill="none" xmlns="http://www.w3.org/2000/svg">
<path d="M17.7714 17.077L31.0902 32.621H23.0776C19.358 32.621 16.3316 29.5792 16.3316 25.8406V17.1038H0.999648C0.999648 17.1038 0.719673 16.139 0.626348 15.8308C-0.800188 10.8862 3.05279 9.62659 6.14584 11.1006L16.2383 15.8978L5.58589 0.367188L11.652 1.15779C15.0117 1.59999 17.5315 4.46759 17.5315 7.88459V15.8844H32.9301C34.6499 20.5476 31.0636 22.5174 27.7705 21.164L17.7714 17.077Z" fill="#82653E"/>
<path d="M13.4113 20.5484L1.59909 32.4208C1.13247 32.1528 0.8125 31.657 0.8125 31.0808V21.2988C0.8125 20.4412 1.49244 19.7578 2.34569 19.7578H12.0781C12.6381 19.7578 13.1447 20.0794 13.4113 20.5484Z" fill="#4290BE"/>
<path d="M13.6138 21.3109V31.0929C13.6138 31.9371 12.9205 32.6339 12.0806 32.6339H2.34816C2.06819 32.6339 1.81488 32.5669 1.60156 32.4329L13.4138 20.5605C13.5338 20.7749 13.6138 21.0295 13.6138 21.3109Z" fill="#265B83"/>
<path d="M41.5966 0.380859H24.9714H24.9181C24.1982 0.434459 23.5182 0.662261 23.0116 1.17146L21.8251 2.36406C21.8251 2.36406 21.8251 2.36406 21.8251 2.37746L20.6518 3.55666C20.3452 3.86486 20.1719 4.28026 20.1719 4.72246V11.7173C20.1719 12.2935 20.4918 12.8027 20.9585 13.0573L26.4646 7.42926C26.8513 7.04066 27.3712 6.82626 27.9178 6.82626H43.1164V1.93526C43.1298 1.06426 42.4365 0.380859 41.5966 0.380859Z" fill="#4290BE"/>
<path d="M27.9281 6.81223C27.3815 6.81223 26.8615 7.02663 26.4749 7.41523L20.9688 13.0432C21.1821 13.1638 21.4354 13.2308 21.702 13.2308H41.5935C42.4335 13.2308 43.1267 12.5474 43.1267 11.6898V6.79883H27.9281V6.81223Z" fill="#265B83"/>
</svg>
