<svg width="32" height="32" viewBox="0 0 32 32" fill="none" xmlns="http://www.w3.org/2000/svg">
<path d="M9.56118 18.8093L0.701089 27.6057C0.351086 27.4071 0.111084 27.0398 0.111084 26.6129V19.3653C0.111084 18.7299 0.621089 18.2236 1.2611 18.2236H8.56117C8.99118 18.2236 9.36118 18.4619 9.56118 18.8093Z" fill="#4390BD"/>
<path d="M9.7112 19.3654V26.613C9.7112 27.2385 9.1912 27.7547 8.56119 27.7547H1.26112C1.05112 27.7547 0.861112 27.7051 0.701111 27.6058L9.5612 18.8094C9.6512 18.9683 9.7112 19.1569 9.7112 19.3654Z" fill="#265C84"/>
<path d="M31.4614 26.1463C29.1914 29.4623 20.4313 27.4667 11.8912 21.7084C3.35112 15.9302 -1.72893 8.57344 0.541094 5.25744C2.28111 2.72576 8.06117 3.27181 14.6712 6.52824L12.6712 8.43445C10.8712 7.94797 9.42119 8.25574 8.89118 9.02021C8.09117 10.1917 9.06118 12.3263 11.1612 14.5204C11.5712 14.9473 12.0312 15.3842 12.5212 15.8011L12.6612 15.9203C12.9612 16.1784 13.2812 16.4365 13.6012 16.6748C13.7712 16.8039 13.9412 16.933 14.1112 17.0521C14.1812 17.1017 14.2412 17.1514 14.3112 17.1911C14.3812 17.2407 14.4512 17.2904 14.5212 17.34C14.5912 17.3896 14.6712 17.4492 14.7412 17.4989C14.8412 17.5684 14.9512 17.6379 15.0512 17.7074C15.5012 18.0052 15.9513 18.2832 16.4013 18.5314C16.7513 18.73 17.0913 18.9087 17.4313 19.0774L17.4913 19.1072C17.9013 19.3058 18.3113 19.4944 18.7113 19.6533C21.5913 20.8447 24.0313 20.9737 24.8413 19.7823C25.5214 18.7895 24.9213 17.1017 23.4513 15.265H26.8514C31.0714 19.6036 33.0314 23.8529 31.4614 26.1463Z" fill="#918d84"/>
<path d="M31.8513 4.99932V8.6231H19.8212L13.9211 14.4807C13.4911 14.1134 13.1011 13.756 12.7611 13.4085C11.5311 12.1675 10.8711 11.0952 10.6411 10.4598L16.6112 4.52277C17.0412 4.09586 17.6312 3.84766 18.2412 3.84766H30.7113C31.3413 3.85758 31.8513 4.37385 31.8513 4.99932Z" fill="#4390BD"/>
<path d="M31.8514 8.62305V12.2468C31.8514 12.8822 31.3314 13.3886 30.7014 13.3886H22.8213C22.5113 13.3886 22.2213 13.5077 22.0013 13.7261L18.3212 17.3995C17.5412 17.0123 16.7112 16.5358 15.8412 15.9401C15.5812 15.7614 15.3312 15.5926 15.0912 15.4139C14.6612 15.1061 14.2712 14.7984 13.9112 14.4906L19.8113 8.63297H31.8514V8.62305Z" fill="#265C84"/>
</svg>
