<svg width="1660" height="330" viewBox="0 0 1660 330" fill="none" xmlns="http://www.w3.org/2000/svg">
<path d="M50 110H1122" stroke="#17181A" stroke-width="37"/>
<path d="M514.53 111.53C514.823 111.237 514.823 110.763 514.53 110.47L509.757 105.697C509.464 105.404 508.99 105.404 508.697 105.697C508.404 105.99 508.404 106.464 508.697 106.757L512.939 111L508.697 115.243C508.404 115.536 508.404 116.01 508.697 116.303C508.99 116.596 509.464 116.596 509.757 116.303L514.53 111.53ZM513 111.75L514 111.75L514 110.25L513 110.25L513 111.75Z" fill="#82653E"/>
<path d="M50 128L1660 128" stroke="#292828"/>
<path d="M50 91L1660 90.9999" stroke="#292828"/>
<path d="M51 14V151" stroke="#544B3C"/>
<g filter="url(#filter0_b_5_4122)">
<circle cx="50.5" cy="16.5" r="13.5" transform="rotate(180 50.5 16.5)" fill="#82653E"/>
</g>
<g filter="url(#filter1_b_5_4122)">
<circle cx="51.5" cy="202.5" r="45" stroke="#1E1F20" stroke-width="13"/>
</g>
<path d="M559 14V151" stroke="#544B3C"/>
<path d="M1040 14V151" stroke="#544B3C" stroke-dasharray="10 10"/>
<g filter="url(#filter2_b_5_4122)">
<circle cx="559.5" cy="16.5" r="13.5" transform="rotate(180 559.5 16.5)" fill="#82653E"/>
</g>
<g filter="url(#filter3_b_5_4122)">
<circle cx="1039.5" cy="16.5" r="13.5" transform="rotate(180 1039.5 16.5)" fill="#82653E"/>
</g>
<path d="M129.865 2.185C134.77 2.185 136.975 5.335 136.975 10.15C136.975 19.645 126.31 23.065 126.265 30.31V30.805H136.615V34H122.8V31.3C122.8 21.13 133.465 19.15 133.465 10.285C133.465 7.045 132.385 5.335 129.775 5.335C127.21 5.335 126.085 7.18 126.085 9.97V12.76H122.8V10.195C122.8 5.38 125.005 2.185 129.865 2.185ZM139.932 26.35V10.105C139.932 5.29 142.317 2.185 147.132 2.185C151.992 2.185 154.377 5.29 154.377 10.105V26.35C154.377 31.165 151.992 34.315 147.132 34.315C142.317 34.315 139.932 31.165 139.932 26.35ZM143.397 9.925V26.575C143.397 29.41 144.612 31.12 147.132 31.12C149.697 31.12 150.867 29.41 150.867 26.575V9.925C150.867 7.045 149.697 5.335 147.132 5.335C144.612 5.335 143.397 7.045 143.397 9.925ZM164.758 2.185C169.663 2.185 171.868 5.335 171.868 10.15C171.868 19.645 161.203 23.065 161.158 30.31V30.805H171.508V34H157.693V31.3C157.693 21.13 168.358 19.15 168.358 10.285C168.358 7.045 167.278 5.335 164.668 5.335C162.103 5.335 160.978 7.18 160.978 9.97V12.76H157.693V10.195C157.693 5.38 159.898 2.185 164.758 2.185ZM181.98 2.185C186.84 2.185 189.09 5.29 189.09 10.105V10.915C189.09 14.155 187.785 16.45 185.265 17.395C187.92 18.385 189.09 20.77 189.09 23.92V26.35C189.09 31.165 186.84 34.315 181.98 34.315C177.165 34.315 174.915 31.165 174.915 26.35V24.19H178.2V26.575C178.2 29.41 179.37 31.12 181.89 31.12C184.455 31.12 185.58 29.455 185.58 26.26V23.83C185.58 20.725 184.275 19.24 181.62 19.15H179.73V16H181.8C184.14 15.91 185.58 14.425 185.58 11.68V10.24C185.58 7 184.455 5.335 181.89 5.335C179.37 5.335 178.2 7.09 178.2 9.925V11.545H174.915V10.105C174.915 5.29 177.165 2.185 181.98 2.185Z" fill="#544B3C"/>
<path d="M124.196 102.998C124.649 102.998 125.035 103.077 125.352 103.236C125.681 103.383 125.947 103.593 126.151 103.865C126.366 104.126 126.519 104.443 126.61 104.817C126.712 105.18 126.763 105.576 126.763 106.007V106.993H126.015V105.956C126.015 105.639 125.981 105.344 125.913 105.072C125.856 104.8 125.754 104.562 125.607 104.358C125.46 104.154 125.273 103.995 125.046 103.882C124.819 103.769 124.542 103.712 124.213 103.712C123.884 103.712 123.607 103.769 123.38 103.882C123.153 103.995 122.966 104.154 122.819 104.358C122.672 104.562 122.564 104.8 122.496 105.072C122.439 105.344 122.411 105.639 122.411 105.956V112.144C122.411 112.461 122.439 112.756 122.496 113.028C122.564 113.3 122.672 113.538 122.819 113.742C122.966 113.935 123.153 114.088 123.38 114.201C123.607 114.314 123.884 114.371 124.213 114.371C124.542 114.371 124.819 114.314 125.046 114.201C125.273 114.088 125.46 113.935 125.607 113.742C125.754 113.538 125.856 113.3 125.913 113.028C125.981 112.756 126.015 112.461 126.015 112.144V110.733H126.763V112.093C126.763 112.524 126.712 112.926 126.61 113.3C126.519 113.663 126.366 113.98 126.151 114.252C125.947 114.513 125.681 114.722 125.352 114.881C125.035 115.028 124.649 115.102 124.196 115.102C123.743 115.102 123.352 115.028 123.023 114.881C122.706 114.722 122.439 114.513 122.224 114.252C122.02 113.98 121.867 113.663 121.765 113.3C121.674 112.926 121.629 112.524 121.629 112.093V106.007C121.629 105.576 121.674 105.18 121.765 104.817C121.867 104.443 122.02 104.126 122.224 103.865C122.439 103.593 122.706 103.383 123.023 103.236C123.352 103.077 123.743 102.998 124.196 102.998ZM131.557 106.007C131.557 105.576 131.608 105.18 131.71 104.817C131.812 104.443 131.965 104.126 132.169 103.865C132.385 103.593 132.657 103.383 132.985 103.236C133.314 103.077 133.705 102.998 134.158 102.998C134.612 102.998 135.003 103.077 135.331 103.236C135.671 103.383 135.949 103.593 136.164 103.865C136.38 104.126 136.538 104.443 136.64 104.817C136.742 105.18 136.793 105.576 136.793 106.007V112.093C136.793 112.524 136.742 112.926 136.64 113.3C136.538 113.663 136.38 113.98 136.164 114.252C135.949 114.513 135.671 114.722 135.331 114.881C135.003 115.028 134.612 115.102 134.158 115.102C133.705 115.102 133.314 115.028 132.985 114.881C132.657 114.722 132.385 114.513 132.169 114.252C131.965 113.98 131.812 113.663 131.71 113.3C131.608 112.926 131.557 112.524 131.557 112.093V106.007ZM132.339 112.144C132.339 112.79 132.475 113.328 132.747 113.759C133.031 114.178 133.501 114.388 134.158 114.388C134.816 114.388 135.286 114.178 135.569 113.759C135.864 113.328 136.011 112.79 136.011 112.144V105.956C136.011 105.31 135.864 104.777 135.569 104.358C135.286 103.927 134.816 103.712 134.158 103.712C133.501 103.712 133.031 103.927 132.747 104.358C132.475 104.777 132.339 105.31 132.339 105.956V112.144ZM145.648 114.983H144.866L142.35 104.46V115H141.653V103.1H142.775L145.274 113.623L147.756 103.1H148.878V115H148.13V104.426L145.648 114.983ZM156.271 103.1C157.189 103.1 157.841 103.366 158.226 103.899C158.623 104.42 158.821 105.117 158.821 105.99V107.282C158.821 108.234 158.6 108.942 158.158 109.407C157.716 109.872 157.019 110.104 156.067 110.104H154.588V115H153.806V103.1H156.271ZM156.067 109.39C156.758 109.39 157.257 109.231 157.563 108.914C157.88 108.585 158.039 108.058 158.039 107.333V105.939C158.039 105.293 157.909 104.777 157.648 104.392C157.399 104.007 156.94 103.814 156.271 103.814H154.588V109.39H156.067ZM163.602 115V103.1H164.384V114.286H168.124V115H163.602ZM176.895 108.608V109.322H173.648V114.286H177.558V115H172.866V103.1H177.558V103.814H173.648V108.608H176.895ZM184.453 115V103.814H182.022V103.1H187.649V103.814H185.235V115H184.453ZM196.27 108.608V109.322H193.023V114.286H196.933V115H192.241V103.1H196.933V103.814H193.023V108.608H196.27ZM204.389 103.1C204.843 103.1 205.234 103.174 205.562 103.321C205.902 103.457 206.18 103.655 206.395 103.916C206.611 104.177 206.769 104.488 206.871 104.851C206.973 105.214 207.024 105.616 207.024 106.058V112.042C207.024 112.484 206.973 112.886 206.871 113.249C206.769 113.612 206.611 113.923 206.395 114.184C206.18 114.445 205.902 114.649 205.562 114.796C205.234 114.932 204.843 115 204.389 115H201.771V103.1H204.389ZM204.372 114.286C205.041 114.286 205.517 114.082 205.8 113.674C206.095 113.266 206.242 112.733 206.242 112.076V106.024C206.242 105.367 206.095 104.834 205.8 104.426C205.506 104.018 205.03 103.814 204.372 103.814H202.553V114.286H204.372Z" fill="#605C54"/>
<path d="M129.75 267.475C129.333 267.308 128.908 267.192 128.475 267.125C128.042 267.042 127.617 267 127.2 267C126.467 267 125.842 267.108 125.325 267.325C124.808 267.525 124.417 267.858 124.15 268.325C123.883 268.775 123.75 269.383 123.75 270.15V278.35C123.75 279.1 123.867 279.708 124.1 280.175C124.333 280.642 124.692 280.983 125.175 281.2C125.658 281.4 126.258 281.5 126.975 281.5C127.375 281.5 127.783 281.467 128.2 281.4C128.617 281.317 129.033 281.225 129.45 281.125C129.867 281.008 130.242 280.892 130.575 280.775L130.9 282.425C130.2 282.692 129.508 282.9 128.825 283.05C128.158 283.2 127.508 283.275 126.875 283.275C125.825 283.275 124.925 283.1 124.175 282.75C123.425 282.383 122.85 281.842 122.45 281.125C122.067 280.408 121.875 279.5 121.875 278.4V270.25C121.875 269.1 122.083 268.158 122.5 267.425C122.933 266.675 123.517 266.125 124.25 265.775C124.983 265.408 125.808 265.225 126.725 265.225C127.358 265.225 127.975 265.3 128.575 265.45C129.175 265.583 129.75 265.792 130.3 266.075L129.75 267.475ZM141.596 278.375C141.596 279.842 141.221 281.025 140.471 281.925C139.721 282.808 138.579 283.25 137.046 283.25C135.996 283.25 135.121 283.025 134.421 282.575C133.721 282.125 133.196 281.533 132.846 280.8C132.512 280.067 132.346 279.258 132.346 278.375V275.1C132.346 274.033 132.521 273.142 132.871 272.425C133.237 271.692 133.771 271.142 134.471 270.775C135.171 270.392 136.021 270.2 137.021 270.2C138.487 270.2 139.612 270.633 140.396 271.5C141.196 272.367 141.596 273.567 141.596 275.1V278.375ZM139.721 275.05C139.721 274.383 139.621 273.825 139.421 273.375C139.237 272.908 138.946 272.558 138.546 272.325C138.162 272.075 137.662 271.95 137.046 271.95C136.429 271.95 135.904 272.067 135.471 272.3C135.054 272.533 134.737 272.883 134.521 273.35C134.304 273.8 134.196 274.367 134.196 275.05V278.6C134.196 279.167 134.304 279.667 134.521 280.1C134.754 280.533 135.087 280.875 135.521 281.125C135.954 281.375 136.462 281.5 137.046 281.5C137.646 281.5 138.146 281.383 138.546 281.15C138.946 280.917 139.237 280.583 139.421 280.15C139.621 279.7 139.721 279.183 139.721 278.6V275.05ZM157.905 274.45C157.905 273.983 157.83 273.592 157.68 273.275C157.547 272.958 157.355 272.7 157.105 272.5C156.855 272.3 156.572 272.158 156.255 272.075C155.939 271.992 155.597 271.95 155.23 271.95C154.98 271.95 154.697 271.983 154.38 272.05C154.064 272.1 153.739 272.192 153.405 272.325C153.072 272.442 152.722 272.608 152.355 272.825C152.439 273.058 152.497 273.308 152.53 273.575C152.564 273.825 152.58 274.1 152.58 274.4V283H150.78V274.45C150.78 273.983 150.705 273.592 150.555 273.275C150.422 272.958 150.23 272.7 149.98 272.5C149.747 272.3 149.472 272.158 149.155 272.075C148.839 271.992 148.497 271.95 148.13 271.95C147.814 271.95 147.514 271.983 147.23 272.05C146.947 272.1 146.664 272.183 146.38 272.3C146.097 272.417 145.797 272.567 145.48 272.75V283H143.605V270.5H145.48V271.25C145.747 271.083 146.03 270.925 146.33 270.775C146.647 270.625 146.98 270.508 147.33 270.425C147.697 270.325 148.072 270.275 148.455 270.275C148.955 270.275 149.405 270.325 149.805 270.425C150.222 270.525 150.597 270.675 150.93 270.875C151.264 271.058 151.547 271.3 151.78 271.6C152.13 271.35 152.505 271.125 152.905 270.925C153.305 270.725 153.73 270.567 154.18 270.45C154.63 270.333 155.097 270.275 155.58 270.275C156.214 270.275 156.78 270.358 157.28 270.525C157.78 270.675 158.214 270.917 158.58 271.25C158.947 271.583 159.222 272.017 159.405 272.55C159.605 273.067 159.705 273.683 159.705 274.4V283H157.905V274.45ZM171.044 278.6C171.044 280.117 170.686 281.283 169.969 282.1C169.253 282.9 168.203 283.3 166.819 283.3C166.386 283.3 165.961 283.233 165.544 283.1C165.144 282.983 164.786 282.817 164.469 282.6C164.153 282.383 163.894 282.142 163.694 281.875V288.325L161.794 287.725V270.5H163.694V271.45C163.978 271.217 164.294 271.017 164.644 270.85C164.994 270.667 165.361 270.525 165.744 270.425C166.144 270.308 166.536 270.25 166.919 270.25C167.819 270.217 168.569 270.367 169.169 270.7C169.786 271.017 170.253 271.492 170.569 272.125C170.886 272.742 171.044 273.483 171.044 274.35V278.6ZM169.194 274.475C169.194 273.975 169.119 273.558 168.969 273.225C168.819 272.875 168.611 272.608 168.344 272.425C168.094 272.225 167.811 272.083 167.494 272C167.178 271.917 166.844 271.883 166.494 271.9C166.161 271.933 165.811 272.008 165.444 272.125C165.078 272.242 164.736 272.392 164.419 272.575C164.119 272.758 163.878 272.975 163.694 273.225V278.925C163.694 279.358 163.778 279.742 163.944 280.075C164.111 280.408 164.336 280.692 164.619 280.925C164.919 281.142 165.244 281.308 165.594 281.425C165.961 281.542 166.336 281.6 166.719 281.6C167.253 281.6 167.703 281.5 168.069 281.3C168.436 281.083 168.711 280.775 168.894 280.375C169.094 279.975 169.194 279.475 169.194 278.875V274.475ZM180.817 274.375C180.817 273.808 180.734 273.342 180.567 272.975C180.401 272.608 180.159 272.333 179.842 272.15C179.526 271.95 179.159 271.817 178.742 271.75C178.326 271.667 177.867 271.625 177.367 271.625L177.467 270.275C178.467 270.275 179.301 270.367 179.967 270.55C180.634 270.733 181.159 271.033 181.542 271.45C181.942 271.85 182.226 272.4 182.392 273.1C182.576 273.783 182.667 274.633 182.667 275.65V283C182.601 283.017 182.451 283.033 182.217 283.05C182.001 283.067 181.742 283.083 181.442 283.1C181.142 283.133 180.817 283.158 180.467 283.175C180.134 283.208 179.801 283.225 179.467 283.225C179.134 283.242 178.826 283.25 178.542 283.25C177.776 283.267 177.059 283.208 176.392 283.075C175.726 282.958 175.142 282.742 174.642 282.425C174.142 282.092 173.751 281.642 173.467 281.075C173.184 280.492 173.042 279.758 173.042 278.875V276.7C173.042 276.017 173.142 275.442 173.342 274.975C173.542 274.492 173.817 274.1 174.167 273.8C174.517 273.5 174.909 273.283 175.342 273.15C175.792 273.017 176.259 272.95 176.742 272.95C177.242 272.95 177.742 273.017 178.242 273.15C178.742 273.267 179.209 273.433 179.642 273.65C180.092 273.85 180.484 274.092 180.817 274.375ZM180.817 275.85C180.501 275.667 180.126 275.492 179.692 275.325C179.276 275.142 178.826 274.992 178.342 274.875C177.876 274.742 177.401 274.675 176.917 274.675C176.717 274.675 176.501 274.708 176.267 274.775C176.034 274.825 175.809 274.925 175.592 275.075C175.392 275.225 175.226 275.442 175.092 275.725C174.959 276.008 174.892 276.383 174.892 276.85V278.625C174.892 279.125 174.942 279.567 175.042 279.95C175.142 280.333 175.326 280.658 175.592 280.925C175.859 281.175 176.234 281.358 176.717 281.475C177.201 281.592 177.809 281.633 178.542 281.6C178.792 281.6 179.026 281.592 179.242 281.575C179.476 281.558 179.684 281.542 179.867 281.525C180.067 281.508 180.234 281.5 180.367 281.5C180.517 281.483 180.626 281.475 180.692 281.475C180.776 281.458 180.817 281.45 180.817 281.45V275.85ZM192.217 274.45C192.217 273.983 192.142 273.592 191.992 273.275C191.842 272.958 191.633 272.7 191.367 272.5C191.1 272.3 190.8 272.158 190.467 272.075C190.15 271.975 189.808 271.925 189.442 271.925C189.125 271.925 188.808 271.95 188.492 272C188.192 272.05 187.892 272.133 187.592 272.25C187.292 272.367 186.983 272.517 186.667 272.7V283H184.792V270.475H186.667V271.225C186.933 271.058 187.233 270.9 187.567 270.75C187.9 270.6 188.258 270.483 188.642 270.4C189.025 270.3 189.408 270.25 189.792 270.25C190.292 270.25 190.758 270.308 191.192 270.425C191.625 270.525 192.017 270.683 192.367 270.9C192.717 271.117 193.017 271.392 193.267 271.725C193.517 272.042 193.708 272.417 193.842 272.85C193.975 273.283 194.042 273.792 194.042 274.375V283H192.217V274.45ZM206.343 271.55C206.026 271.65 205.785 271.825 205.618 272.075C205.468 272.308 205.393 272.675 205.393 273.175V284.525C205.393 285.242 205.285 285.85 205.068 286.35C204.851 286.867 204.518 287.275 204.068 287.575C203.635 287.892 203.068 288.125 202.368 288.275L201.868 286.8C202.135 286.733 202.376 286.625 202.593 286.475C202.81 286.325 202.985 286.142 203.118 285.925C203.268 285.725 203.376 285.492 203.443 285.225C203.51 284.975 203.543 284.708 203.543 284.425V281.925C203.326 282.192 203.043 282.425 202.693 282.625C202.36 282.808 201.985 282.95 201.568 283.05C201.168 283.15 200.776 283.2 200.393 283.2C199.76 283.2 199.176 283.125 198.643 282.975C198.126 282.808 197.676 282.567 197.293 282.25C196.926 281.917 196.635 281.483 196.418 280.95C196.218 280.417 196.118 279.783 196.118 279.05V270.45H198.018V278.95C198.018 279.417 198.093 279.817 198.243 280.15C198.393 280.467 198.601 280.725 198.868 280.925C199.135 281.108 199.426 281.25 199.743 281.35C200.076 281.433 200.41 281.475 200.743 281.475C201.143 281.475 201.51 281.4 201.843 281.25C202.176 281.1 202.468 280.892 202.718 280.625C202.968 280.358 203.168 280.058 203.318 279.725C203.468 279.375 203.543 279.008 203.543 278.625V272.9C203.543 272.5 203.618 272.108 203.768 271.725C203.918 271.342 204.151 271.017 204.468 270.75C204.785 270.467 205.201 270.283 205.718 270.2L206.343 271.55ZM207.521 269.075C207.754 268.775 207.912 268.483 207.996 268.2C208.096 267.9 208.162 267.625 208.196 267.375C207.979 267.308 207.787 267.183 207.621 267C207.454 266.8 207.371 266.583 207.371 266.35C207.371 266.05 207.471 265.8 207.671 265.6C207.887 265.383 208.137 265.275 208.421 265.275C208.721 265.275 208.971 265.383 209.171 265.6C209.387 265.8 209.496 266.05 209.496 266.35C209.496 266.783 209.437 267.175 209.321 267.525C209.204 267.875 209.054 268.183 208.871 268.45C208.704 268.7 208.546 268.908 208.396 269.075C208.246 269.242 208.121 269.367 208.021 269.45L207.521 269.075ZM217.647 272.475C217.447 272.342 217.214 272.233 216.947 272.15C216.697 272.05 216.431 271.983 216.147 271.95C215.864 271.9 215.581 271.875 215.297 271.875C215.031 271.875 214.747 271.9 214.447 271.95C214.147 272 213.864 272.092 213.597 272.225C213.347 272.342 213.139 272.508 212.972 272.725C212.822 272.925 212.747 273.167 212.747 273.45C212.747 273.817 212.864 274.125 213.097 274.375C213.347 274.625 213.672 274.85 214.072 275.05C214.472 275.25 214.906 275.442 215.372 275.625C215.839 275.808 216.306 276.008 216.772 276.225C217.256 276.442 217.697 276.7 218.097 277C218.497 277.3 218.814 277.667 219.047 278.1C219.297 278.533 219.422 279.058 219.422 279.675C219.422 280.292 219.297 280.833 219.047 281.3C218.797 281.767 218.456 282.158 218.022 282.475C217.606 282.792 217.139 283.025 216.622 283.175C216.106 283.342 215.572 283.425 215.022 283.425C214.122 283.425 213.256 283.233 212.422 282.85C211.589 282.467 210.881 281.942 210.297 281.275L211.372 280.175C211.706 280.492 212.056 280.767 212.422 281C212.806 281.233 213.206 281.408 213.622 281.525C214.039 281.642 214.472 281.7 214.922 281.7C215.206 281.7 215.497 281.667 215.797 281.6C216.114 281.517 216.406 281.392 216.672 281.225C216.939 281.058 217.156 280.85 217.322 280.6C217.489 280.35 217.572 280.05 217.572 279.7C217.572 279.3 217.447 278.958 217.197 278.675C216.964 278.375 216.647 278.117 216.247 277.9C215.864 277.683 215.431 277.483 214.947 277.3C214.481 277.1 214.006 276.9 213.522 276.7C213.056 276.483 212.622 276.233 212.222 275.95C211.839 275.667 211.522 275.333 211.272 274.95C211.039 274.55 210.922 274.067 210.922 273.5C210.922 272.95 211.039 272.467 211.272 272.05C211.506 271.633 211.822 271.292 212.222 271.025C212.622 270.742 213.064 270.533 213.547 270.4C214.031 270.25 214.531 270.175 215.047 270.175C215.381 270.175 215.731 270.2 216.097 270.25C216.464 270.3 216.831 270.392 217.197 270.525C217.581 270.658 217.956 270.842 218.322 271.075L217.647 272.475ZM237.527 283C237.444 283.017 237.294 283.033 237.077 283.05C236.861 283.067 236.602 283.083 236.302 283.1C236.002 283.133 235.677 283.158 235.327 283.175C234.994 283.208 234.661 283.225 234.327 283.225C234.011 283.242 233.719 283.25 233.452 283.25C232.686 283.267 231.961 283.208 231.277 283.075C230.611 282.942 230.019 282.717 229.502 282.4C229.002 282.067 228.611 281.617 228.327 281.05C228.044 280.467 227.902 279.742 227.902 278.875V274.025C227.902 273.342 228.019 272.758 228.252 272.275C228.486 271.792 228.794 271.408 229.177 271.125C229.577 270.825 230.011 270.608 230.477 270.475C230.961 270.325 231.444 270.25 231.927 270.25C232.661 270.25 233.327 270.333 233.927 270.5C234.544 270.65 235.136 270.842 235.702 271.075V265.5H237.527V283ZM235.702 272.85C235.202 272.633 234.661 272.442 234.077 272.275C233.511 272.092 232.861 272 232.127 272C231.911 272 231.669 272.033 231.402 272.1C231.136 272.15 230.877 272.25 230.627 272.4C230.377 272.55 230.169 272.775 230.002 273.075C229.836 273.358 229.752 273.733 229.752 274.2V278.6C229.752 279.117 229.802 279.567 229.902 279.95C230.019 280.317 230.211 280.633 230.477 280.9C230.744 281.15 231.111 281.333 231.577 281.45C232.061 281.567 232.677 281.617 233.427 281.6C233.661 281.583 233.886 281.575 234.102 281.575C234.336 281.558 234.544 281.542 234.727 281.525C234.927 281.508 235.094 281.5 235.227 281.5C235.377 281.483 235.494 281.475 235.577 281.475C235.661 281.458 235.702 281.45 235.702 281.45V272.85ZM239.725 283V270.475H241.6V283H239.725ZM240.675 265.25C240.975 265.25 241.225 265.35 241.425 265.55C241.641 265.75 241.75 266 241.75 266.3C241.75 266.583 241.641 266.833 241.425 267.05C241.225 267.25 240.975 267.35 240.675 267.35C240.391 267.35 240.141 267.25 239.925 267.05C239.708 266.833 239.6 266.583 239.6 266.3C239.6 266 239.708 265.75 239.925 265.55C240.141 265.35 240.391 265.25 240.675 265.25ZM243.473 270.475H245.423L248.473 280.6L251.423 270.475H253.398L249.523 283H247.348L243.473 270.475ZM255.325 283V270.475H257.2V283H255.325ZM256.275 265.25C256.575 265.25 256.825 265.35 257.025 265.55C257.242 265.75 257.35 266 257.35 266.3C257.35 266.583 257.242 266.833 257.025 267.05C256.825 267.25 256.575 267.35 256.275 267.35C255.992 267.35 255.742 267.25 255.525 267.05C255.309 266.833 255.2 266.583 255.2 266.3C255.2 266 255.309 265.75 255.525 265.55C255.742 265.35 255.992 265.25 256.275 265.25ZM266.476 272.475C266.276 272.342 266.042 272.233 265.776 272.15C265.526 272.05 265.259 271.983 264.976 271.95C264.692 271.9 264.409 271.875 264.126 271.875C263.859 271.875 263.576 271.9 263.276 271.95C262.976 272 262.692 272.092 262.426 272.225C262.176 272.342 261.967 272.508 261.801 272.725C261.651 272.925 261.576 273.167 261.576 273.45C261.576 273.817 261.692 274.125 261.926 274.375C262.176 274.625 262.501 274.85 262.901 275.05C263.301 275.25 263.734 275.442 264.201 275.625C264.667 275.808 265.134 276.008 265.601 276.225C266.084 276.442 266.526 276.7 266.926 277C267.326 277.3 267.642 277.667 267.876 278.1C268.126 278.533 268.251 279.058 268.251 279.675C268.251 280.292 268.126 280.833 267.876 281.3C267.626 281.767 267.284 282.158 266.851 282.475C266.434 282.792 265.967 283.025 265.451 283.175C264.934 283.342 264.401 283.425 263.851 283.425C262.951 283.425 262.084 283.233 261.251 282.85C260.417 282.467 259.709 281.942 259.126 281.275L260.201 280.175C260.534 280.492 260.884 280.767 261.251 281C261.634 281.233 262.034 281.408 262.451 281.525C262.867 281.642 263.301 281.7 263.751 281.7C264.034 281.7 264.326 281.667 264.626 281.6C264.942 281.517 265.234 281.392 265.501 281.225C265.767 281.058 265.984 280.85 266.151 280.6C266.317 280.35 266.401 280.05 266.401 279.7C266.401 279.3 266.276 278.958 266.026 278.675C265.792 278.375 265.476 278.117 265.076 277.9C264.692 277.683 264.259 277.483 263.776 277.3C263.309 277.1 262.834 276.9 262.351 276.7C261.884 276.483 261.451 276.233 261.051 275.95C260.667 275.667 260.351 275.333 260.101 274.95C259.867 274.55 259.751 274.067 259.751 273.5C259.751 272.95 259.867 272.467 260.101 272.05C260.334 271.633 260.651 271.292 261.051 271.025C261.451 270.742 261.892 270.533 262.376 270.4C262.859 270.25 263.359 270.175 263.876 270.175C264.209 270.175 264.559 270.2 264.926 270.25C265.292 270.3 265.659 270.392 266.026 270.525C266.409 270.658 266.784 270.842 267.151 271.075L266.476 272.475ZM270.193 283V270.475H272.068V283H270.193ZM271.143 265.25C271.443 265.25 271.693 265.35 271.893 265.55C272.11 265.75 272.218 266 272.218 266.3C272.218 266.583 272.11 266.833 271.893 267.05C271.693 267.25 271.443 267.35 271.143 267.35C270.86 267.35 270.61 267.25 270.393 267.05C270.177 266.833 270.068 266.583 270.068 266.3C270.068 266 270.177 265.75 270.393 265.55C270.61 265.35 270.86 265.25 271.143 265.25ZM283.295 278.375C283.295 279.842 282.92 281.025 282.17 281.925C281.42 282.808 280.278 283.25 278.745 283.25C277.695 283.25 276.82 283.025 276.12 282.575C275.42 282.125 274.895 281.533 274.545 280.8C274.212 280.067 274.045 279.258 274.045 278.375V275.1C274.045 274.033 274.22 273.142 274.57 272.425C274.937 271.692 275.47 271.142 276.17 270.775C276.87 270.392 277.72 270.2 278.72 270.2C280.187 270.2 281.312 270.633 282.095 271.5C282.895 272.367 283.295 273.567 283.295 275.1V278.375ZM281.42 275.05C281.42 274.383 281.32 273.825 281.12 273.375C280.937 272.908 280.645 272.558 280.245 272.325C279.862 272.075 279.362 271.95 278.745 271.95C278.128 271.95 277.603 272.067 277.17 272.3C276.753 272.533 276.437 272.883 276.22 273.35C276.003 273.8 275.895 274.367 275.895 275.05V278.6C275.895 279.167 276.003 279.667 276.22 280.1C276.453 280.533 276.787 280.875 277.22 281.125C277.653 281.375 278.162 281.5 278.745 281.5C279.345 281.5 279.845 281.383 280.245 281.15C280.645 280.917 280.937 280.583 281.12 280.15C281.32 279.7 281.42 279.183 281.42 278.6V275.05ZM292.729 274.45C292.729 273.983 292.654 273.592 292.504 273.275C292.354 272.958 292.146 272.7 291.879 272.5C291.613 272.3 291.313 272.158 290.979 272.075C290.663 271.975 290.321 271.925 289.954 271.925C289.638 271.925 289.321 271.95 289.004 272C288.704 272.05 288.404 272.133 288.104 272.25C287.804 272.367 287.496 272.517 287.179 272.7V283H285.304V270.475H287.179V271.225C287.446 271.058 287.746 270.9 288.079 270.75C288.413 270.6 288.771 270.483 289.154 270.4C289.538 270.3 289.921 270.25 290.304 270.25C290.804 270.25 291.271 270.308 291.704 270.425C292.138 270.525 292.529 270.683 292.879 270.9C293.229 271.117 293.529 271.392 293.779 271.725C294.029 272.042 294.221 272.417 294.354 272.85C294.488 273.283 294.554 273.792 294.554 274.375V283H292.729V274.45ZM122.025 324V306.5H123.9V322.325H131.05V324H122.025ZM134.937 314.1L139.987 306.5H142.187L137.112 313.95L143.387 324H141.112L135.937 315.675L134.937 317.3V324H132.987V306.5H134.937V314.1ZM149.977 308.25V324H148.152V308.25H144.077V306.5H154.152V308.25H149.977ZM171.58 306.5L174.255 320.75L177.23 306.5H179.28L175.43 324H173.005L170.605 311.075L168.23 324H165.755L161.855 306.5H163.88L166.955 320.75L169.605 306.5H171.58ZM181.376 324V306.5H189.726V308.275H183.251V313.675H187.551L187.001 315.475H183.251V322.325H189.676V324H181.376ZM197.477 306.5C198.227 306.5 198.91 306.6 199.527 306.8C200.16 306.983 200.71 307.292 201.177 307.725C201.644 308.158 202.002 308.758 202.252 309.525C202.502 310.275 202.627 311.208 202.627 312.325C202.627 313.292 202.535 314.125 202.352 314.825C202.185 315.508 201.935 316.083 201.602 316.55C201.285 317 200.877 317.367 200.377 317.65L202.727 324H200.777L198.702 318.2C198.569 318.217 198.435 318.233 198.302 318.25C198.169 318.267 198.035 318.275 197.902 318.275C197.769 318.275 197.627 318.275 197.477 318.275H193.602V324H191.727V306.5H197.477ZM197.227 316.5C197.76 316.5 198.235 316.45 198.652 316.35C199.085 316.25 199.46 316.067 199.777 315.8C200.094 315.517 200.327 315.1 200.477 314.55C200.644 313.983 200.727 313.242 200.727 312.325C200.727 311.475 200.644 310.783 200.477 310.25C200.327 309.717 200.094 309.317 199.777 309.05C199.477 308.767 199.11 308.575 198.677 308.475C198.244 308.358 197.76 308.3 197.227 308.3H193.602V316.5H197.227ZM206.592 314.1L211.642 306.5H213.842L208.767 313.95L215.042 324H212.767L207.592 315.675L206.592 317.3V324H204.642V306.5H206.592V314.1ZM217.02 324V306.5H225.37V308.275H218.895V313.675H223.195L222.645 315.475H218.895V322.325H225.32V324H217.02Z" fill="#969284"/>
<path d="M69.448 209.634L54.221 224.696C53.6195 224.356 53.207 223.727 53.207 222.996V210.586C53.207 209.498 54.0835 208.631 55.1834 208.631H67.7294C68.4684 208.631 69.1215 209.039 69.448 209.634Z" fill="#4390BD"/>
<path d="M69.7074 210.603V223.013C69.7074 224.084 68.8138 224.968 67.731 224.968H55.1851C54.8242 224.968 54.4976 224.883 54.2227 224.713L69.4496 209.651C69.6215 209.923 69.7074 210.246 69.7074 210.603Z" fill="#265C84"/>
<path d="M105.796 184.032H84.3645C83.3161 184.032 82.3021 184.44 81.5631 185.188L73.8293 192.838L71.303 195.337C71.303 195.337 71.303 195.337 71.303 195.354L69.7906 196.85C69.3953 197.241 69.1719 197.768 69.1719 198.329V207.203C69.1719 207.934 69.5843 208.58 70.1859 208.903L86.3237 192.957C86.8221 192.464 87.4924 192.192 88.197 192.192H107.789V185.987C107.772 184.916 106.878 184.032 105.796 184.032Z" fill="#4390BD"/>
<path d="M88.1815 192.209C87.4768 192.209 86.8066 192.481 86.3082 192.974L85.4145 193.858L70.1875 208.92C70.4797 209.073 70.789 209.175 71.1499 209.175H81.6335C82.2007 209.175 82.7334 208.954 83.1287 208.563L84.4864 207.22C84.4864 207.22 84.4864 207.22 84.5036 207.22L85.6723 206.064L90.8453 200.93C91.2234 200.556 91.7218 200.352 92.2546 200.352H105.797C106.88 200.352 107.774 199.485 107.774 198.397V192.192H88.1815V192.209Z" fill="#265C84"/>
<path d="M68.9961 209.992L53.9878 225C53.3966 224.676 52.9961 224.027 52.9961 223.303V210.945C52.9961 209.858 53.8733 209 54.9413 209H67.2988C68.0235 209 68.6719 209.4 68.9961 209.992Z" fill="#4391BB"/>
<path d="M69.9961 210.937V223.087C69.9961 224.137 69.0761 225 67.9561 225H54.9961C54.6361 225 54.2961 224.906 53.9961 224.756L69.7361 210C69.9161 210.281 69.9961 210.6 69.9961 210.937Z" fill="#1D5781"/>
<path d="M106 184H84.3574C83.3007 184 82.2831 184.424 81.5199 185.156L73.7121 192.86L71.1486 195.383L69.6223 196.885C69.2113 197.27 68.9961 197.81 68.9961 198.368V207.286C68.9961 208.018 69.407 208.673 70.0137 209L86.3142 192.975C86.823 192.475 87.4883 192.205 88.1928 192.205H107.996V185.965C107.996 184.886 107.096 184 106 184Z" fill="#4391BB"/>
<path d="M88.2024 192C87.4969 192 86.8109 192.269 86.321 192.767L85.4195 193.65L69.9961 208.751C70.2901 208.904 70.6036 209 70.976 209H81.5979C82.1663 209 82.715 208.77 83.107 208.386L84.4788 207.043L85.6547 205.892L90.8873 200.749C91.2596 200.385 91.7692 200.174 92.2983 200.174H105.997C107.095 200.174 107.996 199.291 107.996 198.217V192H88.1632H88.2024Z" fill="#1D5781"/>
<path d="M120.996 218V192H128.471V212.197H139.996V218H120.996Z" fill="#235C82"/>
<path d="M141.996 218V192H149.663V201.166L157.621 192H166.336L157.078 202.665L166.996 218H158.844L152.361 207.508L149.663 210.486V218H141.996Z" fill="#235C82"/>
<path d="M174.563 218V197.65H166.996V192H189.996V197.65H182.429V218H174.563Z" fill="#235C82"/>
<path d="M206.061 218L199.996 192H207.428L210.392 205.778L213.261 195.92L214.262 192H219.48L223.446 205.817L226.565 192H233.996L227.989 218H221.097L217.189 204.568L212.934 218H206.061Z" fill="#235C82"/>
<path d="M236.996 218V192H256.996V197.823H244.703V202.05H255.474V207.95H244.703V212.197H256.996V218H236.996Z" fill="#235C82"/>
<path d="M259.996 218V192H273.637C275.788 192 277.532 192.384 278.908 193.172C280.283 193.96 281.31 195.036 281.989 196.42C282.667 197.803 282.996 199.418 282.996 201.243C282.996 203.069 282.55 204.529 281.678 205.855C280.787 207.181 279.625 208.2 278.152 208.911C278.443 209.16 278.714 209.449 278.927 209.775C279.14 210.102 279.392 210.582 279.663 211.159L282.667 217.981H274.684L271.913 211.716C271.7 211.236 271.428 210.89 271.118 210.678C270.808 210.467 270.363 210.371 269.801 210.371H267.65V217.962H259.996V218ZM267.65 204.606H271.68C272.785 204.606 273.657 204.318 274.257 203.741C274.858 203.165 275.168 202.339 275.168 201.262C275.168 198.976 274.083 197.823 271.913 197.823H267.63V204.606H267.65Z" fill="#235C82"/>
<path d="M285.996 218V192H293.663V201.166L301.621 192H310.336L301.078 202.665L310.996 218H302.844L296.361 207.508L293.663 210.486V218H285.996Z" fill="#235C82"/>
<path d="M313.996 218V192H333.996V197.823H321.684V202.05H332.474V207.95H321.684V212.197H333.996V218H313.996Z" fill="#235C82"/>
<path d="M636.865 2.185C641.77 2.185 643.975 5.335 643.975 10.15C643.975 19.645 633.31 23.065 633.265 30.31V30.805H643.615V34H629.8V31.3C629.8 21.13 640.465 19.15 640.465 10.285C640.465 7.045 639.385 5.335 636.775 5.335C634.21 5.335 633.085 7.18 633.085 9.97V12.76H629.8V10.195C629.8 5.38 632.005 2.185 636.865 2.185ZM646.932 26.35V10.105C646.932 5.29 649.317 2.185 654.132 2.185C658.992 2.185 661.377 5.29 661.377 10.105V26.35C661.377 31.165 658.992 34.315 654.132 34.315C649.317 34.315 646.932 31.165 646.932 26.35ZM650.397 9.925V26.575C650.397 29.41 651.612 31.12 654.132 31.12C656.697 31.12 657.867 29.41 657.867 26.575V9.925C657.867 7.045 656.697 5.335 654.132 5.335C651.612 5.335 650.397 7.045 650.397 9.925ZM671.758 2.185C676.663 2.185 678.868 5.335 678.868 10.15C678.868 19.645 668.203 23.065 668.158 30.31V30.805H678.508V34H664.693V31.3C664.693 21.13 675.358 19.15 675.358 10.285C675.358 7.045 674.278 5.335 671.668 5.335C669.103 5.335 667.978 7.18 667.978 9.97V12.76H664.693V10.195C664.693 5.38 666.898 2.185 671.758 2.185ZM697.395 27.655H694.875V34H691.455V27.655H681.285V24.46L691.05 2.5H694.875V24.46H697.395V27.655ZM691.455 9.07L684.525 24.46H691.455V9.07Z" fill="#544B3C"/>
<path d="M631.196 102.998C631.649 102.998 632.035 103.077 632.352 103.236C632.681 103.383 632.947 103.593 633.151 103.865C633.366 104.126 633.519 104.443 633.61 104.817C633.712 105.18 633.763 105.576 633.763 106.007V106.993H633.015V105.956C633.015 105.639 632.981 105.344 632.913 105.072C632.856 104.8 632.754 104.562 632.607 104.358C632.46 104.154 632.273 103.995 632.046 103.882C631.819 103.769 631.542 103.712 631.213 103.712C630.884 103.712 630.607 103.769 630.38 103.882C630.153 103.995 629.966 104.154 629.819 104.358C629.672 104.562 629.564 104.8 629.496 105.072C629.439 105.344 629.411 105.639 629.411 105.956V112.144C629.411 112.461 629.439 112.756 629.496 113.028C629.564 113.3 629.672 113.538 629.819 113.742C629.966 113.935 630.153 114.088 630.38 114.201C630.607 114.314 630.884 114.371 631.213 114.371C631.542 114.371 631.819 114.314 632.046 114.201C632.273 114.088 632.46 113.935 632.607 113.742C632.754 113.538 632.856 113.3 632.913 113.028C632.981 112.756 633.015 112.461 633.015 112.144V110.733H633.763V112.093C633.763 112.524 633.712 112.926 633.61 113.3C633.519 113.663 633.366 113.98 633.151 114.252C632.947 114.513 632.681 114.722 632.352 114.881C632.035 115.028 631.649 115.102 631.196 115.102C630.743 115.102 630.352 115.028 630.023 114.881C629.706 114.722 629.439 114.513 629.224 114.252C629.02 113.98 628.867 113.663 628.765 113.3C628.674 112.926 628.629 112.524 628.629 112.093V106.007C628.629 105.576 628.674 105.18 628.765 104.817C628.867 104.443 629.02 104.126 629.224 103.865C629.439 103.593 629.706 103.383 630.023 103.236C630.352 103.077 630.743 102.998 631.196 102.998ZM638.557 106.007C638.557 105.576 638.608 105.18 638.71 104.817C638.812 104.443 638.965 104.126 639.169 103.865C639.385 103.593 639.657 103.383 639.985 103.236C640.314 103.077 640.705 102.998 641.158 102.998C641.612 102.998 642.003 103.077 642.331 103.236C642.671 103.383 642.949 103.593 643.164 103.865C643.38 104.126 643.538 104.443 643.64 104.817C643.742 105.18 643.793 105.576 643.793 106.007V112.093C643.793 112.524 643.742 112.926 643.64 113.3C643.538 113.663 643.38 113.98 643.164 114.252C642.949 114.513 642.671 114.722 642.331 114.881C642.003 115.028 641.612 115.102 641.158 115.102C640.705 115.102 640.314 115.028 639.985 114.881C639.657 114.722 639.385 114.513 639.169 114.252C638.965 113.98 638.812 113.663 638.71 113.3C638.608 112.926 638.557 112.524 638.557 112.093V106.007ZM639.339 112.144C639.339 112.79 639.475 113.328 639.747 113.759C640.031 114.178 640.501 114.388 641.158 114.388C641.816 114.388 642.286 114.178 642.569 113.759C642.864 113.328 643.011 112.79 643.011 112.144V105.956C643.011 105.31 642.864 104.777 642.569 104.358C642.286 103.927 641.816 103.712 641.158 103.712C640.501 103.712 640.031 103.927 639.747 104.358C639.475 104.777 639.339 105.31 639.339 105.956V112.144ZM652.648 114.983H651.866L649.35 104.46V115H648.653V103.1H649.775L652.274 113.623L654.756 103.1H655.878V115H655.13V104.426L652.648 114.983ZM663.271 103.1C664.189 103.1 664.841 103.366 665.226 103.899C665.623 104.42 665.821 105.117 665.821 105.99V107.282C665.821 108.234 665.6 108.942 665.158 109.407C664.716 109.872 664.019 110.104 663.067 110.104H661.588V115H660.806V103.1H663.271ZM663.067 109.39C663.758 109.39 664.257 109.231 664.563 108.914C664.88 108.585 665.039 108.058 665.039 107.333V105.939C665.039 105.293 664.909 104.777 664.648 104.392C664.399 104.007 663.94 103.814 663.271 103.814H661.588V109.39H663.067ZM670.602 115V103.1H671.384V114.286H675.124V115H670.602ZM683.895 108.608V109.322H680.648V114.286H684.558V115H679.866V103.1H684.558V103.814H680.648V108.608H683.895ZM691.453 115V103.814H689.022V103.1H694.649V103.814H692.235V115H691.453ZM703.27 108.608V109.322H700.023V114.286H703.933V115H699.241V103.1H703.933V103.814H700.023V108.608H703.27ZM711.389 103.1C711.843 103.1 712.234 103.174 712.562 103.321C712.902 103.457 713.18 103.655 713.395 103.916C713.611 104.177 713.769 104.488 713.871 104.851C713.973 105.214 714.024 105.616 714.024 106.058V112.042C714.024 112.484 713.973 112.886 713.871 113.249C713.769 113.612 713.611 113.923 713.395 114.184C713.18 114.445 712.902 114.649 712.562 114.796C712.234 114.932 711.843 115 711.389 115H708.771V103.1H711.389ZM711.372 114.286C712.041 114.286 712.517 114.082 712.8 113.674C713.095 113.266 713.242 112.733 713.242 112.076V106.024C713.242 105.367 713.095 104.834 712.8 104.426C712.506 104.018 712.03 103.814 711.372 103.814H709.553V114.286H711.372Z" fill="#605C54"/>
<path d="M994.53 111.53C994.823 111.237 994.823 110.763 994.53 110.47L989.757 105.697C989.464 105.404 988.99 105.404 988.697 105.697C988.404 105.99 988.404 106.464 988.697 106.757L992.939 111L988.697 115.243C988.404 115.536 988.404 116.01 988.697 116.303C988.99 116.596 989.464 116.596 989.757 116.303L994.53 111.53ZM993 111.75L994 111.75L994 110.25L993 110.25L993 111.75Z" fill="#82653E"/>
<g filter="url(#filter4_b_5_4122)">
<circle cx="560.5" cy="204.5" r="45" stroke="#1E1F20" stroke-width="13"/>
</g>
<path d="M634.425 265.5C635.358 265.5 636.167 265.667 636.85 266C637.533 266.317 638.058 266.792 638.425 267.425C638.792 268.058 638.975 268.85 638.975 269.8C638.975 270.317 638.908 270.792 638.775 271.225C638.642 271.642 638.45 272.025 638.2 272.375C637.95 272.708 637.642 273.008 637.275 273.275C637.775 273.492 638.217 273.808 638.6 274.225C639 274.625 639.317 275.125 639.55 275.725C639.783 276.325 639.9 277.017 639.9 277.8C639.9 278.867 639.7 279.792 639.3 280.575C638.9 281.358 638.317 281.958 637.55 282.375C636.783 282.792 635.833 283 634.7 283H629.025V265.5H634.425ZM634.025 272.675C634.692 272.675 635.233 272.575 635.65 272.375C636.083 272.158 636.4 271.85 636.6 271.45C636.817 271.033 636.925 270.533 636.925 269.95C636.925 269.333 636.817 268.833 636.6 268.45C636.383 268.067 636.058 267.783 635.625 267.6C635.192 267.4 634.642 267.3 633.975 267.3H630.9V272.675H634.025ZM634.425 281.275C635.108 281.275 635.7 281.158 636.2 280.925C636.7 280.675 637.092 280.283 637.375 279.75C637.675 279.217 637.825 278.542 637.825 277.725C637.825 277.092 637.7 276.533 637.45 276.05C637.217 275.567 636.858 275.183 636.375 274.9C635.908 274.617 635.325 274.475 634.625 274.475H630.9V281.275H634.425ZM648.814 271.9C648.814 271.9 648.706 271.883 648.489 271.85C648.289 271.817 648.014 271.808 647.664 271.825C647.348 271.842 647.006 271.883 646.639 271.95C646.289 272 645.939 272.075 645.589 272.175C645.239 272.275 644.906 272.392 644.589 272.525C644.289 272.658 644.014 272.8 643.764 272.95V283H641.889V270.475H643.764V271.2C644.314 270.917 644.898 270.683 645.514 270.5C646.131 270.317 646.823 270.208 647.589 270.175C647.923 270.158 648.214 270.175 648.464 270.225C648.731 270.275 648.914 270.317 649.014 270.35L648.814 271.9ZM657.202 274.375C657.202 273.808 657.119 273.342 656.952 272.975C656.785 272.608 656.544 272.333 656.227 272.15C655.91 271.95 655.544 271.817 655.127 271.75C654.71 271.667 654.252 271.625 653.752 271.625L653.852 270.275C654.852 270.275 655.685 270.367 656.352 270.55C657.019 270.733 657.544 271.033 657.927 271.45C658.327 271.85 658.61 272.4 658.777 273.1C658.96 273.783 659.052 274.633 659.052 275.65V283C658.985 283.017 658.835 283.033 658.602 283.05C658.385 283.067 658.127 283.083 657.827 283.1C657.527 283.133 657.202 283.158 656.852 283.175C656.519 283.208 656.185 283.225 655.852 283.225C655.519 283.242 655.21 283.25 654.927 283.25C654.16 283.267 653.444 283.208 652.777 283.075C652.11 282.958 651.527 282.742 651.027 282.425C650.527 282.092 650.135 281.642 649.852 281.075C649.569 280.492 649.427 279.758 649.427 278.875V276.7C649.427 276.017 649.527 275.442 649.727 274.975C649.927 274.492 650.202 274.1 650.552 273.8C650.902 273.5 651.294 273.283 651.727 273.15C652.177 273.017 652.644 272.95 653.127 272.95C653.627 272.95 654.127 273.017 654.627 273.15C655.127 273.267 655.594 273.433 656.027 273.65C656.477 273.85 656.869 274.092 657.202 274.375ZM657.202 275.85C656.885 275.667 656.51 275.492 656.077 275.325C655.66 275.142 655.21 274.992 654.727 274.875C654.26 274.742 653.785 274.675 653.302 274.675C653.102 274.675 652.885 274.708 652.652 274.775C652.419 274.825 652.194 274.925 651.977 275.075C651.777 275.225 651.61 275.442 651.477 275.725C651.344 276.008 651.277 276.383 651.277 276.85V278.625C651.277 279.125 651.327 279.567 651.427 279.95C651.527 280.333 651.71 280.658 651.977 280.925C652.244 281.175 652.619 281.358 653.102 281.475C653.585 281.592 654.194 281.633 654.927 281.6C655.177 281.6 655.41 281.592 655.627 281.575C655.86 281.558 656.069 281.542 656.252 281.525C656.452 281.508 656.619 281.5 656.752 281.5C656.902 281.483 657.01 281.475 657.077 281.475C657.16 281.458 657.202 281.45 657.202 281.45V275.85ZM668.602 274.45C668.602 273.983 668.527 273.592 668.377 273.275C668.227 272.958 668.018 272.7 667.752 272.5C667.485 272.3 667.185 272.158 666.852 272.075C666.535 271.975 666.193 271.925 665.827 271.925C665.51 271.925 665.193 271.95 664.877 272C664.577 272.05 664.277 272.133 663.977 272.25C663.677 272.367 663.368 272.517 663.052 272.7V283H661.177V270.475H663.052V271.225C663.318 271.058 663.618 270.9 663.952 270.75C664.285 270.6 664.643 270.483 665.027 270.4C665.41 270.3 665.793 270.25 666.177 270.25C666.677 270.25 667.143 270.308 667.577 270.425C668.01 270.525 668.402 270.683 668.752 270.9C669.102 271.117 669.402 271.392 669.652 271.725C669.902 272.042 670.093 272.417 670.227 272.85C670.36 273.283 670.427 273.792 670.427 274.375V283H668.602V274.45ZM682.076 283C681.993 283.017 681.843 283.033 681.626 283.05C681.41 283.067 681.151 283.083 680.851 283.1C680.551 283.133 680.226 283.158 679.876 283.175C679.543 283.208 679.21 283.225 678.876 283.225C678.56 283.242 678.268 283.25 678.001 283.25C677.235 283.267 676.51 283.208 675.826 283.075C675.16 282.942 674.568 282.717 674.051 282.4C673.551 282.067 673.16 281.617 672.876 281.05C672.593 280.467 672.451 279.742 672.451 278.875V274.025C672.451 273.342 672.568 272.758 672.801 272.275C673.035 271.792 673.343 271.408 673.726 271.125C674.126 270.825 674.56 270.608 675.026 270.475C675.51 270.325 675.993 270.25 676.476 270.25C677.21 270.25 677.876 270.333 678.476 270.5C679.093 270.65 679.685 270.842 680.251 271.075V265.5H682.076V283ZM680.251 272.85C679.751 272.633 679.21 272.442 678.626 272.275C678.06 272.092 677.41 272 676.676 272C676.46 272 676.218 272.033 675.951 272.1C675.685 272.15 675.426 272.25 675.176 272.4C674.926 272.55 674.718 272.775 674.551 273.075C674.385 273.358 674.301 273.733 674.301 274.2V278.6C674.301 279.117 674.351 279.567 674.451 279.95C674.568 280.317 674.76 280.633 675.026 280.9C675.293 281.15 675.66 281.333 676.126 281.45C676.61 281.567 677.226 281.617 677.976 281.6C678.21 281.583 678.435 281.575 678.651 281.575C678.885 281.558 679.093 281.542 679.276 281.525C679.476 281.508 679.643 281.5 679.776 281.5C679.926 281.483 680.043 281.475 680.126 281.475C680.21 281.458 680.251 281.45 680.251 281.45V272.85ZM691.183 283V270.475H693.058V283H691.183ZM692.133 265.25C692.433 265.25 692.683 265.35 692.883 265.55C693.099 265.75 693.208 266 693.208 266.3C693.208 266.583 693.099 266.833 692.883 267.05C692.683 267.25 692.433 267.35 692.133 267.35C691.849 267.35 691.599 267.25 691.383 267.05C691.166 266.833 691.058 266.583 691.058 266.3C691.058 266 691.166 265.75 691.383 265.55C691.599 265.35 691.849 265.25 692.133 265.25ZM709.388 274.45C709.388 273.983 709.313 273.592 709.163 273.275C709.029 272.958 708.838 272.7 708.588 272.5C708.338 272.3 708.054 272.158 707.738 272.075C707.421 271.992 707.079 271.95 706.713 271.95C706.463 271.95 706.179 271.983 705.863 272.05C705.546 272.1 705.221 272.192 704.888 272.325C704.554 272.442 704.204 272.608 703.838 272.825C703.921 273.058 703.979 273.308 704.013 273.575C704.046 273.825 704.063 274.1 704.063 274.4V283H702.263V274.45C702.263 273.983 702.188 273.592 702.038 273.275C701.904 272.958 701.713 272.7 701.463 272.5C701.229 272.3 700.954 272.158 700.638 272.075C700.321 271.992 699.979 271.95 699.613 271.95C699.296 271.95 698.996 271.983 698.713 272.05C698.429 272.1 698.146 272.183 697.863 272.3C697.579 272.417 697.279 272.567 696.963 272.75V283H695.088V270.5H696.963V271.25C697.229 271.083 697.513 270.925 697.813 270.775C698.129 270.625 698.463 270.508 698.813 270.425C699.179 270.325 699.554 270.275 699.938 270.275C700.438 270.275 700.888 270.325 701.288 270.425C701.704 270.525 702.079 270.675 702.413 270.875C702.746 271.058 703.029 271.3 703.263 271.6C703.613 271.35 703.988 271.125 704.388 270.925C704.788 270.725 705.213 270.567 705.663 270.45C706.113 270.333 706.579 270.275 707.063 270.275C707.696 270.275 708.263 270.358 708.763 270.525C709.263 270.675 709.696 270.917 710.063 271.25C710.429 271.583 710.704 272.017 710.888 272.55C711.088 273.067 711.188 273.683 711.188 274.4V283H709.388V274.45ZM722.527 278.6C722.527 280.117 722.168 281.283 721.452 282.1C720.735 282.9 719.685 283.3 718.302 283.3C717.868 283.3 717.443 283.233 717.027 283.1C716.627 282.983 716.268 282.817 715.952 282.6C715.635 282.383 715.377 282.142 715.177 281.875V288.325L713.277 287.725V270.5H715.177V271.45C715.46 271.217 715.777 271.017 716.127 270.85C716.477 270.667 716.843 270.525 717.227 270.425C717.627 270.308 718.018 270.25 718.402 270.25C719.302 270.217 720.052 270.367 720.652 270.7C721.268 271.017 721.735 271.492 722.052 272.125C722.368 272.742 722.527 273.483 722.527 274.35V278.6ZM720.677 274.475C720.677 273.975 720.602 273.558 720.452 273.225C720.302 272.875 720.093 272.608 719.827 272.425C719.577 272.225 719.293 272.083 718.977 272C718.66 271.917 718.327 271.883 717.977 271.9C717.643 271.933 717.293 272.008 716.927 272.125C716.56 272.242 716.218 272.392 715.902 272.575C715.602 272.758 715.36 272.975 715.177 273.225V278.925C715.177 279.358 715.26 279.742 715.427 280.075C715.593 280.408 715.818 280.692 716.102 280.925C716.402 281.142 716.727 281.308 717.077 281.425C717.443 281.542 717.818 281.6 718.202 281.6C718.735 281.6 719.185 281.5 719.552 281.3C719.918 281.083 720.193 280.775 720.377 280.375C720.577 279.975 720.677 279.475 720.677 278.875V274.475ZM724.63 283V265.5H726.48V283H724.63ZM730.43 279.525C730.43 279.892 730.489 280.208 730.605 280.475C730.722 280.742 730.88 280.967 731.08 281.15C731.297 281.317 731.547 281.442 731.83 281.525C732.13 281.608 732.447 281.65 732.78 281.65C733.347 281.65 733.922 281.55 734.505 281.35C735.105 281.15 735.697 280.9 736.28 280.6L736.98 282.125C736.38 282.492 735.705 282.783 734.955 283C734.222 283.2 733.514 283.3 732.83 283.3C732.214 283.3 731.639 283.233 731.105 283.1C730.589 282.983 730.139 282.783 729.755 282.5C729.389 282.2 729.097 281.817 728.88 281.35C728.68 280.883 728.58 280.317 728.58 279.65V274.525C728.58 273.575 728.78 272.783 729.18 272.15C729.58 271.517 730.13 271.042 730.83 270.725C731.53 270.408 732.322 270.25 733.205 270.25C734.089 270.25 734.855 270.408 735.505 270.725C736.172 271.025 736.689 271.492 737.055 272.125C737.422 272.742 737.605 273.517 737.605 274.45V277.9L730.43 278.275V279.525ZM735.73 274.575C735.73 274.058 735.63 273.6 735.43 273.2C735.23 272.8 734.939 272.483 734.555 272.25C734.172 272.017 733.714 271.9 733.18 271.9C732.58 271.917 732.072 272.042 731.655 272.275C731.255 272.492 730.947 272.808 730.73 273.225C730.53 273.642 730.43 274.15 730.43 274.75V276.525L735.73 276.275V274.575ZM753.895 274.45C753.895 273.983 753.82 273.592 753.67 273.275C753.536 272.958 753.345 272.7 753.095 272.5C752.845 272.3 752.561 272.158 752.245 272.075C751.928 271.992 751.586 271.95 751.22 271.95C750.97 271.95 750.686 271.983 750.37 272.05C750.053 272.1 749.728 272.192 749.395 272.325C749.061 272.442 748.711 272.608 748.345 272.825C748.428 273.058 748.486 273.308 748.52 273.575C748.553 273.825 748.57 274.1 748.57 274.4V283H746.77V274.45C746.77 273.983 746.695 273.592 746.545 273.275C746.411 272.958 746.22 272.7 745.97 272.5C745.736 272.3 745.461 272.158 745.145 272.075C744.828 271.992 744.486 271.95 744.12 271.95C743.803 271.95 743.503 271.983 743.22 272.05C742.936 272.1 742.653 272.183 742.37 272.3C742.086 272.417 741.786 272.567 741.47 272.75V283H739.595V270.5H741.47V271.25C741.736 271.083 742.02 270.925 742.32 270.775C742.636 270.625 742.97 270.508 743.32 270.425C743.686 270.325 744.061 270.275 744.445 270.275C744.945 270.275 745.395 270.325 745.795 270.425C746.211 270.525 746.586 270.675 746.92 270.875C747.253 271.058 747.536 271.3 747.77 271.6C748.12 271.35 748.495 271.125 748.895 270.925C749.295 270.725 749.72 270.567 750.17 270.45C750.62 270.333 751.086 270.275 751.57 270.275C752.203 270.275 752.77 270.358 753.27 270.525C753.77 270.675 754.203 270.917 754.57 271.25C754.936 271.583 755.211 272.017 755.395 272.55C755.595 273.067 755.695 273.683 755.695 274.4V283H753.895V274.45ZM759.581 279.525C759.581 279.892 759.639 280.208 759.756 280.475C759.872 280.742 760.031 280.967 760.231 281.15C760.447 281.317 760.697 281.442 760.981 281.525C761.281 281.608 761.597 281.65 761.931 281.65C762.497 281.65 763.072 281.55 763.656 281.35C764.256 281.15 764.847 280.9 765.431 280.6L766.131 282.125C765.531 282.492 764.856 282.783 764.106 283C763.372 283.2 762.664 283.3 761.981 283.3C761.364 283.3 760.789 283.233 760.256 283.1C759.739 282.983 759.289 282.783 758.906 282.5C758.539 282.2 758.247 281.817 758.031 281.35C757.831 280.883 757.731 280.317 757.731 279.65V274.525C757.731 273.575 757.931 272.783 758.331 272.15C758.731 271.517 759.281 271.042 759.981 270.725C760.681 270.408 761.472 270.25 762.356 270.25C763.239 270.25 764.006 270.408 764.656 270.725C765.322 271.025 765.839 271.492 766.206 272.125C766.572 272.742 766.756 273.517 766.756 274.45V277.9L759.581 278.275V279.525ZM764.881 274.575C764.881 274.058 764.781 273.6 764.581 273.2C764.381 272.8 764.089 272.483 763.706 272.25C763.322 272.017 762.864 271.9 762.331 271.9C761.731 271.917 761.222 272.042 760.806 272.275C760.406 272.492 760.097 272.808 759.881 273.225C759.681 273.642 759.581 274.15 759.581 274.75V276.525L764.881 276.275V274.575ZM776.17 274.45C776.17 273.983 776.095 273.592 775.945 273.275C775.795 272.958 775.587 272.7 775.32 272.5C775.053 272.3 774.753 272.158 774.42 272.075C774.103 271.975 773.762 271.925 773.395 271.925C773.078 271.925 772.762 271.95 772.445 272C772.145 272.05 771.845 272.133 771.545 272.25C771.245 272.367 770.937 272.517 770.62 272.7V283H768.745V270.475H770.62V271.225C770.887 271.058 771.187 270.9 771.52 270.75C771.853 270.6 772.212 270.483 772.595 270.4C772.978 270.3 773.362 270.25 773.745 270.25C774.245 270.25 774.712 270.308 775.145 270.425C775.578 270.525 775.97 270.683 776.32 270.9C776.67 271.117 776.97 271.392 777.22 271.725C777.47 272.042 777.662 272.417 777.795 272.85C777.928 273.283 777.995 273.792 777.995 274.375V283H776.17V274.45ZM781.973 279.7C781.973 280.117 782.04 280.475 782.173 280.775C782.306 281.058 782.498 281.292 782.748 281.475C782.998 281.658 783.315 281.792 783.698 281.875L783.123 283.325C782.09 283.125 781.323 282.733 780.823 282.15C780.34 281.55 780.098 280.733 780.098 279.7V265.5H781.973V270.5H784.798L784.198 272.2H781.973V279.7ZM792.407 274.375C792.407 273.808 792.324 273.342 792.157 272.975C791.99 272.608 791.749 272.333 791.432 272.15C791.115 271.95 790.749 271.817 790.332 271.75C789.915 271.667 789.457 271.625 788.957 271.625L789.057 270.275C790.057 270.275 790.89 270.367 791.557 270.55C792.224 270.733 792.749 271.033 793.132 271.45C793.532 271.85 793.815 272.4 793.982 273.1C794.165 273.783 794.257 274.633 794.257 275.65V283C794.19 283.017 794.04 283.033 793.807 283.05C793.59 283.067 793.332 283.083 793.032 283.1C792.732 283.133 792.407 283.158 792.057 283.175C791.724 283.208 791.39 283.225 791.057 283.225C790.724 283.242 790.415 283.25 790.132 283.25C789.365 283.267 788.649 283.208 787.982 283.075C787.315 282.958 786.732 282.742 786.232 282.425C785.732 282.092 785.34 281.642 785.057 281.075C784.774 280.492 784.632 279.758 784.632 278.875V276.7C784.632 276.017 784.732 275.442 784.932 274.975C785.132 274.492 785.407 274.1 785.757 273.8C786.107 273.5 786.499 273.283 786.932 273.15C787.382 273.017 787.849 272.95 788.332 272.95C788.832 272.95 789.332 273.017 789.832 273.15C790.332 273.267 790.799 273.433 791.232 273.65C791.682 273.85 792.074 274.092 792.407 274.375ZM792.407 275.85C792.09 275.667 791.715 275.492 791.282 275.325C790.865 275.142 790.415 274.992 789.932 274.875C789.465 274.742 788.99 274.675 788.507 274.675C788.307 274.675 788.09 274.708 787.857 274.775C787.624 274.825 787.399 274.925 787.182 275.075C786.982 275.225 786.815 275.442 786.682 275.725C786.549 276.008 786.482 276.383 786.482 276.85V278.625C786.482 279.125 786.532 279.567 786.632 279.95C786.732 280.333 786.915 280.658 787.182 280.925C787.449 281.175 787.824 281.358 788.307 281.475C788.79 281.592 789.399 281.633 790.132 281.6C790.382 281.6 790.615 281.592 790.832 281.575C791.065 281.558 791.274 281.542 791.457 281.525C791.657 281.508 791.824 281.5 791.957 281.5C792.107 281.483 792.215 281.475 792.282 281.475C792.365 281.458 792.407 281.45 792.407 281.45V275.85ZM798.257 279.7C798.257 280.117 798.324 280.475 798.457 280.775C798.591 281.058 798.782 281.292 799.032 281.475C799.282 281.658 799.599 281.792 799.982 281.875L799.407 283.325C798.374 283.125 797.607 282.733 797.107 282.15C796.624 281.55 796.382 280.733 796.382 279.7V265.5H798.257V270.5H801.082L800.482 272.2H798.257V279.7ZM802.926 283V270.475H804.801V283H802.926ZM803.876 265.25C804.176 265.25 804.426 265.35 804.626 265.55C804.842 265.75 804.951 266 804.951 266.3C804.951 266.583 804.842 266.833 804.626 267.05C804.426 267.25 804.176 267.35 803.876 267.35C803.592 267.35 803.342 267.25 803.126 267.05C802.909 266.833 802.801 266.583 802.801 266.3C802.801 266 802.909 265.75 803.126 265.55C803.342 265.35 803.592 265.25 803.876 265.25ZM816.027 278.375C816.027 279.842 815.652 281.025 814.902 281.925C814.152 282.808 813.011 283.25 811.477 283.25C810.427 283.25 809.552 283.025 808.852 282.575C808.152 282.125 807.627 281.533 807.277 280.8C806.944 280.067 806.777 279.258 806.777 278.375V275.1C806.777 274.033 806.952 273.142 807.302 272.425C807.669 271.692 808.202 271.142 808.902 270.775C809.602 270.392 810.452 270.2 811.452 270.2C812.919 270.2 814.044 270.633 814.827 271.5C815.627 272.367 816.027 273.567 816.027 275.1V278.375ZM814.152 275.05C814.152 274.383 814.052 273.825 813.852 273.375C813.669 272.908 813.377 272.558 812.977 272.325C812.594 272.075 812.094 271.95 811.477 271.95C810.861 271.95 810.336 272.067 809.902 272.3C809.486 272.533 809.169 272.883 808.952 273.35C808.736 273.8 808.627 274.367 808.627 275.05V278.6C808.627 279.167 808.736 279.667 808.952 280.1C809.186 280.533 809.519 280.875 809.952 281.125C810.386 281.375 810.894 281.5 811.477 281.5C812.077 281.5 812.577 281.383 812.977 281.15C813.377 280.917 813.669 280.583 813.852 280.15C814.052 279.7 814.152 279.183 814.152 278.6V275.05ZM825.462 274.45C825.462 273.983 825.387 273.592 825.237 273.275C825.087 272.958 824.879 272.7 824.612 272.5C824.345 272.3 824.045 272.158 823.712 272.075C823.395 271.975 823.054 271.925 822.687 271.925C822.37 271.925 822.054 271.95 821.737 272C821.437 272.05 821.137 272.133 820.837 272.25C820.537 272.367 820.229 272.517 819.912 272.7V283H818.037V270.475H819.912V271.225C820.179 271.058 820.479 270.9 820.812 270.75C821.145 270.6 821.504 270.483 821.887 270.4C822.27 270.3 822.654 270.25 823.037 270.25C823.537 270.25 824.004 270.308 824.437 270.425C824.87 270.525 825.262 270.683 825.612 270.9C825.962 271.117 826.262 271.392 826.512 271.725C826.762 272.042 826.954 272.417 827.087 272.85C827.22 273.283 827.287 273.792 827.287 274.375V283H825.462V274.45ZM636.825 308.5C636.542 308.383 636.25 308.292 635.95 308.225C635.667 308.142 635.383 308.083 635.1 308.05C634.817 308.017 634.533 308 634.25 308C633.533 308 632.908 308.108 632.375 308.325C631.858 308.542 631.458 308.883 631.175 309.35C630.892 309.817 630.75 310.433 630.75 311.2V319.325C630.75 319.992 630.858 320.558 631.075 321.025C631.308 321.492 631.65 321.85 632.1 322.1C632.55 322.333 633.108 322.45 633.775 322.45C634.292 322.45 634.767 322.375 635.2 322.225C635.633 322.075 636.008 321.867 636.325 321.6C636.658 321.333 636.917 321.008 637.1 320.625C637.283 320.225 637.375 319.792 637.375 319.325V318.275H634.75L634.125 316.5H639.175V324H637.675L637.575 322.925C637.275 323.208 636.917 323.45 636.5 323.65C636.083 323.85 635.642 324 635.175 324.1C634.708 324.2 634.25 324.25 633.8 324.25C632.85 324.25 632 324.075 631.25 323.725C630.517 323.358 629.933 322.817 629.5 322.1C629.083 321.367 628.875 320.45 628.875 319.35V311.4C628.875 310.3 629.067 309.367 629.45 308.6C629.85 307.833 630.417 307.258 631.15 306.875C631.9 306.475 632.808 306.275 633.875 306.275C634.308 306.275 634.725 306.308 635.125 306.375C635.525 306.425 635.917 306.517 636.3 306.65C636.683 306.767 637.05 306.917 637.4 307.1L636.825 308.5ZM641.082 311.3C641.082 309.6 641.557 308.308 642.507 307.425C643.457 306.542 644.757 306.1 646.407 306.1C648.057 306.1 649.34 306.567 650.257 307.5C651.174 308.417 651.632 309.692 651.632 311.325V319.35C651.632 320.367 651.407 321.242 650.957 321.975C650.524 322.708 649.907 323.275 649.107 323.675C648.324 324.075 647.415 324.275 646.382 324.275C645.399 324.275 644.507 324.092 643.707 323.725C642.907 323.358 642.265 322.808 641.782 322.075C641.315 321.342 641.082 320.433 641.082 319.35V311.3ZM642.957 319.175C642.957 319.875 643.099 320.475 643.382 320.975C643.665 321.458 644.057 321.825 644.557 322.075C645.074 322.325 645.665 322.45 646.332 322.45C647.015 322.45 647.615 322.333 648.132 322.1C648.649 321.85 649.049 321.475 649.332 320.975C649.615 320.475 649.757 319.867 649.757 319.15V311.425C649.757 310.642 649.624 310 649.357 309.5C649.107 308.983 648.724 308.6 648.207 308.35C647.707 308.083 647.082 307.95 646.332 307.95C645.632 307.95 645.024 308.083 644.507 308.35C644.007 308.6 643.624 308.983 643.357 309.5C643.09 310 642.957 310.642 642.957 311.425V319.175ZM653.708 324V306.5H655.583V322.325H662.733V324H653.708ZM669.395 306.5C670.645 306.5 671.695 306.733 672.545 307.2C673.411 307.65 674.07 308.3 674.52 309.15C674.97 309.983 675.195 310.975 675.195 312.125V318.95C675.195 320.05 674.995 320.975 674.595 321.725C674.211 322.475 673.628 323.042 672.845 323.425C672.061 323.808 671.078 324 669.895 324H664.67V306.5H669.395ZM669.495 322.325C670.211 322.325 670.811 322.25 671.295 322.1C671.795 321.95 672.186 321.742 672.47 321.475C672.77 321.192 672.986 320.858 673.12 320.475C673.253 320.075 673.32 319.65 673.32 319.2V311.8C673.32 311.117 673.195 310.508 672.945 309.975C672.695 309.442 672.295 309.025 671.745 308.725C671.211 308.425 670.511 308.275 669.645 308.275H666.545V322.325H669.495ZM677.267 324V306.5H685.617V308.275H679.142V313.675H683.442L682.892 315.475H679.142V322.325H685.567V324H677.267ZM699.944 306.5V324H698.094L689.494 310.1V324H687.619V306.5H689.494L698.094 320.525V306.5H699.944ZM706.821 306.5C708.071 306.5 709.121 306.733 709.971 307.2C710.838 307.65 711.496 308.3 711.946 309.15C712.396 309.983 712.621 310.975 712.621 312.125V318.95C712.621 320.05 712.421 320.975 712.021 321.725C711.638 322.475 711.055 323.042 710.271 323.425C709.488 323.808 708.505 324 707.321 324H702.096V306.5H706.821ZM706.921 322.325C707.638 322.325 708.238 322.25 708.721 322.1C709.221 321.95 709.613 321.742 709.896 321.475C710.196 321.192 710.413 320.858 710.546 320.475C710.68 320.075 710.746 319.65 710.746 319.2V311.8C710.746 311.117 710.621 310.508 710.371 309.975C710.121 309.442 709.721 309.025 709.171 308.725C708.638 308.425 707.938 308.275 707.071 308.275H703.971V322.325H706.921ZM712.68 308.2V306.5H716.23V324H714.38V308.25L712.68 308.2ZM718.38 324V306.5H726.73V308.275H720.255V313.675H724.555L724.005 315.475H720.255V322.325H726.68V324H718.38Z" fill="#969284"/>
<path d="M574.929 211.116L560.266 225.646C559.686 225.318 559.289 224.712 559.289 224.006V212.034C559.289 210.985 560.133 210.148 561.192 210.148H573.274C573.985 210.148 574.598 210.542 574.929 211.116Z" fill="#4390BD"/>
<path d="M575.177 212.035V224.007C575.177 225.04 574.317 225.893 573.274 225.893H561.192C560.845 225.893 560.53 225.811 560.266 225.647L574.929 211.116C575.078 211.379 575.177 211.69 575.177 212.035Z" fill="#265C84"/>
<path d="M611.174 223.236C607.417 228.714 592.919 225.417 578.785 215.905C564.652 206.36 556.244 194.208 560.001 188.73C562.881 184.548 572.447 185.45 583.386 190.83L580.076 193.978C577.097 193.175 574.697 193.683 573.82 194.946C572.496 196.881 574.102 200.407 577.577 204.032C578.256 204.737 579.017 205.458 579.828 206.147L580.06 206.344C580.556 206.77 581.086 207.197 581.615 207.59C581.897 207.804 582.178 208.017 582.459 208.214C582.575 208.296 582.674 208.378 582.79 208.443C582.906 208.525 583.022 208.607 583.138 208.689C583.254 208.771 583.386 208.87 583.502 208.952C583.667 209.066 583.85 209.181 584.015 209.296C584.76 209.788 585.505 210.247 586.249 210.657C586.829 210.985 587.391 211.28 587.954 211.559L588.053 211.608C588.732 211.936 589.41 212.248 590.072 212.51C594.839 214.478 598.877 214.692 600.217 212.724C601.343 211.084 600.35 208.296 597.917 205.262H603.544C610.528 212.428 613.772 219.448 611.174 223.236Z" fill="#605C54"/>
<path d="M611.817 188.304V194.29H591.908L582.143 203.966C581.432 203.359 580.786 202.769 580.223 202.195C578.188 200.145 577.095 198.373 576.715 197.324L586.595 187.517C587.307 186.811 588.283 186.401 589.293 186.401H609.931C610.973 186.418 611.817 187.271 611.817 188.304Z" fill="#4390BD"/>
<path d="M611.82 194.29V200.276C611.82 201.326 610.959 202.162 609.916 202.162H596.875C596.362 202.162 595.882 202.359 595.518 202.72L589.427 208.788C588.137 208.148 586.763 207.361 585.323 206.377C584.893 206.082 584.479 205.803 584.082 205.508C583.37 204.999 582.725 204.491 582.129 203.982L591.893 194.306H611.82V194.29Z" fill="#265C84"/>
<path d="M637.207 218.857C632.722 218.857 629.313 217.774 626.963 215.577C624.613 213.396 623.438 210.28 623.438 206.229C623.438 202.047 624.646 198.816 627.079 196.553C629.495 194.29 633.036 193.142 637.704 193.142C639.259 193.142 640.683 193.24 641.94 193.42C643.198 193.601 644.39 193.88 645.515 194.24V200.472C644.373 200.03 643.182 199.734 641.957 199.587C640.732 199.439 639.474 199.357 638.2 199.357C635.784 199.357 633.963 199.898 632.755 200.981C631.547 202.063 630.935 203.818 630.935 206.245C630.935 208.525 631.464 210.148 632.523 211.165C633.583 212.166 635.138 212.674 637.191 212.674C637.869 212.674 638.498 212.625 639.11 212.543C639.706 212.461 640.269 212.33 640.798 212.182V208.541H635.8V204.031H646.939V216.577C645.979 217.168 644.688 217.692 643.082 218.168C641.477 218.627 639.524 218.857 637.207 218.857Z" fill="#605C54"/>
<path d="M662.133 218.857C657.962 218.857 654.785 217.856 652.583 215.839C650.382 213.822 649.273 210.575 649.273 206.081C649.273 202.982 649.77 200.489 650.763 198.586C651.756 196.684 653.212 195.306 655.116 194.437C657.035 193.568 659.369 193.142 662.133 193.142C664.897 193.142 667.23 193.568 669.15 194.437C671.07 195.306 672.51 196.684 673.503 198.586C674.496 200.489 674.992 202.982 674.992 206.081C674.992 210.575 673.883 213.822 671.666 215.839C669.464 217.84 666.287 218.857 662.133 218.857ZM662.133 212.658C664.003 212.658 665.377 212.133 666.221 211.083C667.065 210.034 667.495 208.361 667.495 206.065C667.495 203.605 667.065 201.883 666.221 200.85C665.377 199.833 664.019 199.324 662.133 199.324C660.246 199.324 658.889 199.833 658.045 200.85C657.201 201.866 656.771 203.605 656.771 206.065C656.771 208.361 657.201 210.034 658.045 211.083C658.906 212.133 660.263 212.658 662.133 212.658Z" fill="#605C54"/>
<path d="M678.117 218.463V193.535H685.465V212.887H696.802V218.463H678.117Z" fill="#605C54"/>
<path d="M699.137 218.463V193.535H710.391C712.973 193.535 715.174 193.962 716.994 194.798C718.815 195.634 720.205 196.979 721.181 198.832C722.141 200.686 722.621 203.129 722.621 206.163C722.621 210.444 721.562 213.576 719.46 215.528C717.342 217.496 714.33 218.463 710.391 218.463H699.137ZM706.485 212.887H709.447C710.672 212.887 711.698 212.707 712.542 212.362C713.37 212.018 714.015 211.362 714.462 210.394C714.909 209.427 715.124 208.016 715.124 206.147C715.124 204.294 714.925 202.85 714.512 201.834C714.114 200.817 713.486 200.112 712.658 199.702C711.831 199.308 710.755 199.095 709.447 199.095H706.485V212.887Z" fill="#605C54"/>
<path d="M725.75 218.463V193.535H744.816V199.111H733.098V203.178H743.376V208.836H733.098V212.887H744.816V218.463H725.75Z" fill="#605C54"/>
<path d="M747.562 218.463V193.535H753.818L763.318 206.737V193.535H770.666V218.463H764.377L754.927 205.294V218.463H747.562Z" fill="#605C54"/>
<path d="M782.965 218.463V193.535H794.219C796.801 193.535 799.002 193.962 800.822 194.798C802.643 195.634 804.033 196.979 805.009 198.832C805.969 200.686 806.449 203.129 806.449 206.163C806.449 210.444 805.39 213.576 803.288 215.528C801.17 217.496 798.158 218.463 794.219 218.463H782.965ZM790.313 212.887H793.275C794.5 212.887 795.526 212.707 796.37 212.362C797.198 212.018 797.843 211.362 798.29 210.394C798.737 209.427 798.952 208.016 798.952 206.147C798.952 204.294 798.754 202.85 798.34 201.834C797.943 200.817 797.314 200.112 796.486 199.702C795.659 199.308 794.583 199.095 793.275 199.095H790.313V212.887Z" fill="#605C54"/>
<path d="M809.574 218.463V193.535H816.922V218.463H809.574Z" fill="#605C54"/>
<path d="M820.828 218.463V193.535H839.894V199.111H828.176V203.178H838.454V208.836H828.176V212.887H839.894V218.463H820.828Z" fill="#605C54"/>
<path d="M1121.87 2.185C1126.77 2.185 1128.98 5.335 1128.98 10.15C1128.98 19.645 1118.31 23.065 1118.27 30.31V30.805H1128.62V34H1114.8V31.3C1114.8 21.13 1125.47 19.15 1125.47 10.285C1125.47 7.045 1124.39 5.335 1121.78 5.335C1119.21 5.335 1118.09 7.18 1118.09 9.97V12.76H1114.8V10.195C1114.8 5.38 1117.01 2.185 1121.87 2.185ZM1131.93 26.35V10.105C1131.93 5.29 1134.32 2.185 1139.13 2.185C1143.99 2.185 1146.38 5.29 1146.38 10.105V26.35C1146.38 31.165 1143.99 34.315 1139.13 34.315C1134.32 34.315 1131.93 31.165 1131.93 26.35ZM1135.4 9.925V26.575C1135.4 29.41 1136.61 31.12 1139.13 31.12C1141.7 31.12 1142.87 29.41 1142.87 26.575V9.925C1142.87 7.045 1141.7 5.335 1139.13 5.335C1136.61 5.335 1135.4 7.045 1135.4 9.925ZM1156.76 2.185C1161.66 2.185 1163.87 5.335 1163.87 10.15C1163.87 19.645 1153.2 23.065 1153.16 30.31V30.805H1163.51V34H1149.69V31.3C1149.69 21.13 1160.36 19.15 1160.36 10.285C1160.36 7.045 1159.28 5.335 1156.67 5.335C1154.1 5.335 1152.98 7.18 1152.98 9.97V12.76H1149.69V10.195C1149.69 5.38 1151.9 2.185 1156.76 2.185ZM1182.39 27.655H1179.87V34H1176.45V27.655H1166.28V24.46L1176.05 2.5H1179.87V24.46H1182.39V27.655ZM1176.45 9.07L1169.52 24.46H1176.45V9.07Z" fill="#544B3C"/>
<path d="M1116.15 103.1C1117.06 103.1 1117.71 103.366 1118.1 103.899C1118.5 104.42 1118.7 105.117 1118.7 105.99V107.282C1118.7 108.234 1118.47 108.942 1118.03 109.407C1117.59 109.872 1116.89 110.104 1115.94 110.104H1114.46V115H1113.68V103.1H1116.15ZM1115.94 109.39C1116.63 109.39 1117.13 109.231 1117.44 108.914C1117.75 108.585 1117.91 108.058 1117.91 107.333V105.939C1117.91 105.293 1117.78 104.777 1117.52 104.392C1117.27 104.007 1116.81 103.814 1116.15 103.814H1114.46V109.39H1115.94ZM1123.48 115V103.1H1124.26V114.286H1128V115H1123.48ZM1133.88 112.365L1133.28 115H1132.57L1135.17 103.083H1136.31L1138.96 115H1138.18L1137.58 112.365H1133.88ZM1134 111.685H1137.47L1135.71 103.984L1134 111.685ZM1144.43 115H1143.71V103.1H1144.73L1148.3 113.147V103.1H1149.02V115H1148.15L1144.43 104.392V115ZM1154.64 115H1153.92V103.1H1154.94L1158.51 113.147V103.1H1159.23V115H1158.36L1154.64 104.392V115ZM1168.16 108.608V109.322H1164.92V114.286H1168.83V115H1164.14V103.1H1168.83V103.814H1164.92V108.608H1168.16ZM1176.28 103.1C1176.74 103.1 1177.13 103.174 1177.46 103.321C1177.8 103.457 1178.07 103.655 1178.29 103.916C1178.5 104.177 1178.66 104.488 1178.77 104.851C1178.87 105.214 1178.92 105.616 1178.92 106.058V112.042C1178.92 112.484 1178.87 112.886 1178.77 113.249C1178.66 113.612 1178.5 113.923 1178.29 114.184C1178.07 114.445 1177.8 114.649 1177.46 114.796C1177.13 114.932 1176.74 115 1176.28 115H1173.67V103.1H1176.28ZM1176.27 114.286C1176.94 114.286 1177.41 114.082 1177.69 113.674C1177.99 113.266 1178.14 112.733 1178.14 112.076V106.024C1178.14 105.367 1177.99 104.834 1177.69 104.426C1177.4 104.018 1176.92 103.814 1176.27 103.814H1174.45V114.286H1176.27Z" fill="#605C54"/>
<path d="M1483.53 111.53C1483.82 111.237 1483.82 110.763 1483.53 110.47L1478.76 105.697C1478.46 105.404 1477.99 105.404 1477.7 105.697C1477.4 105.99 1477.4 106.464 1477.7 106.757L1481.94 111L1477.7 115.243C1477.4 115.536 1477.4 116.01 1477.7 116.303C1477.99 116.596 1478.46 116.596 1478.76 116.303L1483.53 111.53ZM1482 111.75L1483 111.75L1483 110.25L1482 110.25L1482 111.75Z" fill="#82653E"/>
<g filter="url(#filter5_b_5_4122)">
<circle cx="1039.5" cy="207.5" r="45" stroke="#1E1F20" stroke-width="13"/>
</g>
<path d="M1111.42 265.5C1112.36 265.5 1113.17 265.667 1113.85 266C1114.53 266.317 1115.06 266.792 1115.43 267.425C1115.79 268.058 1115.98 268.85 1115.98 269.8C1115.98 270.317 1115.91 270.792 1115.78 271.225C1115.64 271.642 1115.45 272.025 1115.2 272.375C1114.95 272.708 1114.64 273.008 1114.28 273.275C1114.78 273.492 1115.22 273.808 1115.6 274.225C1116 274.625 1116.32 275.125 1116.55 275.725C1116.78 276.325 1116.9 277.017 1116.9 277.8C1116.9 278.867 1116.7 279.792 1116.3 280.575C1115.9 281.358 1115.32 281.958 1114.55 282.375C1113.78 282.792 1112.83 283 1111.7 283H1106.03V265.5H1111.42ZM1111.03 272.675C1111.69 272.675 1112.23 272.575 1112.65 272.375C1113.08 272.158 1113.4 271.85 1113.6 271.45C1113.82 271.033 1113.93 270.533 1113.93 269.95C1113.93 269.333 1113.82 268.833 1113.6 268.45C1113.38 268.067 1113.06 267.783 1112.63 267.6C1112.19 267.4 1111.64 267.3 1110.98 267.3H1107.9V272.675H1111.03ZM1111.42 281.275C1112.11 281.275 1112.7 281.158 1113.2 280.925C1113.7 280.675 1114.09 280.283 1114.38 279.75C1114.68 279.217 1114.83 278.542 1114.83 277.725C1114.83 277.092 1114.7 276.533 1114.45 276.05C1114.22 275.567 1113.86 275.183 1113.38 274.9C1112.91 274.617 1112.33 274.475 1111.63 274.475H1107.9V281.275H1111.42ZM1125.81 271.9C1125.81 271.9 1125.71 271.883 1125.49 271.85C1125.29 271.817 1125.01 271.808 1124.66 271.825C1124.35 271.842 1124.01 271.883 1123.64 271.95C1123.29 272 1122.94 272.075 1122.59 272.175C1122.24 272.275 1121.91 272.392 1121.59 272.525C1121.29 272.658 1121.01 272.8 1120.76 272.95V283H1118.89V270.475H1120.76V271.2C1121.31 270.917 1121.9 270.683 1122.51 270.5C1123.13 270.317 1123.82 270.208 1124.59 270.175C1124.92 270.158 1125.21 270.175 1125.46 270.225C1125.73 270.275 1125.91 270.317 1126.01 270.35L1125.81 271.9ZM1134.2 274.375C1134.2 273.808 1134.12 273.342 1133.95 272.975C1133.79 272.608 1133.54 272.333 1133.23 272.15C1132.91 271.95 1132.54 271.817 1132.13 271.75C1131.71 271.667 1131.25 271.625 1130.75 271.625L1130.85 270.275C1131.85 270.275 1132.69 270.367 1133.35 270.55C1134.02 270.733 1134.54 271.033 1134.93 271.45C1135.33 271.85 1135.61 272.4 1135.78 273.1C1135.96 273.783 1136.05 274.633 1136.05 275.65V283C1135.99 283.017 1135.84 283.033 1135.6 283.05C1135.39 283.067 1135.13 283.083 1134.83 283.1C1134.53 283.133 1134.2 283.158 1133.85 283.175C1133.52 283.208 1133.19 283.225 1132.85 283.225C1132.52 283.242 1132.21 283.25 1131.93 283.25C1131.16 283.267 1130.44 283.208 1129.78 283.075C1129.11 282.958 1128.53 282.742 1128.03 282.425C1127.53 282.092 1127.14 281.642 1126.85 281.075C1126.57 280.492 1126.43 279.758 1126.43 278.875V276.7C1126.43 276.017 1126.53 275.442 1126.73 274.975C1126.93 274.492 1127.2 274.1 1127.55 273.8C1127.9 273.5 1128.29 273.283 1128.73 273.15C1129.18 273.017 1129.64 272.95 1130.13 272.95C1130.63 272.95 1131.13 273.017 1131.63 273.15C1132.13 273.267 1132.59 273.433 1133.03 273.65C1133.48 273.85 1133.87 274.092 1134.2 274.375ZM1134.2 275.85C1133.89 275.667 1133.51 275.492 1133.08 275.325C1132.66 275.142 1132.21 274.992 1131.73 274.875C1131.26 274.742 1130.79 274.675 1130.3 274.675C1130.1 274.675 1129.89 274.708 1129.65 274.775C1129.42 274.825 1129.19 274.925 1128.98 275.075C1128.78 275.225 1128.61 275.442 1128.48 275.725C1128.34 276.008 1128.28 276.383 1128.28 276.85V278.625C1128.28 279.125 1128.33 279.567 1128.43 279.95C1128.53 280.333 1128.71 280.658 1128.98 280.925C1129.24 281.175 1129.62 281.358 1130.1 281.475C1130.59 281.592 1131.19 281.633 1131.93 281.6C1132.18 281.6 1132.41 281.592 1132.63 281.575C1132.86 281.558 1133.07 281.542 1133.25 281.525C1133.45 281.508 1133.62 281.5 1133.75 281.5C1133.9 281.483 1134.01 281.475 1134.08 281.475C1134.16 281.458 1134.2 281.45 1134.2 281.45V275.85ZM1145.6 274.45C1145.6 273.983 1145.53 273.592 1145.38 273.275C1145.23 272.958 1145.02 272.7 1144.75 272.5C1144.48 272.3 1144.18 272.158 1143.85 272.075C1143.53 271.975 1143.19 271.925 1142.83 271.925C1142.51 271.925 1142.19 271.95 1141.88 272C1141.58 272.05 1141.28 272.133 1140.98 272.25C1140.68 272.367 1140.37 272.517 1140.05 272.7V283H1138.18V270.475H1140.05V271.225C1140.32 271.058 1140.62 270.9 1140.95 270.75C1141.28 270.6 1141.64 270.483 1142.03 270.4C1142.41 270.3 1142.79 270.25 1143.18 270.25C1143.68 270.25 1144.14 270.308 1144.58 270.425C1145.01 270.525 1145.4 270.683 1145.75 270.9C1146.1 271.117 1146.4 271.392 1146.65 271.725C1146.9 272.042 1147.09 272.417 1147.23 272.85C1147.36 273.283 1147.43 273.792 1147.43 274.375V283H1145.6V274.45ZM1159.08 283C1158.99 283.017 1158.84 283.033 1158.63 283.05C1158.41 283.067 1158.15 283.083 1157.85 283.1C1157.55 283.133 1157.23 283.158 1156.88 283.175C1156.54 283.208 1156.21 283.225 1155.88 283.225C1155.56 283.242 1155.27 283.25 1155 283.25C1154.23 283.267 1153.51 283.208 1152.83 283.075C1152.16 282.942 1151.57 282.717 1151.05 282.4C1150.55 282.067 1150.16 281.617 1149.88 281.05C1149.59 280.467 1149.45 279.742 1149.45 278.875V274.025C1149.45 273.342 1149.57 272.758 1149.8 272.275C1150.03 271.792 1150.34 271.408 1150.73 271.125C1151.13 270.825 1151.56 270.608 1152.03 270.475C1152.51 270.325 1152.99 270.25 1153.48 270.25C1154.21 270.25 1154.88 270.333 1155.48 270.5C1156.09 270.65 1156.68 270.842 1157.25 271.075V265.5H1159.08V283ZM1157.25 272.85C1156.75 272.633 1156.21 272.442 1155.63 272.275C1155.06 272.092 1154.41 272 1153.68 272C1153.46 272 1153.22 272.033 1152.95 272.1C1152.68 272.15 1152.43 272.25 1152.18 272.4C1151.93 272.55 1151.72 272.775 1151.55 273.075C1151.38 273.358 1151.3 273.733 1151.3 274.2V278.6C1151.3 279.117 1151.35 279.567 1151.45 279.95C1151.57 280.317 1151.76 280.633 1152.03 280.9C1152.29 281.15 1152.66 281.333 1153.13 281.45C1153.61 281.567 1154.23 281.617 1154.98 281.6C1155.21 281.583 1155.43 281.575 1155.65 281.575C1155.88 281.558 1156.09 281.542 1156.28 281.525C1156.48 281.508 1156.64 281.5 1156.78 281.5C1156.93 281.483 1157.04 281.475 1157.13 281.475C1157.21 281.458 1157.25 281.45 1157.25 281.45V272.85ZM1168.18 283V270.475H1170.06V283H1168.18ZM1169.13 265.25C1169.43 265.25 1169.68 265.35 1169.88 265.55C1170.1 265.75 1170.21 266 1170.21 266.3C1170.21 266.583 1170.1 266.833 1169.88 267.05C1169.68 267.25 1169.43 267.35 1169.13 267.35C1168.85 267.35 1168.6 267.25 1168.38 267.05C1168.17 266.833 1168.06 266.583 1168.06 266.3C1168.06 266 1168.17 265.75 1168.38 265.55C1168.6 265.35 1168.85 265.25 1169.13 265.25ZM1186.39 274.45C1186.39 273.983 1186.31 273.592 1186.16 273.275C1186.03 272.958 1185.84 272.7 1185.59 272.5C1185.34 272.3 1185.05 272.158 1184.74 272.075C1184.42 271.992 1184.08 271.95 1183.71 271.95C1183.46 271.95 1183.18 271.983 1182.86 272.05C1182.55 272.1 1182.22 272.192 1181.89 272.325C1181.55 272.442 1181.2 272.608 1180.84 272.825C1180.92 273.058 1180.98 273.308 1181.01 273.575C1181.05 273.825 1181.06 274.1 1181.06 274.4V283H1179.26V274.45C1179.26 273.983 1179.19 273.592 1179.04 273.275C1178.9 272.958 1178.71 272.7 1178.46 272.5C1178.23 272.3 1177.95 272.158 1177.64 272.075C1177.32 271.992 1176.98 271.95 1176.61 271.95C1176.3 271.95 1176 271.983 1175.71 272.05C1175.43 272.1 1175.15 272.183 1174.86 272.3C1174.58 272.417 1174.28 272.567 1173.96 272.75V283H1172.09V270.5H1173.96V271.25C1174.23 271.083 1174.51 270.925 1174.81 270.775C1175.13 270.625 1175.46 270.508 1175.81 270.425C1176.18 270.325 1176.55 270.275 1176.94 270.275C1177.44 270.275 1177.89 270.325 1178.29 270.425C1178.7 270.525 1179.08 270.675 1179.41 270.875C1179.75 271.058 1180.03 271.3 1180.26 271.6C1180.61 271.35 1180.99 271.125 1181.39 270.925C1181.79 270.725 1182.21 270.567 1182.66 270.45C1183.11 270.333 1183.58 270.275 1184.06 270.275C1184.7 270.275 1185.26 270.358 1185.76 270.525C1186.26 270.675 1186.7 270.917 1187.06 271.25C1187.43 271.583 1187.7 272.017 1187.89 272.55C1188.09 273.067 1188.19 273.683 1188.19 274.4V283H1186.39V274.45ZM1199.53 278.6C1199.53 280.117 1199.17 281.283 1198.45 282.1C1197.74 282.9 1196.69 283.3 1195.3 283.3C1194.87 283.3 1194.44 283.233 1194.03 283.1C1193.63 282.983 1193.27 282.817 1192.95 282.6C1192.64 282.383 1192.38 282.142 1192.18 281.875V288.325L1190.28 287.725V270.5H1192.18V271.45C1192.46 271.217 1192.78 271.017 1193.13 270.85C1193.48 270.667 1193.84 270.525 1194.23 270.425C1194.63 270.308 1195.02 270.25 1195.4 270.25C1196.3 270.217 1197.05 270.367 1197.65 270.7C1198.27 271.017 1198.74 271.492 1199.05 272.125C1199.37 272.742 1199.53 273.483 1199.53 274.35V278.6ZM1197.68 274.475C1197.68 273.975 1197.6 273.558 1197.45 273.225C1197.3 272.875 1197.09 272.608 1196.83 272.425C1196.58 272.225 1196.29 272.083 1195.98 272C1195.66 271.917 1195.33 271.883 1194.98 271.9C1194.64 271.933 1194.29 272.008 1193.93 272.125C1193.56 272.242 1193.22 272.392 1192.9 272.575C1192.6 272.758 1192.36 272.975 1192.18 273.225V278.925C1192.18 279.358 1192.26 279.742 1192.43 280.075C1192.59 280.408 1192.82 280.692 1193.1 280.925C1193.4 281.142 1193.73 281.308 1194.08 281.425C1194.44 281.542 1194.82 281.6 1195.2 281.6C1195.74 281.6 1196.19 281.5 1196.55 281.3C1196.92 281.083 1197.19 280.775 1197.38 280.375C1197.58 279.975 1197.68 279.475 1197.68 278.875V274.475ZM1201.63 283V265.5H1203.48V283H1201.63ZM1207.43 279.525C1207.43 279.892 1207.49 280.208 1207.61 280.475C1207.72 280.742 1207.88 280.967 1208.08 281.15C1208.3 281.317 1208.55 281.442 1208.83 281.525C1209.13 281.608 1209.45 281.65 1209.78 281.65C1210.35 281.65 1210.92 281.55 1211.51 281.35C1212.11 281.15 1212.7 280.9 1213.28 280.6L1213.98 282.125C1213.38 282.492 1212.71 282.783 1211.96 283C1211.22 283.2 1210.51 283.3 1209.83 283.3C1209.21 283.3 1208.64 283.233 1208.11 283.1C1207.59 282.983 1207.14 282.783 1206.76 282.5C1206.39 282.2 1206.1 281.817 1205.88 281.35C1205.68 280.883 1205.58 280.317 1205.58 279.65V274.525C1205.58 273.575 1205.78 272.783 1206.18 272.15C1206.58 271.517 1207.13 271.042 1207.83 270.725C1208.53 270.408 1209.32 270.25 1210.21 270.25C1211.09 270.25 1211.86 270.408 1212.51 270.725C1213.17 271.025 1213.69 271.492 1214.06 272.125C1214.42 272.742 1214.61 273.517 1214.61 274.45V277.9L1207.43 278.275V279.525ZM1212.73 274.575C1212.73 274.058 1212.63 273.6 1212.43 273.2C1212.23 272.8 1211.94 272.483 1211.56 272.25C1211.17 272.017 1210.71 271.9 1210.18 271.9C1209.58 271.917 1209.07 272.042 1208.66 272.275C1208.26 272.492 1207.95 272.808 1207.73 273.225C1207.53 273.642 1207.43 274.15 1207.43 274.75V276.525L1212.73 276.275V274.575ZM1230.89 274.45C1230.89 273.983 1230.82 273.592 1230.67 273.275C1230.54 272.958 1230.34 272.7 1230.09 272.5C1229.84 272.3 1229.56 272.158 1229.24 272.075C1228.93 271.992 1228.59 271.95 1228.22 271.95C1227.97 271.95 1227.69 271.983 1227.37 272.05C1227.05 272.1 1226.73 272.192 1226.39 272.325C1226.06 272.442 1225.71 272.608 1225.34 272.825C1225.43 273.058 1225.49 273.308 1225.52 273.575C1225.55 273.825 1225.57 274.1 1225.57 274.4V283H1223.77V274.45C1223.77 273.983 1223.69 273.592 1223.54 273.275C1223.41 272.958 1223.22 272.7 1222.97 272.5C1222.74 272.3 1222.46 272.158 1222.14 272.075C1221.83 271.992 1221.49 271.95 1221.12 271.95C1220.8 271.95 1220.5 271.983 1220.22 272.05C1219.94 272.1 1219.65 272.183 1219.37 272.3C1219.09 272.417 1218.79 272.567 1218.47 272.75V283H1216.59V270.5H1218.47V271.25C1218.74 271.083 1219.02 270.925 1219.32 270.775C1219.64 270.625 1219.97 270.508 1220.32 270.425C1220.69 270.325 1221.06 270.275 1221.44 270.275C1221.94 270.275 1222.39 270.325 1222.79 270.425C1223.21 270.525 1223.59 270.675 1223.92 270.875C1224.25 271.058 1224.54 271.3 1224.77 271.6C1225.12 271.35 1225.49 271.125 1225.89 270.925C1226.29 270.725 1226.72 270.567 1227.17 270.45C1227.62 270.333 1228.09 270.275 1228.57 270.275C1229.2 270.275 1229.77 270.358 1230.27 270.525C1230.77 270.675 1231.2 270.917 1231.57 271.25C1231.94 271.583 1232.21 272.017 1232.39 272.55C1232.59 273.067 1232.69 273.683 1232.69 274.4V283H1230.89V274.45ZM1236.58 279.525C1236.58 279.892 1236.64 280.208 1236.76 280.475C1236.87 280.742 1237.03 280.967 1237.23 281.15C1237.45 281.317 1237.7 281.442 1237.98 281.525C1238.28 281.608 1238.6 281.65 1238.93 281.65C1239.5 281.65 1240.07 281.55 1240.66 281.35C1241.26 281.15 1241.85 280.9 1242.43 280.6L1243.13 282.125C1242.53 282.492 1241.86 282.783 1241.11 283C1240.37 283.2 1239.66 283.3 1238.98 283.3C1238.36 283.3 1237.79 283.233 1237.26 283.1C1236.74 282.983 1236.29 282.783 1235.91 282.5C1235.54 282.2 1235.25 281.817 1235.03 281.35C1234.83 280.883 1234.73 280.317 1234.73 279.65V274.525C1234.73 273.575 1234.93 272.783 1235.33 272.15C1235.73 271.517 1236.28 271.042 1236.98 270.725C1237.68 270.408 1238.47 270.25 1239.36 270.25C1240.24 270.25 1241.01 270.408 1241.66 270.725C1242.32 271.025 1242.84 271.492 1243.21 272.125C1243.57 272.742 1243.76 273.517 1243.76 274.45V277.9L1236.58 278.275V279.525ZM1241.88 274.575C1241.88 274.058 1241.78 273.6 1241.58 273.2C1241.38 272.8 1241.09 272.483 1240.71 272.25C1240.32 272.017 1239.86 271.9 1239.33 271.9C1238.73 271.917 1238.22 272.042 1237.81 272.275C1237.41 272.492 1237.1 272.808 1236.88 273.225C1236.68 273.642 1236.58 274.15 1236.58 274.75V276.525L1241.88 276.275V274.575ZM1253.17 274.45C1253.17 273.983 1253.09 273.592 1252.94 273.275C1252.79 272.958 1252.59 272.7 1252.32 272.5C1252.05 272.3 1251.75 272.158 1251.42 272.075C1251.1 271.975 1250.76 271.925 1250.39 271.925C1250.08 271.925 1249.76 271.95 1249.44 272C1249.14 272.05 1248.84 272.133 1248.54 272.25C1248.24 272.367 1247.94 272.517 1247.62 272.7V283H1245.74V270.475H1247.62V271.225C1247.89 271.058 1248.19 270.9 1248.52 270.75C1248.85 270.6 1249.21 270.483 1249.59 270.4C1249.98 270.3 1250.36 270.25 1250.74 270.25C1251.24 270.25 1251.71 270.308 1252.14 270.425C1252.58 270.525 1252.97 270.683 1253.32 270.9C1253.67 271.117 1253.97 271.392 1254.22 271.725C1254.47 272.042 1254.66 272.417 1254.79 272.85C1254.93 273.283 1254.99 273.792 1254.99 274.375V283H1253.17V274.45ZM1258.97 279.7C1258.97 280.117 1259.04 280.475 1259.17 280.775C1259.31 281.058 1259.5 281.292 1259.75 281.475C1260 281.658 1260.31 281.792 1260.7 281.875L1260.12 283.325C1259.09 283.125 1258.32 282.733 1257.82 282.15C1257.34 281.55 1257.1 280.733 1257.1 279.7V265.5H1258.97V270.5H1261.8L1261.2 272.2H1258.97V279.7ZM1269.41 274.375C1269.41 273.808 1269.32 273.342 1269.16 272.975C1268.99 272.608 1268.75 272.333 1268.43 272.15C1268.12 271.95 1267.75 271.817 1267.33 271.75C1266.92 271.667 1266.46 271.625 1265.96 271.625L1266.06 270.275C1267.06 270.275 1267.89 270.367 1268.56 270.55C1269.22 270.733 1269.75 271.033 1270.13 271.45C1270.53 271.85 1270.82 272.4 1270.98 273.1C1271.17 273.783 1271.26 274.633 1271.26 275.65V283C1271.19 283.017 1271.04 283.033 1270.81 283.05C1270.59 283.067 1270.33 283.083 1270.03 283.1C1269.73 283.133 1269.41 283.158 1269.06 283.175C1268.72 283.208 1268.39 283.225 1268.06 283.225C1267.72 283.242 1267.42 283.25 1267.13 283.25C1266.37 283.267 1265.65 283.208 1264.98 283.075C1264.32 282.958 1263.73 282.742 1263.23 282.425C1262.73 282.092 1262.34 281.642 1262.06 281.075C1261.77 280.492 1261.63 279.758 1261.63 278.875V276.7C1261.63 276.017 1261.73 275.442 1261.93 274.975C1262.13 274.492 1262.41 274.1 1262.76 273.8C1263.11 273.5 1263.5 273.283 1263.93 273.15C1264.38 273.017 1264.85 272.95 1265.33 272.95C1265.83 272.95 1266.33 273.017 1266.83 273.15C1267.33 273.267 1267.8 273.433 1268.23 273.65C1268.68 273.85 1269.07 274.092 1269.41 274.375ZM1269.41 275.85C1269.09 275.667 1268.72 275.492 1268.28 275.325C1267.87 275.142 1267.42 274.992 1266.93 274.875C1266.47 274.742 1265.99 274.675 1265.51 274.675C1265.31 274.675 1265.09 274.708 1264.86 274.775C1264.62 274.825 1264.4 274.925 1264.18 275.075C1263.98 275.225 1263.82 275.442 1263.68 275.725C1263.55 276.008 1263.48 276.383 1263.48 276.85V278.625C1263.48 279.125 1263.53 279.567 1263.63 279.95C1263.73 280.333 1263.92 280.658 1264.18 280.925C1264.45 281.175 1264.82 281.358 1265.31 281.475C1265.79 281.592 1266.4 281.633 1267.13 281.6C1267.38 281.6 1267.62 281.592 1267.83 281.575C1268.07 281.558 1268.27 281.542 1268.46 281.525C1268.66 281.508 1268.82 281.5 1268.96 281.5C1269.11 281.483 1269.22 281.475 1269.28 281.475C1269.37 281.458 1269.41 281.45 1269.41 281.45V275.85ZM1275.26 279.7C1275.26 280.117 1275.32 280.475 1275.46 280.775C1275.59 281.058 1275.78 281.292 1276.03 281.475C1276.28 281.658 1276.6 281.792 1276.98 281.875L1276.41 283.325C1275.37 283.125 1274.61 282.733 1274.11 282.15C1273.62 281.55 1273.38 280.733 1273.38 279.7V265.5H1275.26V270.5H1278.08L1277.48 272.2H1275.26V279.7ZM1279.93 283V270.475H1281.8V283H1279.93ZM1280.88 265.25C1281.18 265.25 1281.43 265.35 1281.63 265.55C1281.84 265.75 1281.95 266 1281.95 266.3C1281.95 266.583 1281.84 266.833 1281.63 267.05C1281.43 267.25 1281.18 267.35 1280.88 267.35C1280.59 267.35 1280.34 267.25 1280.13 267.05C1279.91 266.833 1279.8 266.583 1279.8 266.3C1279.8 266 1279.91 265.75 1280.13 265.55C1280.34 265.35 1280.59 265.25 1280.88 265.25ZM1293.03 278.375C1293.03 279.842 1292.65 281.025 1291.9 281.925C1291.15 282.808 1290.01 283.25 1288.48 283.25C1287.43 283.25 1286.55 283.025 1285.85 282.575C1285.15 282.125 1284.63 281.533 1284.28 280.8C1283.94 280.067 1283.78 279.258 1283.78 278.375V275.1C1283.78 274.033 1283.95 273.142 1284.3 272.425C1284.67 271.692 1285.2 271.142 1285.9 270.775C1286.6 270.392 1287.45 270.2 1288.45 270.2C1289.92 270.2 1291.04 270.633 1291.83 271.5C1292.63 272.367 1293.03 273.567 1293.03 275.1V278.375ZM1291.15 275.05C1291.15 274.383 1291.05 273.825 1290.85 273.375C1290.67 272.908 1290.38 272.558 1289.98 272.325C1289.59 272.075 1289.09 271.95 1288.48 271.95C1287.86 271.95 1287.34 272.067 1286.9 272.3C1286.49 272.533 1286.17 272.883 1285.95 273.35C1285.74 273.8 1285.63 274.367 1285.63 275.05V278.6C1285.63 279.167 1285.74 279.667 1285.95 280.1C1286.19 280.533 1286.52 280.875 1286.95 281.125C1287.39 281.375 1287.89 281.5 1288.48 281.5C1289.08 281.5 1289.58 281.383 1289.98 281.15C1290.38 280.917 1290.67 280.583 1290.85 280.15C1291.05 279.7 1291.15 279.183 1291.15 278.6V275.05ZM1302.46 274.45C1302.46 273.983 1302.39 273.592 1302.24 273.275C1302.09 272.958 1301.88 272.7 1301.61 272.5C1301.35 272.3 1301.05 272.158 1300.71 272.075C1300.4 271.975 1300.05 271.925 1299.69 271.925C1299.37 271.925 1299.05 271.95 1298.74 272C1298.44 272.05 1298.14 272.133 1297.84 272.25C1297.54 272.367 1297.23 272.517 1296.91 272.7V283H1295.04V270.475H1296.91V271.225C1297.18 271.058 1297.48 270.9 1297.81 270.75C1298.15 270.6 1298.5 270.483 1298.89 270.4C1299.27 270.3 1299.65 270.25 1300.04 270.25C1300.54 270.25 1301 270.308 1301.44 270.425C1301.87 270.525 1302.26 270.683 1302.61 270.9C1302.96 271.117 1303.26 271.392 1303.51 271.725C1303.76 272.042 1303.95 272.417 1304.09 272.85C1304.22 273.283 1304.29 273.792 1304.29 274.375V283H1302.46V274.45ZM1113.83 308.5C1113.54 308.383 1113.25 308.292 1112.95 308.225C1112.67 308.142 1112.38 308.083 1112.1 308.05C1111.82 308.017 1111.53 308 1111.25 308C1110.53 308 1109.91 308.108 1109.38 308.325C1108.86 308.542 1108.46 308.883 1108.18 309.35C1107.89 309.817 1107.75 310.433 1107.75 311.2V319.325C1107.75 319.992 1107.86 320.558 1108.08 321.025C1108.31 321.492 1108.65 321.85 1109.1 322.1C1109.55 322.333 1110.11 322.45 1110.78 322.45C1111.29 322.45 1111.77 322.375 1112.2 322.225C1112.63 322.075 1113.01 321.867 1113.33 321.6C1113.66 321.333 1113.92 321.008 1114.1 320.625C1114.28 320.225 1114.38 319.792 1114.38 319.325V318.275H1111.75L1111.13 316.5H1116.18V324H1114.68L1114.58 322.925C1114.28 323.208 1113.92 323.45 1113.5 323.65C1113.08 323.85 1112.64 324 1112.18 324.1C1111.71 324.2 1111.25 324.25 1110.8 324.25C1109.85 324.25 1109 324.075 1108.25 323.725C1107.52 323.358 1106.93 322.817 1106.5 322.1C1106.08 321.367 1105.88 320.45 1105.88 319.35V311.4C1105.88 310.3 1106.07 309.367 1106.45 308.6C1106.85 307.833 1107.42 307.258 1108.15 306.875C1108.9 306.475 1109.81 306.275 1110.88 306.275C1111.31 306.275 1111.73 306.308 1112.13 306.375C1112.53 306.425 1112.92 306.517 1113.3 306.65C1113.68 306.767 1114.05 306.917 1114.4 307.1L1113.83 308.5ZM1118.08 311.3C1118.08 309.6 1118.56 308.308 1119.51 307.425C1120.46 306.542 1121.76 306.1 1123.41 306.1C1125.06 306.1 1126.34 306.567 1127.26 307.5C1128.17 308.417 1128.63 309.692 1128.63 311.325V319.35C1128.63 320.367 1128.41 321.242 1127.96 321.975C1127.52 322.708 1126.91 323.275 1126.11 323.675C1125.32 324.075 1124.42 324.275 1123.38 324.275C1122.4 324.275 1121.51 324.092 1120.71 323.725C1119.91 323.358 1119.27 322.808 1118.78 322.075C1118.32 321.342 1118.08 320.433 1118.08 319.35V311.3ZM1119.96 319.175C1119.96 319.875 1120.1 320.475 1120.38 320.975C1120.67 321.458 1121.06 321.825 1121.56 322.075C1122.07 322.325 1122.67 322.45 1123.33 322.45C1124.02 322.45 1124.62 322.333 1125.13 322.1C1125.65 321.85 1126.05 321.475 1126.33 320.975C1126.62 320.475 1126.76 319.867 1126.76 319.15V311.425C1126.76 310.642 1126.62 310 1126.36 309.5C1126.11 308.983 1125.72 308.6 1125.21 308.35C1124.71 308.083 1124.08 307.95 1123.33 307.95C1122.63 307.95 1122.02 308.083 1121.51 308.35C1121.01 308.6 1120.62 308.983 1120.36 309.5C1120.09 310 1119.96 310.642 1119.96 311.425V319.175ZM1130.71 324V306.5H1132.58V322.325H1139.73V324H1130.71ZM1146.39 306.5C1147.64 306.5 1148.69 306.733 1149.54 307.2C1150.41 307.65 1151.07 308.3 1151.52 309.15C1151.97 309.983 1152.19 310.975 1152.19 312.125V318.95C1152.19 320.05 1151.99 320.975 1151.59 321.725C1151.21 322.475 1150.63 323.042 1149.84 323.425C1149.06 323.808 1148.08 324 1146.89 324H1141.67V306.5H1146.39ZM1146.49 322.325C1147.21 322.325 1147.81 322.25 1148.29 322.1C1148.79 321.95 1149.19 321.742 1149.47 321.475C1149.77 321.192 1149.99 320.858 1150.12 320.475C1150.25 320.075 1150.32 319.65 1150.32 319.2V311.8C1150.32 311.117 1150.19 310.508 1149.94 309.975C1149.69 309.442 1149.29 309.025 1148.74 308.725C1148.21 308.425 1147.51 308.275 1146.64 308.275H1143.54V322.325H1146.49ZM1154.27 324V306.5H1162.62V308.275H1156.14V313.675H1160.44L1159.89 315.475H1156.14V322.325H1162.57V324H1154.27ZM1176.94 306.5V324H1175.09L1166.49 310.1V324H1164.62V306.5H1166.49L1175.09 320.525V306.5H1176.94ZM1180.97 306.5L1185.77 320.825L1190.67 306.5H1192.52V324H1190.67V312L1186.65 324H1184.95L1180.97 312V324H1179.1V306.5H1180.97ZM1194.56 308.2V306.5H1198.11V324H1196.26V308.25L1194.56 308.2ZM1200.26 324V306.5H1202.14V322.325H1209.29V324H1200.26ZM1211.23 324V306.5H1213.1V322.325H1220.25V324H1211.23Z" fill="#969284"/>
<path d="M1117.7 219.634C1113.41 219.634 1110.14 218.591 1107.89 216.474C1105.64 214.372 1104.52 211.37 1104.52 207.468C1104.52 203.439 1105.67 200.326 1108 198.146C1110.32 195.965 1113.71 194.859 1118.18 194.859C1119.67 194.859 1121.03 194.954 1122.24 195.128C1123.44 195.302 1124.58 195.57 1125.66 195.918V201.922C1124.57 201.495 1123.43 201.211 1122.25 201.069C1121.08 200.927 1119.88 200.848 1118.66 200.848C1116.34 200.848 1114.6 201.369 1113.44 202.412C1112.28 203.455 1111.7 205.145 1111.7 207.484C1111.7 209.68 1112.2 211.244 1113.22 212.224C1114.23 213.187 1115.72 213.677 1117.69 213.677C1118.34 213.677 1118.94 213.63 1119.53 213.551C1120.1 213.472 1120.64 213.345 1121.14 213.203V209.696H1116.36V205.366H1127.03V217.453C1126.11 218.022 1124.87 218.528 1123.33 218.986C1121.81 219.413 1119.92 219.634 1117.7 219.634Z" fill="#82653E"/>
<path d="M1141.59 219.634C1137.6 219.634 1134.56 218.67 1132.45 216.727C1130.34 214.783 1129.28 211.655 1129.28 207.326C1129.28 204.339 1129.75 201.938 1130.7 200.105C1131.66 198.272 1133.05 196.945 1134.87 196.108C1136.71 195.27 1138.95 194.859 1141.59 194.859C1144.24 194.859 1146.48 195.27 1148.32 196.108C1150.15 196.945 1151.53 198.272 1152.48 200.105C1153.44 201.938 1153.91 204.339 1153.91 207.326C1153.91 211.655 1152.85 214.783 1150.73 216.727C1148.6 218.654 1145.56 219.634 1141.59 219.634ZM1141.59 213.661C1143.39 213.661 1144.7 213.156 1145.51 212.145C1146.32 211.133 1146.73 209.522 1146.73 207.31C1146.73 204.94 1146.32 203.281 1145.51 202.285C1144.7 201.306 1143.4 200.816 1141.59 200.816C1139.79 200.816 1138.49 201.306 1137.68 202.285C1136.87 203.265 1136.46 204.94 1136.46 207.31C1136.46 209.522 1136.87 211.133 1137.68 212.145C1138.49 213.156 1139.79 213.661 1141.59 213.661Z" fill="#82653E"/>
<path d="M1156.89 219.254V195.238H1163.93V213.898H1174.79V219.27H1156.89V219.254Z" fill="#82653E"/>
<path d="M1177.04 219.254V195.238H1187.82C1190.29 195.238 1192.4 195.649 1194.14 196.455C1195.89 197.261 1197.22 198.556 1198.15 200.342C1199.07 202.127 1199.53 204.481 1199.53 207.404C1199.53 211.528 1198.52 214.546 1196.51 216.426C1194.48 218.322 1191.59 219.254 1187.82 219.254H1177.04ZM1184.08 213.882H1186.91C1188.09 213.882 1189.07 213.708 1189.88 213.377C1190.67 213.045 1191.29 212.413 1191.72 211.481C1192.15 210.548 1192.35 209.19 1192.35 207.388C1192.35 205.587 1192.16 204.213 1191.77 203.233C1191.39 202.253 1190.78 201.574 1189.99 201.179C1189.2 200.8 1188.17 200.594 1186.91 200.594H1184.08V213.882Z" fill="#82653E"/>
<path d="M1202.53 219.254V195.238H1220.79V200.61H1209.55V204.529H1219.39V209.98H1209.55V213.898H1220.77V219.27H1202.53V219.254Z" fill="#82653E"/>
<path d="M1223.41 219.254V195.238H1229.4L1238.5 207.957V195.238H1245.54V219.27H1239.51L1230.46 206.583V219.27H1223.41V219.254Z" fill="#82653E"/>
<path d="M1257.31 219.254V195.238H1264.16L1270.15 207.436L1276.1 195.238H1282.91V219.27H1275.88V207.262L1272.02 215.178H1268.25L1264.35 207.262V219.27H1257.31V219.254Z" fill="#82653E"/>
<path d="M1286.65 219.254V195.238H1293.69V219.27H1286.65V219.254Z" fill="#82653E"/>
<path d="M1297.43 219.254V195.238H1304.47V213.898H1315.33V219.27H1297.43V219.254Z" fill="#82653E"/>
<path d="M1317.58 219.254V195.238H1324.62V213.898H1335.48V219.27H1317.58V219.254Z" fill="#82653E"/>
<path d="M1063.28 208.179L1079.12 226.507H1069.59C1065.17 226.507 1061.57 222.921 1061.57 218.512V208.211H1043.34C1043.34 208.211 1043.01 207.073 1042.9 206.71C1041.2 200.88 1045.78 199.394 1049.46 201.132L1061.46 206.789L1048.8 188.477L1056.01 189.409C1060 189.93 1063 193.311 1063 197.34V206.773H1081.31C1083.35 212.271 1079.09 214.594 1075.17 212.998L1063.28 208.179Z" fill="#82653E"/>
<path d="M1058.1 212.271L1044.06 226.27C1043.5 225.954 1043.12 225.369 1043.12 224.69V213.156C1043.12 212.145 1043.93 211.339 1044.94 211.339H1056.52C1057.18 211.339 1057.78 211.718 1058.1 212.271Z" fill="#4390BD"/>
<path d="M1058.34 213.172V224.706C1058.34 225.701 1057.51 226.523 1056.51 226.523H1044.94C1044.61 226.523 1044.31 226.444 1044.05 226.286L1058.1 212.287C1058.24 212.54 1058.34 212.84 1058.34 213.172Z" fill="#265C84"/>
<path d="M1091.61 188.492H1071.84H1071.78C1070.92 188.555 1070.12 188.824 1069.51 189.424L1068.1 190.831C1068.1 190.831 1068.1 190.831 1068.1 190.846L1066.71 192.237C1066.34 192.6 1066.14 193.09 1066.14 193.611V201.859C1066.14 202.538 1066.52 203.139 1067.07 203.439L1073.62 196.803C1074.08 196.345 1074.7 196.092 1075.35 196.092H1093.42V190.325C1093.43 189.298 1092.61 188.492 1091.61 188.492Z" fill="#4390BD"/>
<path d="M1075.36 196.076C1074.71 196.076 1074.1 196.329 1073.64 196.787L1067.09 203.423C1067.34 203.566 1067.64 203.645 1067.96 203.645H1091.61C1092.61 203.645 1093.44 202.839 1093.44 201.828V196.061H1075.36V196.076Z" fill="#265C84"/>
<defs>
<filter id="filter0_b_5_4122" x="18" y="-16" width="65" height="65" filterUnits="userSpaceOnUse" color-interpolation-filters="sRGB">
<feFlood flood-opacity="0" result="BackgroundImageFix"/>
<feGaussianBlur in="BackgroundImageFix" stdDeviation="9.5"/>
<feComposite in2="SourceAlpha" operator="in" result="effect1_backgroundBlur_5_4122"/>
<feBlend mode="normal" in="SourceGraphic" in2="effect1_backgroundBlur_5_4122" result="shape"/>
</filter>
<filter id="filter1_b_5_4122" x="-19" y="132" width="141" height="141" filterUnits="userSpaceOnUse" color-interpolation-filters="sRGB">
<feFlood flood-opacity="0" result="BackgroundImageFix"/>
<feGaussianBlur in="BackgroundImageFix" stdDeviation="9.5"/>
<feComposite in2="SourceAlpha" operator="in" result="effect1_backgroundBlur_5_4122"/>
<feBlend mode="normal" in="SourceGraphic" in2="effect1_backgroundBlur_5_4122" result="shape"/>
</filter>
<filter id="filter2_b_5_4122" x="527" y="-16" width="65" height="65" filterUnits="userSpaceOnUse" color-interpolation-filters="sRGB">
<feFlood flood-opacity="0" result="BackgroundImageFix"/>
<feGaussianBlur in="BackgroundImageFix" stdDeviation="9.5"/>
<feComposite in2="SourceAlpha" operator="in" result="effect1_backgroundBlur_5_4122"/>
<feBlend mode="normal" in="SourceGraphic" in2="effect1_backgroundBlur_5_4122" result="shape"/>
</filter>
<filter id="filter3_b_5_4122" x="1007" y="-16" width="65" height="65" filterUnits="userSpaceOnUse" color-interpolation-filters="sRGB">
<feFlood flood-opacity="0" result="BackgroundImageFix"/>
<feGaussianBlur in="BackgroundImageFix" stdDeviation="9.5"/>
<feComposite in2="SourceAlpha" operator="in" result="effect1_backgroundBlur_5_4122"/>
<feBlend mode="normal" in="SourceGraphic" in2="effect1_backgroundBlur_5_4122" result="shape"/>
</filter>
<filter id="filter4_b_5_4122" x="490" y="134" width="141" height="141" filterUnits="userSpaceOnUse" color-interpolation-filters="sRGB">
<feFlood flood-opacity="0" result="BackgroundImageFix"/>
<feGaussianBlur in="BackgroundImageFix" stdDeviation="9.5"/>
<feComposite in2="SourceAlpha" operator="in" result="effect1_backgroundBlur_5_4122"/>
<feBlend mode="normal" in="SourceGraphic" in2="effect1_backgroundBlur_5_4122" result="shape"/>
</filter>
<filter id="filter5_b_5_4122" x="969" y="137" width="141" height="141" filterUnits="userSpaceOnUse" color-interpolation-filters="sRGB">
<feFlood flood-opacity="0" result="BackgroundImageFix"/>
<feGaussianBlur in="BackgroundImageFix" stdDeviation="9.5"/>
<feComposite in2="SourceAlpha" operator="in" result="effect1_backgroundBlur_5_4122"/>
<feBlend mode="normal" in="SourceGraphic" in2="effect1_backgroundBlur_5_4122" result="shape"/>
</filter>
</defs>
</svg>
